<svg width="24" height="24" viewBox="0 0 24 24" fill="none" xmlns="http://www.w3.org/2000/svg">
<path d="M11.47 1.72C11.6106 1.57955 11.8012 1.50066 12 1.50066C12.1988 1.50066 12.3894 1.57955 12.53 1.72L15.53 4.72C15.6625 4.86217 15.7346 5.05022 15.7312 5.24452C15.7277 5.43882 15.649 5.62421 15.5116 5.76162C15.3742 5.89903 15.1888 5.97774 14.9945 5.98117C14.8002 5.9846 14.6122 5.91248 14.47 5.78L12.75 4.06V7.5H11.25V4.06L9.53 5.78C9.38783 5.91248 9.19978 5.9846 9.00548 5.98117C8.81118 5.97774 8.62579 5.89903 8.48838 5.76162C8.35097 5.62421 8.27225 5.43882 8.26882 5.24452C8.2654 5.05022 8.33752 4.86217 8.47 4.72L11.47 1.72ZM11.25 7.5V15C11.25 15.1989 11.329 15.3897 11.4697 15.5303C11.6103 15.671 11.8011 15.75 12 15.75C12.1989 15.75 12.3897 15.671 12.5303 15.5303C12.671 15.3897 12.75 15.1989 12.75 15V7.5H16.5C17.2956 7.5 18.0587 7.81607 18.6213 8.37868C19.1839 8.94128 19.5 9.70435 19.5 10.5V19.5C19.5 20.2956 19.1839 21.0587 18.6213 21.6213C18.0587 22.1839 17.2956 22.5 16.5 22.5H7.5C6.70435 22.5 5.94129 22.1839 5.37868 21.6213C4.81607 21.0587 4.5 20.2956 4.5 19.5V10.5C4.5 9.70435 4.81607 8.94128 5.37868 8.37868C5.94129 7.81607 6.70435 7.5 7.5 7.5H11.25Z" fill="white"/>
</svg>
