<svg width="24" height="24" viewBox="0 0 24 24" fill="none" xmlns="http://www.w3.org/2000/svg">
<path fill-rule="evenodd" clip-rule="evenodd" d="M19.5 21C20.2956 21 21.0587 20.6839 21.6213 20.1213C22.1839 19.5587 22.5 18.7956 22.5 18V9C22.5 8.20435 22.1839 7.44129 21.6213 6.87868C21.0587 6.31607 20.2956 6 19.5 6H14.121C13.9222 5.99983 13.7315 5.92069 13.591 5.78L11.47 3.66C11.2611 3.45089 11.0131 3.28497 10.7402 3.17173C10.4672 3.05848 10.1745 3.00013 9.879 3H4.5C3.70435 3 2.94129 3.31607 2.37868 3.87868C1.81607 4.44129 1.5 5.20435 1.5 6V18C1.5 18.7956 1.81607 19.5587 2.37868 20.1213C2.94129 20.6839 3.70435 21 4.5 21H19.5ZM12.75 10.5C12.75 10.3011 12.671 10.1103 12.5303 9.96967C12.3897 9.82902 12.1989 9.75 12 9.75C11.8011 9.75 11.6103 9.82902 11.4697 9.96967C11.329 10.1103 11.25 10.3011 11.25 10.5V12.75H9C8.80109 12.75 8.61032 12.829 8.46967 12.9697C8.32902 13.1103 8.25 13.3011 8.25 13.5C8.25 13.6989 8.32902 13.8897 8.46967 14.0303C8.61032 14.171 8.80109 14.25 9 14.25H11.25V16.5C11.25 16.6989 11.329 16.8897 11.4697 17.0303C11.6103 17.171 11.8011 17.25 12 17.25C12.1989 17.25 12.3897 17.171 12.5303 17.0303C12.671 16.8897 12.75 16.6989 12.75 16.5V14.25H15C15.1989 14.25 15.3897 14.171 15.5303 14.0303C15.671 13.8897 15.75 13.6989 15.75 13.5C15.75 13.3011 15.671 13.1103 15.5303 12.9697C15.3897 12.829 15.1989 12.75 15 12.75H12.75V10.5Z" fill="white"/>
</svg>
