<svg width="24" height="24" viewBox="0 0 24 24" fill="none" xmlns="http://www.w3.org/2000/svg">
<g clip-path="url(#clip0_251_2015)">
<path d="M14.4 14.4L9.60001 9.60001" stroke="white" stroke-width="2" stroke-linecap="round" stroke-linejoin="round"/>
<path d="M18.657 21.485C18.282 21.8601 17.7733 22.0709 17.2428 22.071C16.7124 22.0711 16.2036 21.8605 15.8285 21.4855C15.4533 21.1105 15.2425 20.6018 15.2424 20.0713C15.2423 19.5409 15.453 19.0321 15.828 18.657L14.061 20.425C13.6858 20.8001 13.177 21.0109 12.6465 21.0109C12.116 21.0109 11.6071 20.8001 11.232 20.425C10.8568 20.0498 10.6461 19.541 10.6461 19.0105C10.6461 18.48 10.8568 17.9711 11.232 17.596L17.596 11.232C17.9711 10.8568 18.48 10.6461 19.0105 10.6461C19.541 10.6461 20.0498 10.8568 20.425 11.232C20.8001 11.6071 21.0109 12.116 21.0109 12.6465C21.0109 13.177 20.8001 13.6858 20.425 14.061L18.657 15.828C19.0321 15.453 19.5409 15.2423 20.0713 15.2424C20.6018 15.2425 21.1105 15.4533 21.4855 15.8285C21.8605 16.2036 22.0711 16.7124 22.071 17.2428C22.0709 17.7733 21.8601 18.282 21.485 18.657L18.657 21.485Z" stroke="white" stroke-width="2" stroke-linecap="round" stroke-linejoin="round"/>
<path d="M21.5 21.5L20.1 20.1" stroke="white" stroke-width="2" stroke-linecap="round" stroke-linejoin="round"/>
<path d="M3.9 3.9L2.5 2.5" stroke="white" stroke-width="2" stroke-linecap="round" stroke-linejoin="round"/>
<path d="M6.40401 12.768C6.02886 13.1431 5.52005 13.3539 4.98951 13.3539C4.45897 13.3539 3.95016 13.1431 3.57501 12.768C3.19986 12.3928 2.9891 11.884 2.9891 11.3535C2.9891 10.823 3.19986 10.3141 3.57501 9.939L5.34301 8.172C5.15725 8.35769 4.93674 8.50497 4.69407 8.60544C4.45139 8.70591 4.1913 8.7576 3.92865 8.75755C3.39821 8.75746 2.88952 8.54665 2.51451 8.1715C2.32882 7.98574 2.18153 7.76523 2.08106 7.52256C1.9806 7.27988 1.92891 7.0198 1.92896 6.75715C1.92905 6.2267 2.13986 5.71802 2.51501 5.343L5.34301 2.515C5.71802 2.13985 6.22671 1.92904 6.75715 1.92895C7.0198 1.9289 7.27989 1.98059 7.52257 2.08106C7.76524 2.18153 7.98575 2.32881 8.17151 2.5145C8.35726 2.70019 8.50462 2.92065 8.60518 3.16329C8.70573 3.40593 8.75751 3.66599 8.75756 3.92865C8.7576 4.1913 8.70592 4.45138 8.60545 4.69406C8.50498 4.93673 8.3577 5.15724 8.17201 5.343L9.93901 3.575C10.3142 3.19985 10.823 2.98909 11.3535 2.98909C11.884 2.98909 12.3929 3.19985 12.768 3.575C13.1432 3.95015 13.3539 4.45896 13.3539 4.9895C13.3539 5.52004 13.1432 6.02885 12.768 6.404L6.40401 12.768Z" stroke="white" stroke-width="2" stroke-linecap="round" stroke-linejoin="round"/>
</g>
<defs>
<clipPath id="clip0_251_2015">
<rect width="24" height="24" fill="white"/>
</clipPath>
</defs>
</svg>
