<svg width="24" height="24" viewBox="0 0 24 24" fill="none" xmlns="http://www.w3.org/2000/svg">
<path d="M9.375 3C8.87772 3 8.4008 3.19754 8.04917 3.54917C7.69754 3.90081 7.5 4.37772 7.5 4.875C7.5 5.37228 7.69754 5.84919 8.04917 6.20083C8.4008 6.55246 8.87772 6.75 9.375 6.75H11.25V11.25H3.375C2.87772 11.25 2.40081 11.0525 2.04917 10.7008C1.69754 10.3492 1.5 9.87228 1.5 9.375V8.625C1.5 7.589 2.34 6.75 3.375 6.75H6.568C6.08181 6.02776 5.89354 5.14557 6.04253 4.28777C6.19152 3.42997 6.66624 2.66293 7.36749 2.14693C8.06875 1.63093 8.94228 1.40589 9.80557 1.51883C10.6688 1.63177 11.4551 2.07396 12 2.753C12.5449 2.07396 13.3312 1.63177 14.1944 1.51883C15.0577 1.40589 15.9313 1.63093 16.6325 2.14693C17.3338 2.66293 17.8085 3.42997 17.9575 4.28777C18.1065 5.14557 17.9182 6.02776 17.432 6.75H21.375C22.41 6.75 23.25 7.59 23.25 8.625V9.375C23.25 10.411 22.41 11.25 21.375 11.25H12.75V6.75H14.625C14.9958 6.75 15.3584 6.64003 15.6667 6.43401C15.975 6.22798 16.2154 5.93514 16.3573 5.59253C16.4992 5.24992 16.5363 4.87292 16.464 4.50921C16.3916 4.14549 16.213 3.8114 15.9508 3.54917C15.6886 3.28695 15.3545 3.10837 14.9908 3.03603C14.6271 2.96368 14.2501 3.00081 13.9075 3.14273C13.5649 3.28464 13.272 3.52496 13.066 3.83331C12.86 4.14165 12.75 4.50416 12.75 4.875V6.75H11.25V4.875C11.25 3.839 10.41 3 9.375 3ZM11.25 12.75H3V19.5C3 20.0967 3.23705 20.669 3.65901 21.091C4.08097 21.5129 4.65326 21.75 5.25 21.75H11.25V12.75ZM12.75 12.75V21.75H19.5C20.0967 21.75 20.669 21.5129 21.091 21.091C21.5129 20.669 21.75 20.0967 21.75 19.5V12.75H12.75Z" fill="white"/>
</svg>
