<svg width="24" height="24" viewBox="0 0 24 24" fill="none" xmlns="http://www.w3.org/2000/svg">
<path d="M3.478 2.40401C3.34804 2.36626 3.21028 2.36437 3.07933 2.39856C2.94838 2.43274 2.82912 2.50172 2.73419 2.59818C2.63927 2.69465 2.57221 2.815 2.54014 2.94648C2.50806 3.07796 2.51216 3.21567 2.552 3.34501L4.984 11.25H13.5C13.6989 11.25 13.8897 11.329 14.0303 11.4697C14.171 11.6103 14.25 11.8011 14.25 12C14.25 12.1989 14.171 12.3897 14.0303 12.5303C13.8897 12.671 13.6989 12.75 13.5 12.75H4.984L2.552 20.655C2.5124 20.7843 2.50848 20.9219 2.54066 21.0532C2.57284 21.1845 2.63992 21.3047 2.73481 21.401C2.8297 21.4974 2.94886 21.5662 3.07969 21.6004C3.21051 21.6345 3.34814 21.6327 3.478 21.595C10.093 19.6713 16.3309 16.6323 21.923 12.609C22.0196 12.5396 22.0983 12.4481 22.1526 12.3422C22.2069 12.2363 22.2353 12.119 22.2353 12C22.2353 11.881 22.2069 11.7637 22.1526 11.6578C22.0983 11.5519 22.0196 11.4605 21.923 11.391C16.331 7.36731 10.093 4.32797 3.478 2.40401Z" fill="white"/>
</svg>
