<svg width="24" height="24" viewBox="0 0 24 24" fill="none" xmlns="http://www.w3.org/2000/svg">
<path fill-rule="evenodd" clip-rule="evenodd" d="M3 4.875C3 3.839 3.84 3 4.875 3H9.375C10.411 3 11.25 3.84 11.25 4.875V9.375C11.25 10.411 10.41 11.25 9.375 11.25H4.875C4.37772 11.25 3.90081 11.0525 3.54917 10.7008C3.19754 10.3492 3 9.87228 3 9.375V4.875ZM4.875 4.5C4.77554 4.5 4.68016 4.53951 4.60984 4.60984C4.53951 4.68016 4.5 4.77554 4.5 4.875V9.375C4.5 9.582 4.668 9.75 4.875 9.75H9.375C9.47446 9.75 9.56984 9.71049 9.64017 9.64017C9.71049 9.56984 9.75 9.47446 9.75 9.375V4.875C9.75 4.77554 9.71049 4.68016 9.64017 4.60984C9.56984 4.53951 9.47446 4.5 9.375 4.5H4.875ZM12.75 4.875C12.75 3.839 13.59 3 14.625 3H19.125C20.16 3 21 3.84 21 4.875V9.375C21 10.411 20.16 11.25 19.125 11.25H14.625C14.1277 11.25 13.6508 11.0525 13.2992 10.7008C12.9475 10.3492 12.75 9.87228 12.75 9.375V4.875ZM14.625 4.5C14.5255 4.5 14.4302 4.53951 14.3598 4.60984C14.2895 4.68016 14.25 4.77554 14.25 4.875V9.375C14.25 9.582 14.418 9.75 14.625 9.75H19.125C19.2245 9.75 19.3198 9.71049 19.3902 9.64017C19.4605 9.56984 19.5 9.47446 19.5 9.375V4.875C19.5 4.77554 19.4605 4.68016 19.3902 4.60984C19.3198 4.53951 19.2245 4.5 19.125 4.5H14.625ZM6 6.75C6 6.55109 6.07902 6.36032 6.21967 6.21967C6.36032 6.07902 6.55109 6 6.75 6H7.5C7.69891 6 7.88968 6.07902 8.03033 6.21967C8.17098 6.36032 8.25 6.55109 8.25 6.75V7.5C8.25 7.69891 8.17098 7.88968 8.03033 8.03033C7.88968 8.17098 7.69891 8.25 7.5 8.25H6.75C6.55109 8.25 6.36032 8.17098 6.21967 8.03033C6.07902 7.88968 6 7.69891 6 7.5V6.75ZM15.75 6.75C15.75 6.55109 15.829 6.36032 15.9697 6.21967C16.1103 6.07902 16.3011 6 16.5 6H17.25C17.4489 6 17.6397 6.07902 17.7803 6.21967C17.921 6.36032 18 6.55109 18 6.75V7.5C18 7.69891 17.921 7.88968 17.7803 8.03033C17.6397 8.17098 17.4489 8.25 17.25 8.25H16.5C16.3011 8.25 16.1103 8.17098 15.9697 8.03033C15.829 7.88968 15.75 7.69891 15.75 7.5V6.75ZM3 14.625C3 13.589 3.84 12.75 4.875 12.75H9.375C10.411 12.75 11.25 13.59 11.25 14.625V19.125C11.25 20.16 10.41 21 9.375 21H4.875C4.37772 21 3.90081 20.8025 3.54917 20.4508C3.19754 20.0992 3 19.6223 3 19.125V14.625ZM4.875 14.25C4.77554 14.25 4.68016 14.2895 4.60984 14.3598C4.53951 14.4302 4.5 14.5255 4.5 14.625V19.125C4.5 19.332 4.668 19.5 4.875 19.5H9.375C9.47446 19.5 9.56984 19.4605 9.64017 19.3902C9.71049 19.3198 9.75 19.2245 9.75 19.125V14.625C9.75 14.5255 9.71049 14.4302 9.64017 14.3598C9.56984 14.2895 9.47446 14.25 9.375 14.25H4.875ZM12.75 13.5C12.75 13.3011 12.829 13.1103 12.9697 12.9697C13.1103 12.829 13.3011 12.75 13.5 12.75H14.25C14.4489 12.75 14.6397 12.829 14.7803 12.9697C14.921 13.1103 15 13.3011 15 13.5V14.25C15 14.4489 14.921 14.6397 14.7803 14.7803C14.6397 14.921 14.4489 15 14.25 15H13.5C13.3011 15 13.1103 14.921 12.9697 14.7803C12.829 14.6397 12.75 14.4489 12.75 14.25V13.5ZM18.75 13.5C18.75 13.3011 18.829 13.1103 18.9697 12.9697C19.1103 12.829 19.3011 12.75 19.5 12.75H20.25C20.4489 12.75 20.6397 12.829 20.7803 12.9697C20.921 13.1103 21 13.3011 21 13.5V14.25C21 14.4489 20.921 14.6397 20.7803 14.7803C20.6397 14.921 20.4489 15 20.25 15H19.5C19.3011 15 19.1103 14.921 18.9697 14.7803C18.829 14.6397 18.75 14.4489 18.75 14.25V13.5ZM6 16.5C6 16.3011 6.07902 16.1103 6.21967 15.9697C6.36032 15.829 6.55109 15.75 6.75 15.75H7.5C7.69891 15.75 7.88968 15.829 8.03033 15.9697C8.17098 16.1103 8.25 16.3011 8.25 16.5V17.25C8.25 17.4489 8.17098 17.6397 8.03033 17.7803C7.88968 17.921 7.69891 18 7.5 18H6.75C6.55109 18 6.36032 17.921 6.21967 17.7803C6.07902 17.6397 6 17.4489 6 17.25V16.5ZM15.75 16.5C15.75 16.3011 15.829 16.1103 15.9697 15.9697C16.1103 15.829 16.3011 15.75 16.5 15.75H17.25C17.4489 15.75 17.6397 15.829 17.7803 15.9697C17.921 16.1103 18 16.3011 18 16.5V17.25C18 17.4489 17.921 17.6397 17.7803 17.7803C17.6397 17.921 17.4489 18 17.25 18H16.5C16.3011 18 16.1103 17.921 15.9697 17.7803C15.829 17.6397 15.75 17.4489 15.75 17.25V16.5ZM12.75 19.5C12.75 19.3011 12.829 19.1103 12.9697 18.9697C13.1103 18.829 13.3011 18.75 13.5 18.75H14.25C14.4489 18.75 14.6397 18.829 14.7803 18.9697C14.921 19.1103 15 19.3011 15 19.5V20.25C15 20.4489 14.921 20.6397 14.7803 20.7803C14.6397 20.921 14.4489 21 14.25 21H13.5C13.3011 21 13.1103 20.921 12.9697 20.7803C12.829 20.6397 12.75 20.4489 12.75 20.25V19.5ZM18.75 19.5C18.75 19.3011 18.829 19.1103 18.9697 18.9697C19.1103 18.829 19.3011 18.75 19.5 18.75H20.25C20.4489 18.75 20.6397 18.829 20.7803 18.9697C20.921 19.1103 21 19.3011 21 19.5V20.25C21 20.4489 20.921 20.6397 20.7803 20.7803C20.6397 20.921 20.4489 21 20.25 21H19.5C19.3011 21 19.1103 20.921 18.9697 20.7803C18.829 20.6397 18.75 20.4489 18.75 20.25V19.5Z" fill="white"/>
</svg>
