<svg width="208" height="180" viewBox="0 0 208 180" fill="none" xmlns="http://www.w3.org/2000/svg">
<g clip-path="url(#clip0_709_2057)">
<path d="M35.1321 62.6613C34.6499 62.71 34.1646 62.7213 33.6807 62.6952C33.5982 62.6862 33.5154 62.71 33.4503 62.7615C33.3851 62.8129 33.3427 62.8879 33.3323 62.9704L32.4065 69.9248C32.3352 70.4297 32.1289 70.9058 31.8092 71.3026C31.5457 71.6184 31.3497 71.985 31.2336 72.3798C31.1175 72.7746 31.0837 73.189 31.1342 73.5975V85.4109C31.1342 85.4109 31.0745 86.986 32.283 86.986C33.7294 87.168 35.1929 87.168 36.6392 86.986C36.6392 86.986 37.6068 86.8026 37.6068 85.3491V73.7171C37.6807 73.3113 37.6655 72.8942 37.5623 72.4949C37.4592 72.0955 37.2706 71.7234 37.0096 71.4043C36.7006 71.006 36.5009 70.5338 36.4302 70.0345L35.4686 62.9345C35.4576 62.8547 35.4168 62.782 35.3543 62.7313C35.2918 62.6805 35.2123 62.6555 35.1321 62.6613Z" fill="white"/>
<path d="M34.4569 87.3214C33.7259 87.3215 32.9956 87.276 32.2702 87.1852C32.1081 87.1891 31.947 87.1593 31.797 87.0978C31.6469 87.0363 31.5112 86.9444 31.3983 86.8278C30.9065 86.3163 30.9339 85.4402 30.9353 85.4032L30.9352 73.6095C30.8839 73.1759 30.9213 72.7363 31.0453 72.3177C31.1693 71.8991 31.3773 71.5101 31.6564 71.1747C31.9523 70.8064 32.1434 70.3649 32.2093 69.8969L33.1349 62.9439C33.153 62.8102 33.2223 62.6887 33.3282 62.6053C33.4341 62.5219 33.5683 62.483 33.7023 62.497C34.1725 62.5218 34.6438 62.5104 35.1122 62.4629L35.1177 62.4624C35.2484 62.4529 35.3779 62.4936 35.4797 62.5763C35.5815 62.6589 35.648 62.7773 35.6658 62.9073L36.6275 70.0077C36.6936 70.4721 36.8795 70.9112 37.1668 71.2818C37.4435 71.6204 37.6438 72.0149 37.7542 72.4383C37.8645 72.8616 37.8822 73.3039 37.806 73.7347V85.3489C37.806 86.949 36.6876 87.1797 36.6763 87.1818C35.9401 87.2747 35.1989 87.3214 34.4569 87.3214ZM33.6536 62.8934C33.624 62.892 33.5949 62.9016 33.5721 62.9205C33.5492 62.9393 33.5341 62.9661 33.5298 62.9954L32.6038 69.9511C32.5277 70.4921 32.3066 71.0024 31.9641 71.4277C31.718 71.723 31.5349 72.0657 31.4261 72.4347C31.3174 72.8036 31.2853 73.191 31.3318 73.5728L31.3334 73.5973V85.4107C31.333 85.4254 31.3118 86.1642 31.6861 86.5522C31.7635 86.6311 31.8567 86.6928 31.9596 86.7332C32.0625 86.7736 32.1727 86.7918 32.2831 86.7866L32.3079 86.7881C33.7378 86.9678 35.1845 86.9678 36.6144 86.7881C36.6333 86.7834 37.4078 86.6066 37.4078 85.3489L37.411 73.6813C37.4799 73.3039 37.4659 72.916 37.37 72.5446C37.2741 72.1731 37.0985 71.8271 36.8556 71.5305C36.5239 71.1038 36.3093 70.5977 36.2331 70.0624L35.2713 62.9612C35.2671 62.932 35.2522 62.9055 35.2295 62.8868C35.2068 62.8681 35.1779 62.8586 35.1486 62.86C34.6573 62.9092 34.163 62.9207 33.67 62.8943C33.6646 62.8937 33.6591 62.8934 33.6536 62.8934Z" fill="#3F3D56"/>
<path d="M33.6707 73.8088H35.1381C35.7215 73.8088 36.2811 74.041 36.6937 74.4541C37.1063 74.8673 37.3381 75.4277 37.3381 76.012V81.5409C37.3381 82.1252 37.1063 82.6856 36.6937 83.0988C36.2811 83.5119 35.7215 83.7441 35.1381 83.7441H33.6707C33.0873 83.7441 32.5277 83.5119 32.1151 83.0988C31.7025 82.6856 31.4707 82.1252 31.4707 81.5409V76.012C31.4707 75.7227 31.5276 75.4362 31.6382 75.1689C31.7488 74.9016 31.9108 74.6587 32.1151 74.4541C32.3194 74.2496 32.5619 74.0873 32.8288 73.9765C33.0957 73.8658 33.3818 73.8088 33.6707 73.8088Z" fill="white"/>
<path d="M6.69449 175.356H11.4783L13.7542 156.877L6.69365 156.878L6.69449 175.356Z" fill="#9F616A"/>
<path d="M5.47427 173.792L14.8954 173.792H14.8958C16.4881 173.792 18.0151 174.425 19.141 175.553C20.267 176.68 20.8995 178.209 20.8996 179.804V179.999L5.47456 180L5.47427 173.792Z" fill="#2F2E41"/>
<path d="M3.68703 109.355C3.68703 109.355 1.61375 111.702 5.04678 120.851L4.44209 171.016L15.5675 170.798L18.013 146.328L22.4655 110.62L3.68703 109.355Z" fill="#2F2E41"/>
<path d="M26.2812 116.291L26.1594 116.272C11.9269 114.098 1.18681 112.014 1.07998 111.994L0.946564 111.968L4.6775 102.88C4.64802 101.93 3.84041 75.2645 5.38645 67.6031C6.88311 60.1864 13.9379 58.9709 14.7418 58.8566L15.549 56.1781L25.7473 61.4925L27.5259 67.6228L27.8872 84.4245L26.2812 116.291Z" fill="#3F3D56"/>
<path d="M32.4234 81.709C31.9642 81.7089 31.5099 81.804 31.0891 81.9883C30.6683 82.1725 30.2902 82.442 29.9785 82.7798H12.8369L6.55806 84.1182L7.58895 92.0809L29.9247 87.2704C30.2945 87.6886 30.763 88.0074 31.2875 88.1977C31.8119 88.3879 32.3756 88.4436 32.9271 88.3596C33.4786 88.2756 34.0003 88.0546 34.4445 87.7167C34.8888 87.3789 35.2414 86.935 35.4703 86.4256C35.6992 85.9161 35.797 85.3574 35.7548 84.8004C35.7126 84.2434 35.5318 83.7058 35.2288 83.2368C34.9258 82.7677 34.5103 82.3822 34.0203 82.1153C33.5302 81.8484 32.9813 81.7087 32.4234 81.709Z" fill="#9F616A"/>
<path d="M32.5721 53.168C34.7606 49.1588 33.2893 44.132 29.2858 41.9403C25.2824 39.7487 20.2628 41.2221 18.0743 45.2314C15.8858 49.2406 17.3571 54.2674 21.3606 56.459C25.3641 58.6507 30.3836 57.1772 32.5721 53.168Z" fill="#9F616A"/>
<path d="M17.5533 42.5857L17.1528 41.7784L19.168 40.7757C19.168 40.7757 21.3912 37.1532 25.414 38.1712C29.4368 39.1892 31.2468 39.7985 31.2468 39.7985L33.2569 40.8114L32.248 41.8166L34.0579 42.4259L32.8488 43.0275L34.2556 43.8373L33.4983 47.9886C33.4983 47.9886 32.2404 44.84 29.8221 46.0433C27.4039 47.2465 22.9805 45.4213 22.9805 45.4213L19.1376 52.8693C19.1376 52.8693 18.3447 50.2584 16.9312 50.9546C16.9312 50.9546 13.3201 45.1953 17.5533 42.5857Z" fill="#2F2E41"/>
<path d="M7.69869 93.5735L5.73839 87.7341L5.26422 68.2687L6.09946 65.5069C6.40009 64.5129 6.89803 63.5898 7.56341 62.7932C8.22879 61.9965 9.04793 61.3425 9.97175 60.8705C10.8956 60.3984 11.905 60.118 12.9396 60.046C13.9743 59.974 15.0128 60.112 15.9929 60.4516C16.973 60.7911 17.8746 61.3254 18.6436 62.0223C19.4126 62.7192 20.0332 63.5643 20.4682 64.5072C20.9032 65.45 21.1436 66.4711 21.1751 67.5092C21.2066 68.5474 21.0285 69.5812 20.6515 70.5487L16.1747 82.0372L16.4022 82.4795L26.1013 82.4009L29.5465 88.6112L7.69869 93.5735Z" fill="#3F3D56"/>
<path d="M104.739 91.1742C105.101 90.93 105.405 90.6094 105.63 90.2348C105.855 89.8602 105.995 89.4408 106.04 89.0062C106.086 88.5715 106.036 88.1321 105.893 87.719C105.751 87.3059 105.52 86.9291 105.216 86.6151L109.997 77.1316L104.521 77.7677L100.82 86.6759C100.328 87.2216 100.052 87.9294 100.045 88.6651C100.038 89.4009 100.302 90.1136 100.785 90.668C101.268 91.2225 101.937 91.5803 102.666 91.6736C103.395 91.7669 104.132 91.5892 104.739 91.1742Z" fill="#FFB7B7"/>
<path d="M143.081 158.351L138.772 158.35L136.722 141.707L143.081 141.708L143.081 158.351Z" fill="#FFB7B7"/>
<path d="M144.179 162.533L130.287 162.532V162.356C130.287 160.92 130.856 159.543 131.871 158.528C132.885 157.512 134.26 156.941 135.694 156.941H135.694L144.18 156.942L144.179 162.533Z" fill="#2F2E41"/>
<path d="M119.534 158.351L115.225 158.35L113.176 141.707L119.535 141.708L119.534 158.351Z" fill="#FFB7B7"/>
<path d="M119.579 162.533L105.686 162.532V162.356C105.686 160.92 106.256 159.543 107.27 158.528C108.284 157.512 109.659 156.941 111.093 156.941H111.094L119.579 156.942L119.579 162.533Z" fill="#2F2E41"/>
<path d="M119.181 88.0593L114.964 97.789L111.485 153.713L120.271 153.361L122.671 126.702L130.073 102.958L134.328 129.429L136.086 152.657L143.356 152.972L146.253 88.0593H119.181Z" fill="#2F2E41"/>
<path d="M140.262 40.0485L128.039 40.3547L120.863 44.0439L120.469 71.2625L115.993 90.0546C115.993 90.0546 143.957 91.982 147.823 89.1664L143.255 67.6978L149.382 44.4963L140.262 40.0485Z" fill="white"/>
<path d="M122.75 44.4951L121.612 43.7256C121.612 43.7256 116.898 45.1405 115.505 51.4354C115.505 51.4354 114.439 54.5936 113.971 56.7649C113.434 59.2554 101.585 82.1318 101.585 82.1318L108.68 84.1699L121.685 63.1065L122.75 44.4951Z" fill="white"/>
<path d="M149.191 94.6644C148.91 94.3298 148.706 93.9376 148.593 93.5154C148.48 93.0933 148.461 92.6515 148.537 92.2211C148.613 91.7907 148.782 91.3823 149.033 91.0245C149.283 90.6668 149.609 90.3684 149.988 90.1504L148.004 79.7144L153.092 81.838L154.196 91.4227C154.52 92.0833 154.59 92.8399 154.394 93.5489C154.197 94.258 153.748 94.8703 153.131 95.2699C152.514 95.6695 151.772 95.8286 151.046 95.717C150.32 95.6054 149.66 95.2309 149.191 94.6644Z" fill="#FFB7B7"/>
<path d="M147.543 44.8214L148.849 44.3959C148.849 44.3959 152.99 47.0577 152.596 53.4933C152.596 53.4933 152.752 56.8235 152.603 59.0398C152.433 61.582 154.712 86.8435 154.712 86.8435H147.332L144.169 63.9671L147.543 44.8214Z" fill="white"/>
<path d="M143.262 28.6291C143.262 30.3073 142.765 31.9479 141.834 33.3433C140.903 34.7387 139.58 35.8263 138.032 36.4686C136.483 37.1108 134.78 37.2789 133.136 36.9514C131.492 36.624 129.983 35.8159 128.798 34.6292C127.613 33.4425 126.806 31.9305 126.479 30.2845C126.152 28.6385 126.32 26.9324 126.961 25.3819C127.602 23.8314 128.688 22.5061 130.082 21.5738C131.475 20.6414 133.113 20.1437 134.789 20.1437C137.031 20.1381 139.183 21.0245 140.772 22.6079C142.361 24.1913 143.257 26.342 143.262 28.5868C143.262 28.6009 143.262 28.615 143.262 28.6291Z" fill="#FFB7B7"/>
<path d="M126.344 17.2317C127.337 15.0942 129.258 15.5168 130.937 16.2414C133.065 15.7688 135.088 14.354 137.38 15.1907C139.638 18.4793 147.219 17.5118 145.606 22.8656C145.604 24.1485 148.016 23.4018 147.595 25.5029C148.873 29.5465 142.982 37.2043 139.6 35.5917C140.436 34.0565 142.347 30.5696 139.449 30.2238C133.215 36.0328 138.806 19.162 130.973 24.0683C128.379 26.4453 124.828 19.6093 126.344 17.2317Z" fill="#2F2E41"/>
<path d="M150.674 95.5106C151.078 95.5918 151.494 95.5835 151.894 95.4861C152.294 95.3888 152.668 95.2048 152.989 94.9471C153.311 94.6894 153.572 94.3643 153.754 93.9946C153.936 93.625 154.035 93.2198 154.044 92.8077L175.32 72.7538L170.533 68.9297L151.089 89.8951C150.396 89.9259 149.739 90.2099 149.242 90.6934C148.745 91.1769 148.442 91.8262 148.391 92.5184C148.34 93.2106 148.544 93.8975 148.965 94.449C149.385 95.0004 149.994 95.3782 150.674 95.5106Z" fill="#9F616A"/>
<path d="M172.305 75.9953L168.166 71.1375C168.048 70.9993 167.961 70.8373 167.912 70.6625C167.862 70.4878 167.851 70.3043 167.878 70.1247C167.906 69.9452 167.972 69.7736 168.071 69.6218C168.171 69.4701 168.302 69.3416 168.456 69.2452L173.845 65.867C174.554 65.2675 175.472 64.9742 176.397 65.0515C177.323 65.1288 178.179 65.5703 178.78 66.2793C179.38 66.9883 179.676 67.9069 179.601 68.8335C179.526 69.7602 179.088 70.6194 178.381 71.2226L174.217 76.0058C174.097 76.1427 173.95 76.2523 173.785 76.327C173.619 76.4017 173.44 76.4399 173.258 76.4389C173.077 76.4379 172.898 76.3978 172.733 76.3212C172.569 76.2447 172.423 76.1335 172.305 75.9953Z" fill="#CBCBCB"/>
<path d="M161.174 174.95L155.973 174.95L153.498 154.857L161.175 154.857L161.174 174.95Z" fill="#9F616A"/>
<path d="M162.501 180L145.728 179.999V179.787C145.728 178.053 146.416 176.39 147.64 175.164C148.865 173.938 150.525 173.249 152.257 173.249H152.257L162.501 173.25L162.501 180Z" fill="#2F2E41"/>
<path d="M202.756 174.95L197.554 174.95L195.079 154.857L202.757 154.857L202.756 174.95Z" fill="#9F616A"/>
<path d="M204.082 180L187.309 179.999V179.787C187.31 178.053 187.997 176.39 189.222 175.164C190.446 173.938 192.106 173.249 193.838 173.249H193.838L204.083 173.25L204.082 180Z" fill="#2F2E41"/>
<path d="M188.764 86.6463L194.007 67.2459L187.205 63.4169H177.71L174.017 67.3735C174.017 67.3735 167.847 71.6725 169.34 76.4356L171.749 87.2845L168.065 104.515L149.5 130.297L145.106 155.622L162.405 160.164L181.111 123.277L190.181 164.12L207.053 163.271L201.239 113.748C201.239 113.748 199.582 98.6622 190.894 89.2426L188.764 86.6463Z" fill="#2F2E41"/>
<path d="M199.592 103.812C199.885 103.522 200.11 103.171 200.252 102.784C200.395 102.397 200.451 101.984 200.416 101.573C200.382 101.162 200.258 100.764 200.053 100.406C199.848 100.049 199.568 99.7402 199.231 99.5029L195.163 72.0166L189.324 73.8631L195.169 100.335C194.808 100.928 194.677 101.633 194.801 102.316C194.924 102.999 195.293 103.612 195.839 104.041C196.384 104.469 197.067 104.683 197.759 104.641C198.451 104.598 199.103 104.303 199.592 103.812Z" fill="#9F616A"/>
<path d="M196.168 76.3303L189.834 77.0618C189.654 77.0826 189.471 77.0643 189.298 77.0081C189.126 76.9518 188.967 76.859 188.834 76.7359C188.701 76.6129 188.595 76.4625 188.525 76.2949C188.455 76.1274 188.421 75.9466 188.427 75.765L188.632 69.4018C188.531 68.4778 188.8 67.5513 189.38 66.8255C189.96 66.0997 190.804 65.6339 191.727 65.5301C192.649 65.4264 193.575 65.6931 194.301 66.2719C195.028 66.8507 195.495 67.6944 195.601 68.6179L197.243 74.747C197.29 74.9226 197.299 75.1061 197.269 75.2853C197.238 75.4644 197.17 75.6349 197.068 75.7852C196.966 75.9354 196.833 76.0619 196.678 76.156C196.522 76.2501 196.349 76.3095 196.168 76.3303Z" fill="#CBCBCB"/>
<path d="M171.839 57.8999V49.7256C171.839 46.8206 172.992 44.0346 175.043 41.9804C177.094 39.9262 179.876 38.7722 182.777 38.7722C185.678 38.7722 188.46 39.9262 190.511 41.9804C192.562 44.0346 193.715 46.8206 193.715 49.7256V57.8999C193.714 58.2899 193.559 58.6639 193.284 58.9398C193.008 59.2156 192.635 59.3708 192.245 59.3712H173.308C172.919 59.3708 172.545 59.2156 172.27 58.9398C171.995 58.6639 171.84 58.2899 171.839 57.8999Z" fill="#2F2E41"/>
<path d="M184.376 58.1968C188.262 56.0694 189.69 51.1899 187.566 47.2982C185.441 43.4065 180.569 41.9763 176.683 44.1037C172.797 46.2311 171.369 51.1105 173.493 55.0022C175.617 58.8939 180.49 60.3242 184.376 58.1968Z" fill="#9F616A"/>
<path d="M169.252 50.3795C169.254 48.0823 170.167 45.8799 171.789 44.2555C173.411 42.6312 175.61 41.7174 177.904 41.7148H179.536C181.83 41.7174 184.029 42.6312 185.651 44.2555C187.274 45.8799 188.186 48.0823 188.188 50.3795V50.543H184.738L183.562 47.2433L183.326 50.543H181.543L180.95 48.8781L180.831 50.543H169.252V50.3795Z" fill="#2F2E41"/>
<path d="M179.74 60.2903C179.578 60.0707 179.481 59.8097 179.461 59.5374C179.441 59.2651 179.498 58.9926 179.625 58.7513C181.355 55.4561 183.777 49.3672 180.562 45.6122L180.331 45.3424H189.665V59.3758L181.186 60.874C181.1 60.8892 181.013 60.8969 180.926 60.897C180.694 60.897 180.466 60.842 180.26 60.7366C180.054 60.6311 179.876 60.4782 179.74 60.2903Z" fill="#2F2E41"/>
<path d="M93.9507 67.7631C93.8323 67.8849 93.7238 68.016 93.626 68.1549L78.4181 67.7823L76.6439 64.5356L71.4012 66.5766L73.9843 72.6298C74.193 73.1188 74.5544 73.5269 75.0144 73.7927C75.4743 74.0585 76.008 74.1677 76.5352 74.1039L93.7173 72.0252C94.1226 72.5391 94.6745 72.9172 95.2997 73.1093C95.9248 73.3013 96.5935 73.2982 97.2168 73.1004C97.8401 72.9026 98.3885 72.5194 98.7891 72.0019C99.1897 71.4843 99.4234 70.8569 99.4592 70.203C99.495 69.5492 99.3312 68.9 98.9895 68.3416C98.6479 67.7833 98.1446 67.3424 97.5466 67.0775C96.9486 66.8126 96.2842 66.7364 95.6419 66.8588C94.9996 66.9813 94.4097 67.2967 93.9507 67.7631Z" fill="#FFB7B7"/>
<path d="M44.375 160.255H49.3755L51.7543 140.94L44.3742 140.94L44.375 160.255Z" fill="#FFB7B7"/>
<path d="M43.0995 158.621L52.9473 158.62H52.9477C54.6121 158.62 56.2083 159.282 57.3852 160.461C58.5621 161.64 59.2233 163.238 59.2234 164.905V165.109L43.0998 165.11L43.0995 158.621Z" fill="#2F2E41"/>
<path d="M89.7812 160.144L94.3796 158.177L88.9904 139.478L82.2038 142.382L89.7812 160.144Z" fill="#FFB7B7"/>
<path d="M87.9667 159.142L97.0227 155.268L97.0231 155.268C98.5537 154.613 100.281 154.594 101.826 155.215C103.371 155.836 104.606 157.046 105.26 158.578L105.34 158.766L90.5124 165.11L87.9667 159.142Z" fill="#2F2E41"/>
<path d="M68.6808 71.9472L69.0423 77.8153L58.4728 78.9481L47.413 80.1333L50.6681 71.2229L68.6808 71.9472Z" fill="#FFB7B7"/>
<path d="M69.0521 74.0528C68.9322 74.0057 56.9939 69.3551 49.6608 73.1578L49.4805 73.2514L48.0176 66.0404L47.184 50.5372L52.6081 47.9705L54.1016 44.6204L64.2739 44.0176L66.3643 46.8885L73.4814 49.2243L69.2278 74.1224L69.0521 74.0528Z" fill="#E4E4E4"/>
<path d="M69.4259 60.059L70.6841 50.1585L73.5491 49.2853L73.5974 49.3031C73.6635 49.3274 75.2205 49.9242 75.6467 52.083C76.0558 54.155 79.1369 67.0491 79.168 67.1791L79.1988 67.3081L71.9596 70.2087L69.4259 60.059Z" fill="#E4E4E4"/>
<path d="M86.0568 156.749L95.6933 154.77L80.2913 112.209L75.02 97.6922C75.02 97.6922 71.6767 86.0527 70.1662 81.5483L69.2546 75.5045L47.6754 77.8965C47.6754 77.8965 41.6484 86.7605 43.4793 101.208L42.6512 155.512L52.2877 156.007L60.3594 101.239L74.5259 131.262C74.5259 131.262 78.991 144.075 82.1857 146.852L86.0568 156.749Z" fill="#2F2E41"/>
<path d="M56.3291 79.9121C56.1594 79.908 55.9897 79.9174 55.8215 79.9401L45.7543 68.5187L46.9254 65.0084L41.8664 62.5461L39.1902 68.5586C38.974 69.0444 38.921 69.5872 39.0391 70.1057C39.1572 70.6242 39.44 71.0903 39.8452 71.4341L53.0495 82.6386C52.9488 83.2856 53.0472 83.948 53.3316 84.5376C53.616 85.1272 54.0729 85.6162 54.6415 85.9394C55.2102 86.2627 55.8636 86.4049 56.515 86.3472C57.1663 86.2894 57.7846 86.0345 58.2878 85.6162C58.7909 85.198 59.1549 84.6362 59.3314 84.0057C59.5079 83.3752 59.4886 82.7058 59.276 82.0866C59.0634 81.4674 58.6675 80.9276 58.1411 80.5392C57.6147 80.1508 56.9827 79.932 56.3291 79.9121Z" fill="#FFB7B7"/>
<path d="M40.955 64.2383L44.8906 53.0118C45.3329 51.6884 45.8872 50.8844 46.538 50.6221C46.6662 50.5643 46.805 50.5338 46.9456 50.5325C47.0862 50.5312 47.2255 50.5591 47.3548 50.6145L49.1195 52.8473L50.7574 59.7378L46.5579 69.6302L40.955 64.2383Z" fill="#E4E4E4"/>
<path d="M67.0053 41.6944H49.7278C49.3724 41.694 49.0316 41.5524 48.7803 41.3008C48.529 41.0491 48.3877 40.7079 48.3873 40.352V32.894C48.3873 30.2435 49.4386 27.7016 51.3101 25.8275C53.1816 23.9533 55.7199 22.9004 58.3665 22.9004C61.0132 22.9004 63.5515 23.9533 65.4229 25.8275C67.2944 27.7016 68.3458 30.2435 68.3458 32.894V40.352C68.3454 40.7079 68.204 41.0491 67.9527 41.3008C67.7014 41.5524 67.3607 41.694 67.0053 41.6944Z" fill="#2F2E41"/>
<path d="M60.4172 41.5208C64.4579 41.5208 67.7336 38.2404 67.7336 34.1938C67.7336 30.1472 64.4579 26.8668 60.4172 26.8668C56.3764 26.8668 53.1007 30.1472 53.1007 34.1938C53.1007 38.2404 56.3764 41.5208 60.4172 41.5208Z" fill="#FFB7B7"/>
<path d="M70.7066 33.6398H60.1419L60.0335 32.1208L59.4918 33.6398H57.8651L57.6504 30.6292L56.5768 33.6398H53.4291V33.4906C53.4315 31.3947 54.2639 29.3853 55.7438 27.9033C57.2237 26.4212 59.2302 25.5876 61.3231 25.5852H62.8126C64.9055 25.5876 66.912 26.4212 68.3919 27.9033C69.8718 29.3853 70.7043 31.3947 70.7066 33.4906L70.7066 33.6398Z" fill="#2F2E41"/>
<path d="M60.0554 43.0865C59.9758 43.0865 59.8965 43.0794 59.8181 43.0656L52.0821 41.6987V28.8949H60.598L60.3872 29.1411C57.4538 32.5671 59.6637 38.1223 61.2421 41.1288C61.3585 41.349 61.4103 41.5976 61.3918 41.8461C61.3732 42.0945 61.285 42.3326 61.1372 42.533C61.0134 42.7044 60.8508 42.8439 60.6628 42.9401C60.4747 43.0364 60.2666 43.0865 60.0554 43.0865Z" fill="#2F2E41"/>
<path d="M152.724 73.8629C152.242 73.9115 151.756 73.9229 151.272 73.8968C151.19 73.8878 151.107 73.9115 151.042 73.963C150.977 74.0145 150.934 74.0895 150.924 74.1719L149.998 81.1264C149.927 81.6312 149.721 82.1073 149.401 82.5041C149.137 82.8199 148.941 83.1866 148.825 83.5813C148.709 83.9761 148.675 84.3906 148.726 84.799V96.6124C148.726 96.6124 148.666 98.1875 149.875 98.1875C151.321 98.3695 152.785 98.3695 154.231 98.1875C154.231 98.1875 155.199 98.0041 155.199 96.5506V84.9186C155.272 84.5128 155.257 84.0958 155.154 83.6964C155.051 83.297 154.862 82.9249 154.601 82.6058C154.292 82.2075 154.093 81.7354 154.022 81.2361L153.06 74.136C153.049 74.0562 153.008 73.9836 152.946 73.9328C152.883 73.8821 152.804 73.8571 152.724 73.8629Z" fill="white"/>
<path d="M152.049 98.523C151.318 98.523 150.587 98.4775 149.862 98.3868C149.7 98.3906 149.539 98.3608 149.389 98.2993C149.239 98.2378 149.103 98.1459 148.99 98.0294C148.498 97.5179 148.526 96.6418 148.527 96.6047L148.527 84.8111C148.475 84.3774 148.513 83.9379 148.637 83.5192C148.761 83.1006 148.969 82.7117 149.248 82.3762C149.544 82.008 149.735 81.5665 149.801 81.0984L150.727 74.1455C150.745 74.0117 150.814 73.8903 150.92 73.8069C151.026 73.7234 151.16 73.6846 151.294 73.6985C151.764 73.7233 152.235 73.7119 152.704 73.6644L152.709 73.664C152.84 73.6545 152.97 73.6952 153.071 73.7778C153.173 73.8605 153.24 73.9788 153.257 74.1089L154.219 81.2092C154.285 81.6736 154.471 82.1128 154.758 82.4833C155.035 82.8219 155.236 83.2164 155.346 83.6398C155.456 84.0632 155.474 84.5054 155.398 84.9363V96.5505C155.398 98.1506 154.279 98.3812 154.268 98.3834C153.532 98.4763 152.791 98.5229 152.049 98.523ZM151.245 74.0949C151.216 74.0935 151.187 74.1032 151.164 74.122C151.141 74.1409 151.126 74.1676 151.121 74.197L150.195 81.1527C150.119 81.6937 149.898 82.2039 149.556 82.6292C149.31 82.9245 149.127 83.2673 149.018 83.6362C148.909 84.0051 148.877 84.3925 148.923 84.7744L148.925 84.7989V96.6123C148.925 96.627 148.903 97.3657 149.278 97.7538C149.355 97.8327 149.448 97.8944 149.551 97.9347C149.654 97.9751 149.764 97.9933 149.875 97.9881L149.9 97.9897C151.329 98.1694 152.776 98.1694 154.206 97.9897C154.225 97.985 154.999 97.8081 154.999 96.5505L155.003 84.8828C155.072 84.5054 155.058 84.1175 154.962 83.7461C154.866 83.3747 154.69 83.0286 154.447 82.732C154.116 82.3054 153.901 81.7993 153.825 81.2639L152.863 74.1627C152.859 74.1336 152.844 74.1071 152.821 74.0884C152.798 74.0697 152.77 74.0601 152.74 74.0616C152.249 74.1108 151.755 74.1222 151.262 74.0958C151.256 74.0952 151.251 74.0949 151.245 74.0949Z" fill="#3F3D56"/>
<path d="M151.262 85.0103H152.73C153.313 85.0103 153.873 85.2424 154.285 85.6556C154.698 86.0687 154.93 86.6291 154.93 87.2134V92.7423C154.93 93.3266 154.698 93.887 154.285 94.3002C153.873 94.7134 153.313 94.9455 152.73 94.9455H151.262C150.679 94.9455 150.119 94.7134 149.707 94.3002C149.294 93.887 149.062 93.3266 149.062 92.7423V87.2134C149.062 86.6291 149.294 86.0687 149.707 85.6556C150.119 85.2424 150.679 85.0103 151.262 85.0103Z" fill="white"/>
<path d="M102.93 64.2842C102.448 64.3328 101.963 64.3441 101.479 64.318C101.396 64.309 101.314 64.3328 101.248 64.3843C101.183 64.4357 101.141 64.5107 101.13 64.5932L100.205 71.5476C100.133 72.0525 99.9269 72.5286 99.6072 72.9254C99.3437 73.2412 99.1478 73.6078 99.0317 74.0026C98.9156 74.3974 98.8818 74.8118 98.9323 75.2203V87.0337C98.9323 87.0337 98.8726 88.6088 100.081 88.6088C101.527 88.7908 102.991 88.7908 104.437 88.6088C104.437 88.6088 105.405 88.4254 105.405 86.9719V75.3399C105.479 74.9341 105.464 74.517 105.36 74.1177C105.257 73.7183 105.069 73.3462 104.808 73.0271C104.499 72.6288 104.299 72.1566 104.228 71.6573L103.267 64.5573C103.256 64.4775 103.215 64.4048 103.152 64.3541C103.09 64.3033 103.01 64.2783 102.93 64.2842Z" fill="white"/>
<path d="M102.255 88.9444C101.524 88.9444 100.794 88.8989 100.068 88.8082C99.9062 88.812 99.7451 88.7822 99.595 88.7207C99.445 88.6592 99.3093 88.5673 99.1964 88.4508C98.7046 87.9393 98.732 87.0632 98.7334 87.0261L98.7332 75.2324C98.6819 74.7988 98.7194 74.3593 98.8434 73.9406C98.9674 73.522 99.1753 73.1331 99.4545 72.7976C99.7504 72.4294 99.9414 71.9879 100.007 71.5198L100.933 64.5669C100.951 64.4331 101.02 64.3117 101.126 64.2282C101.232 64.1448 101.366 64.106 101.5 64.1199C101.971 64.1447 102.442 64.1333 102.91 64.0858L102.916 64.0853C103.047 64.0758 103.176 64.1166 103.278 64.1992C103.38 64.2818 103.446 64.4002 103.464 64.5302L104.426 71.6306C104.492 72.095 104.678 72.5342 104.965 72.9047C105.242 73.2433 105.442 73.6378 105.552 74.0612C105.663 74.4846 105.68 74.9268 105.604 75.3576V86.9718C105.604 88.572 104.486 88.8026 104.474 88.8048C103.738 88.8977 102.997 88.9443 102.255 88.9444ZM101.452 64.5163C101.422 64.5149 101.393 64.5246 101.37 64.5434C101.347 64.5623 101.332 64.589 101.328 64.6184L100.402 71.574C100.326 72.1151 100.105 72.6253 99.7622 73.0506C99.516 73.3459 99.3329 73.6886 99.2242 74.0576C99.1154 74.4265 99.0833 74.8139 99.1299 75.1957L99.1314 75.2203V87.0337C99.131 87.0484 99.1099 87.7871 99.4842 88.1752C99.5616 88.2541 99.6548 88.3157 99.7577 88.3561C99.8605 88.3965 99.9708 88.4147 100.081 88.4095L100.106 88.411C101.536 88.5908 102.983 88.5908 104.412 88.411C104.431 88.4064 105.206 88.2295 105.206 86.9718L105.209 75.3042C105.278 74.9268 105.264 74.5389 105.168 74.1675C105.072 73.7961 104.897 73.45 104.654 73.1534C104.322 72.7267 104.107 72.2206 104.031 71.6853L103.069 64.5841C103.065 64.555 103.05 64.5285 103.028 64.5097C103.005 64.491 102.976 64.4815 102.947 64.4829C102.455 64.5322 101.961 64.5436 101.468 64.5172C101.463 64.5166 101.457 64.5163 101.452 64.5163Z" fill="#3F3D56"/>
<path d="M101.469 75.4316H102.936C103.52 75.4316 104.079 75.6638 104.492 76.0769C104.904 76.4901 105.136 77.0505 105.136 77.6348V83.1637C105.136 83.748 104.904 84.3084 104.492 84.7216C104.079 85.1347 103.52 85.3669 102.936 85.3669H101.469C100.885 85.3669 100.326 85.1347 99.9132 84.7216C99.5006 84.3084 99.2688 83.748 99.2688 83.1637V77.6348C99.2688 77.0505 99.5006 76.4901 99.9132 76.0769C100.326 75.6638 100.885 75.4316 101.469 75.4316Z" fill="white"/>
<path d="M94.4906 54.1421C94.0084 54.1907 93.5231 54.202 93.0392 54.176C92.9567 54.1669 92.8739 54.1907 92.8088 54.2422C92.7436 54.2936 92.7012 54.3687 92.6908 54.4511L91.765 61.4056C91.6937 61.9104 91.4873 62.3865 91.1677 62.7833C90.9041 63.0991 90.7082 63.4657 90.5921 63.8605C90.476 64.2553 90.4422 64.6698 90.4927 65.0782V76.8916C90.4927 76.8916 90.433 78.4667 91.6415 78.4667C93.0879 78.6487 94.5514 78.6487 95.9977 78.4667C95.9977 78.4667 96.9653 78.2833 96.9653 76.8298V65.1978C97.0392 64.792 97.024 64.3749 96.9208 63.9756C96.8177 63.5762 96.6291 63.2041 96.368 62.885C96.0591 62.4867 95.8594 62.0146 95.7887 61.5152L94.827 54.4152C94.8161 54.3354 94.7753 54.2627 94.7128 54.212C94.6503 54.1613 94.5708 54.1362 94.4906 54.1421Z" fill="white"/>
<path d="M93.8154 78.8023C93.0844 78.8023 92.3541 78.7568 91.6287 78.6661C91.4666 78.6699 91.3055 78.6401 91.1555 78.5786C91.0054 78.5171 90.8697 78.4252 90.7568 78.3087C90.265 77.7972 90.2924 76.9211 90.2938 76.884L90.2937 65.0904C90.2423 64.6567 90.2798 64.2172 90.4038 63.7985C90.5278 63.3799 90.7358 62.991 91.0149 62.6555C91.3108 62.2873 91.5019 61.8458 91.5678 61.3777L92.4934 54.4248C92.5115 54.291 92.5808 54.1696 92.6867 54.0861C92.7926 54.0027 92.9268 53.9639 93.0608 53.9778C93.531 54.0026 94.0023 53.9912 94.4707 53.9437L94.4762 53.9432C94.6069 53.9338 94.7363 53.9745 94.8382 54.0571C94.94 54.1398 95.0065 54.2581 95.0243 54.3882L95.986 61.4885C96.0521 61.9529 96.238 62.3921 96.5253 62.7626C96.802 63.1012 97.0024 63.4957 97.1127 63.9191C97.223 64.3425 97.2406 64.7847 97.1644 65.2156V76.8298C97.1644 78.4299 96.0461 78.6605 96.0348 78.6627C95.2986 78.7556 94.5574 78.8022 93.8154 78.8023ZM93.0121 54.3742C92.9825 54.3728 92.9534 54.3825 92.9305 54.4013C92.9077 54.4202 92.8926 54.4469 92.8883 54.4763L91.9623 61.432C91.8862 61.973 91.6651 62.4832 91.3226 62.9085C91.0765 63.2038 90.8934 63.5465 90.7846 63.9155C90.6759 64.2844 90.6438 64.6718 90.6903 65.0536L90.6919 65.0782V76.8916C90.6915 76.9063 90.6703 77.645 91.0446 78.0331C91.122 78.112 91.2152 78.1736 91.3181 78.214C91.421 78.2544 91.5312 78.2726 91.6416 78.2674L91.6664 78.2689C93.0963 78.4487 94.543 78.4487 95.9729 78.2689C95.9918 78.2643 96.7663 78.0874 96.7663 76.8298L96.7695 65.1621C96.8384 64.7847 96.8244 64.3968 96.7285 64.0254C96.6326 63.654 96.457 63.3079 96.214 63.0113C95.8823 62.5847 95.6678 62.0786 95.5916 61.5432L94.6298 54.442C94.6256 54.4129 94.6106 54.3864 94.5879 54.3677C94.5652 54.349 94.5364 54.3394 94.507 54.3409C94.0158 54.3901 93.5215 54.4015 93.0285 54.3751C93.0231 54.3745 93.0176 54.3742 93.0121 54.3742Z" fill="#3F3D56"/>
<path d="M93.0292 65.2896H94.4965C95.08 65.2896 95.6396 65.5217 96.0522 65.9348C96.4647 66.348 96.6965 66.9084 96.6965 67.4927V73.0216C96.6965 73.6059 96.4647 74.1663 96.0522 74.5795C95.6396 74.9927 95.08 75.2248 94.4965 75.2248H93.0292C92.4457 75.2248 91.8861 74.9927 91.4736 74.5795C91.061 74.1663 90.8292 73.6059 90.8292 73.0216V67.4927C90.8292 66.9084 91.061 66.348 91.4736 65.9348C91.8861 65.5217 92.4457 65.2896 93.0292 65.2896Z" fill="white"/>
</g>
<defs>
<clipPath id="clip0_709_2057">
<rect width="206.107" height="180" fill="white" transform="translate(0.946564)"/>
</clipPath>
</defs>
</svg>
