<svg width="24" height="24" viewBox="0 0 24 24" fill="none" xmlns="http://www.w3.org/2000/svg">
<path d="M11.7 2.805C11.7946 2.7637 11.8968 2.74239 12 2.74239C12.1032 2.74239 12.2054 2.7637 12.3 2.805C15.9981 4.4214 19.5255 6.40289 22.83 8.72C22.9465 8.80167 23.0373 8.91476 23.0919 9.0461C23.1465 9.17743 23.1626 9.32158 23.1384 9.46174C23.1142 9.6019 23.0506 9.73229 22.9551 9.83768C22.8596 9.94308 22.7361 10.0191 22.599 10.057C19.1684 11.0045 15.8489 12.3159 12.697 13.969L12.694 13.971C12.58 14.031 12.467 14.09 12.354 14.151C12.2452 14.2091 12.1238 14.2395 12.0005 14.2395C11.8772 14.2395 11.7558 14.2091 11.647 14.151C10.2952 13.4296 8.91141 12.7696 7.5 12.173V11.949C7.5 11.818 7.567 11.701 7.672 11.638C9.18137 10.7233 10.7342 9.88232 12.325 9.118C12.5043 9.0318 12.642 8.87792 12.7078 8.69019C12.7736 8.50247 12.7622 8.29629 12.676 8.117C12.5898 7.93771 12.4359 7.80001 12.2482 7.73419C12.0605 7.66836 11.8543 7.6798 11.675 7.766C10.0408 8.55128 8.44558 9.41529 6.895 10.355C6.6744 10.4888 6.48409 10.6671 6.3362 10.8786C6.18831 11.09 6.08607 11.3299 6.036 11.583C4.51721 10.9986 2.97069 10.489 1.402 10.056C1.2649 10.0181 1.14138 9.94208 1.04587 9.83668C0.950361 9.73128 0.886789 9.6009 0.862574 9.46074C0.838358 9.32059 0.854496 9.17643 0.909106 9.0451C0.963716 8.91376 1.05455 8.80067 1.171 8.719C4.47519 6.40231 8.00233 4.42116 11.7 2.805Z" fill="white"/>
<path d="M13.06 15.473C15.5163 14.1607 18.0811 13.0627 20.726 12.191C20.86 13.605 20.946 15.034 20.981 16.475C20.9849 16.6261 20.943 16.7748 20.8609 16.9016C20.7789 17.0285 20.6604 17.1276 20.521 17.186C17.6863 18.3699 14.9721 19.824 12.416 21.528C12.2928 21.6101 12.1481 21.6539 12 21.6539C11.8519 21.6539 11.7072 21.6101 11.584 21.528C9.02823 19.824 6.31438 18.37 3.48 17.186C3.3406 17.1278 3.222 17.0289 3.13975 16.9023C3.05749 16.7756 3.01541 16.627 3.019 16.476C3.054 15.034 3.14 13.606 3.274 12.19C4.195 12.494 5.104 12.824 6 13.18V14.45C5.78393 14.5745 5.60231 14.7509 5.47156 14.9632C5.34081 15.1755 5.26506 15.4171 5.25116 15.6661C5.23727 15.9151 5.28566 16.1636 5.39196 16.3892C5.49827 16.6147 5.65913 16.8102 5.86 16.958C5.77 17.338 5.638 17.711 5.463 18.068C5.915 18.281 6.364 18.502 6.809 18.728C7.05983 18.2178 7.24498 17.6778 7.36 17.121C7.61288 17.0086 7.82973 16.8283 7.98654 16.6003C8.14336 16.3723 8.23403 16.1053 8.24852 15.8289C8.26301 15.5525 8.20076 15.2775 8.06865 15.0344C7.93655 14.7912 7.73973 14.5893 7.5 14.451V13.806C8.6681 14.3163 9.81566 14.8724 10.94 15.473C11.2662 15.6472 11.6302 15.7383 12 15.7383C12.3698 15.7383 12.7338 15.6472 13.06 15.473Z" fill="white"/>
<path d="M4.462 19.462C4.882 19.043 5.215 18.572 5.462 18.067C5.915 18.281 6.364 18.502 6.809 18.729C6.4818 19.3936 6.04731 19.9997 5.52299 20.523C5.38082 20.6555 5.19277 20.7276 4.99847 20.7242C4.80417 20.7207 4.61879 20.642 4.48137 20.5046C4.34396 20.3672 4.26525 20.1818 4.26182 19.9875C4.25839 19.7932 4.33052 19.6052 4.463 19.463L4.462 19.462Z" fill="white"/>
</svg>
