<svg width="24" height="24" viewBox="0 0 24 24" fill="none" xmlns="http://www.w3.org/2000/svg">
<path d="M16.4215 11.3287L16.4214 11.3286L8.92142 3.82858L8.92151 3.82849L8.91634 3.82368C8.73626 3.65587 8.49806 3.56451 8.25195 3.56886C8.00583 3.5732 7.77101 3.6729 7.59696 3.84696C7.4229 4.02101 7.3232 4.25583 7.31886 4.50195C7.31451 4.74806 7.40587 4.98626 7.57368 5.16634L7.57359 5.16643L7.57858 5.17142L14.4072 12L7.57858 18.8286L7.57849 18.8285L7.57368 18.8337C7.40587 19.0137 7.31451 19.2519 7.31886 19.498C7.3232 19.7442 7.4229 19.979 7.59696 20.153C7.77101 20.3271 8.00583 20.4268 8.25195 20.4311C8.49806 20.4355 8.73625 20.3441 8.91634 20.1763L8.91643 20.1764L8.92142 20.1714L16.4214 12.6714L16.4215 12.6713C16.5994 12.4932 16.6993 12.2517 16.6993 12C16.6993 11.7482 16.5994 11.5068 16.4215 11.3287Z" fill="white" stroke="white" stroke-width="0.4"/>
</svg>
