<svg width="180" height="180" viewBox="0 0 180 180" fill="none" xmlns="http://www.w3.org/2000/svg">
<g clip-path="url(#clip0_843_1021)">
<path d="M118.729 47.6887H89.1851C88.5383 47.6907 87.8996 47.5444 87.3175 47.261C86.7355 46.9775 86.2255 46.5644 85.8263 46.0531C85.4198 45.5369 85.1359 44.9344 84.9961 44.2913C84.8564 43.6483 84.8645 42.9816 85.0199 42.3422C87.7428 30.8821 87.7427 18.9389 85.0197 7.4788C84.8644 6.83939 84.8564 6.17281 84.9961 5.5298C85.1359 4.88679 85.4198 4.28429 85.8262 3.76812C86.2254 3.25676 86.7354 2.84363 87.3175 2.56019C87.8995 2.27676 88.5383 2.13047 89.1851 2.13247H118.729C119.749 2.13541 120.735 2.50209 121.511 3.16718C122.287 3.83227 122.803 4.7526 122.967 5.76425C124.912 18.4537 124.912 31.3675 122.967 44.0569C122.803 45.0686 122.287 45.9889 121.511 46.654C120.735 47.3191 119.749 47.6858 118.729 47.6887Z" fill="#E6E6E6"/>
<path d="M89.1851 4.36622C88.8744 4.36517 88.5677 4.43533 88.2881 4.57134C88.0086 4.70736 87.7635 4.90566 87.5717 5.15115C87.3742 5.40268 87.2364 5.69616 87.1687 6.00926C87.1011 6.32237 87.1054 6.64686 87.1813 6.95804C89.9857 18.7606 89.9858 31.0607 87.1815 42.8632C87.1055 43.1743 87.1012 43.4988 87.1688 43.8118C87.2364 44.1249 87.3741 44.4183 87.5716 44.6698C87.7634 44.9153 88.0086 45.1138 88.2881 45.2499C88.5677 45.3859 88.8744 45.4561 89.1851 45.455H118.729C119.219 45.4552 119.693 45.2807 120.067 44.9625C120.44 44.6443 120.69 44.2032 120.77 43.7176C122.68 31.2531 122.68 18.5682 120.77 6.10367C120.69 5.61811 120.44 5.17696 120.067 4.85878C119.693 4.5406 119.219 4.36605 118.729 4.36622L89.1851 4.36622Z" fill="white"/>
<path d="M112.282 15.1069H96.7784C96.1891 15.1062 95.6241 14.8707 95.2073 14.4519C94.7906 14.0332 94.5562 13.4654 94.5555 12.8732V12.0004C94.5562 11.4082 94.7906 10.8404 95.2073 10.4217C95.6241 10.0029 96.1891 9.76737 96.7784 9.76672H112.282C112.871 9.76737 113.436 10.0029 113.853 10.4217C114.27 10.8404 114.504 11.4082 114.505 12.0004V12.8732C114.504 13.4654 114.27 14.0332 113.853 14.4519C113.436 14.8707 112.871 15.1062 112.282 15.1069Z" fill="#E6E6E6"/>
<path d="M112.282 26.1361H96.7784C96.1891 26.1355 95.6241 25.9 95.2073 25.4812C94.7906 25.0625 94.5562 24.4947 94.5555 23.9025V23.0296C94.5562 22.4374 94.7906 21.8697 95.2073 21.4509C95.6241 21.0322 96.1891 20.7967 96.7784 20.796H112.282C112.871 20.7967 113.436 21.0322 113.853 21.4509C114.27 21.8697 114.504 22.4374 114.505 23.0296V23.9025C114.504 24.4947 114.27 25.0625 113.853 25.4812C113.436 25.9 112.871 26.1355 112.282 26.1361Z" fill="#E6E6E6"/>
<path d="M112.282 37.1653H96.7784C96.1891 37.1647 95.6241 36.9291 95.2073 36.5104C94.7906 36.0916 94.5562 35.5239 94.5555 34.9317V34.0588C94.5562 33.4666 94.7906 32.8989 95.2073 32.4801C95.6241 32.0614 96.1891 31.8258 96.7784 31.8252H112.282C112.871 31.8258 113.436 32.0614 113.853 32.4801C114.27 32.8989 114.504 33.4666 114.505 34.0588V34.9317C114.504 35.5239 114.27 36.0916 113.853 36.5104C113.436 36.9291 112.871 37.1647 112.282 37.1653Z" fill="#E6E6E6"/>
<path d="M174.304 75.9824H144.76C144.113 75.9844 143.474 75.8381 142.892 75.5547C142.31 75.2712 141.8 74.8581 141.401 74.3468C140.994 73.8306 140.71 73.2281 140.571 72.585C140.431 71.942 140.439 71.2753 140.594 70.6359C143.317 59.1758 143.317 47.2326 140.594 35.7725C140.439 35.1331 140.431 34.4665 140.571 33.8235C140.71 33.1805 140.994 32.578 141.401 32.0618C141.8 31.5505 142.31 31.1373 142.892 30.8539C143.474 30.5705 144.113 30.4242 144.76 30.4262H174.304C175.324 30.4291 176.31 30.7958 177.086 31.4609C177.862 32.126 178.378 33.0463 178.542 34.058C180.486 46.7474 180.486 59.6612 178.542 72.3506C178.378 73.3623 177.862 74.2826 177.086 74.9477C176.31 75.6128 175.324 75.9795 174.304 75.9824Z" fill="#E6E6E6"/>
<path d="M144.76 32.6598C144.449 32.6588 144.142 32.7289 143.863 32.8649C143.583 33.0009 143.338 33.1992 143.146 33.4447C142.949 33.6963 142.811 33.9897 142.743 34.3028C142.676 34.6159 142.68 34.9404 142.756 35.2516C145.56 47.0541 145.56 59.3543 142.756 71.1568C142.68 71.4679 142.676 71.7923 142.743 72.1054C142.811 72.4184 142.949 72.7119 143.146 72.9633C143.338 73.2089 143.583 73.4074 143.863 73.5435C144.142 73.6795 144.449 73.7497 144.76 73.7486H174.304C174.793 73.7488 175.267 73.5742 175.641 73.2561C176.015 72.9379 176.264 72.4967 176.345 72.0112C178.254 59.5466 178.254 46.8618 176.345 34.3973C176.264 33.9117 176.015 33.4705 175.641 33.1524C175.267 32.8342 174.793 32.6596 174.304 32.6598L144.76 32.6598Z" fill="white"/>
<path d="M115.395 108.185H85.8506C85.1758 108.187 84.5094 108.035 83.9022 107.739C83.2949 107.443 82.7628 107.012 82.3463 106.479C81.9225 105.94 81.6264 105.312 81.4806 104.642C81.3349 103.971 81.3433 103.276 81.5053 102.609C84.2214 91.1775 84.2213 79.2641 81.5051 67.8325C81.3432 67.1658 81.3349 66.4707 81.4806 65.8002C81.6264 65.1297 81.9224 64.5014 82.3462 63.9632C82.7627 63.4297 83.2949 62.9987 83.9021 62.7029C84.5094 62.4072 85.1758 62.2546 85.8506 62.2566H115.395C116.459 62.2598 117.487 62.6425 118.297 63.3365C119.107 64.0305 119.645 64.9907 119.816 66.0462C121.763 78.7544 121.763 91.6873 119.816 104.396C119.645 105.451 119.107 106.411 118.297 107.105C117.487 107.799 116.459 108.182 115.395 108.185Z" fill="#F2F2F2"/>
<path d="M167.856 48.9849H152.353C151.764 48.9842 151.199 48.7487 150.782 48.33C150.365 47.9112 150.131 47.3435 150.13 46.7513V45.8784C150.131 45.2862 150.365 44.7185 150.782 44.2997C151.199 43.881 151.764 43.6454 152.353 43.6448H167.856C168.446 43.6454 169.011 43.881 169.428 44.2997C169.844 44.7185 170.079 45.2862 170.079 45.8784V46.7513C170.079 47.3435 169.844 47.9112 169.428 48.33C169.011 48.7487 168.446 48.9842 167.856 48.9849Z" fill="#E6E6E6"/>
<path d="M167.856 60.0141H152.353C151.764 60.0134 151.199 59.7779 150.782 59.3591C150.365 58.9404 150.131 58.3726 150.13 57.7804V56.9076C150.131 56.3154 150.365 55.7476 150.782 55.3289C151.199 54.9101 151.764 54.6746 152.353 54.674H167.856C168.446 54.6746 169.011 54.9101 169.428 55.3289C169.844 55.7476 170.079 56.3154 170.079 56.9076V57.7804C170.079 58.3726 169.844 58.9404 169.428 59.3591C169.011 59.7779 168.446 60.0134 167.856 60.0141Z" fill="#E6E6E6"/>
<path d="M100.705 93.6298C105.411 93.6298 109.227 89.7962 109.227 85.0672C109.227 80.3382 105.411 76.5046 100.705 76.5046C95.9989 76.5046 92.1838 80.3382 92.1838 85.0672C92.1838 89.7962 95.9989 93.6298 100.705 93.6298Z" fill="white"/>
<path d="M104.781 83.9504H101.817V80.9721C101.817 80.6759 101.7 80.3918 101.491 80.1823C101.283 79.9729 101 79.8552 100.705 79.8552C100.41 79.8552 100.128 79.9729 99.9193 80.1823C99.7108 80.3918 99.5937 80.6759 99.5937 80.9721V83.9504H96.6297C96.335 83.9504 96.0522 84.068 95.8438 84.2775C95.6353 84.4869 95.5182 84.771 95.5182 85.0672C95.5182 85.3634 95.6353 85.6475 95.8438 85.857C96.0522 86.0664 96.335 86.1841 96.6297 86.1841H99.5937V89.1624C99.5937 89.4586 99.7108 89.7426 99.9193 89.9521C100.128 90.1615 100.41 90.2792 100.705 90.2792C101 90.2792 101.283 90.1615 101.491 89.9521C101.7 89.7426 101.817 89.4586 101.817 89.1624V86.1841H104.781C105.075 86.1841 105.358 86.0664 105.567 85.857C105.775 85.6475 105.892 85.3634 105.892 85.0672C105.892 84.771 105.775 84.4869 105.567 84.2775C105.358 84.068 105.075 83.9504 104.781 83.9504Z" fill="#E6E6E6"/>
<path d="M111.45 6.32885H95.8887C95.4467 6.32835 95.0229 6.15169 94.7104 5.83762C94.3978 5.52355 94.222 5.09773 94.2215 4.65357V1.67528C94.222 1.23112 94.3978 0.8053 94.7104 0.491232C95.0229 0.177164 95.4467 0.000500559 95.8887 0H111.45C111.892 0.000500559 112.315 0.177164 112.628 0.491232C112.941 0.8053 113.116 1.23112 113.117 1.67528V4.65357C113.116 5.09773 112.941 5.52355 112.628 5.83762C112.315 6.15169 111.892 6.32835 111.45 6.32885Z" fill="#CCCCCC"/>
<path d="M167.765 34.9949H152.204C151.762 34.9944 151.339 34.8177 151.026 34.5036C150.713 34.1896 150.538 33.7637 150.537 33.3196V30.3413C150.538 29.8971 150.713 29.4713 151.026 29.1573C151.339 28.8432 151.762 28.6665 152.204 28.666H167.765C168.207 28.6665 168.631 28.8432 168.944 29.1573C169.256 29.4713 169.432 29.8971 169.432 30.3413V33.3196C169.432 33.7637 169.256 34.1896 168.944 34.5036C168.631 34.8177 168.207 34.9944 167.765 34.9949Z" fill="#CCCCCC"/>
<path d="M32.8246 175.369H37.3669L38.787 157.765H32.8238L32.8246 175.369Z" fill="#FFB8B8"/>
<path d="M31.6661 173.879L40.6113 173.879H40.6117C41.3603 173.879 42.1016 174.027 42.7932 174.315C43.4849 174.602 44.1133 175.024 44.6427 175.556C45.172 176.088 45.5919 176.72 45.8784 177.415C46.1649 178.11 46.3123 178.855 46.3123 179.607V179.793L31.6664 179.793L31.6661 173.879Z" fill="#2F2E41"/>
<path d="M8.37174 175.369H12.914L15.0751 157.765H8.371L8.37174 175.369Z" fill="#FFB8B8"/>
<path d="M7.21329 173.879L16.1585 173.879H16.1589C16.9075 173.879 17.6488 174.027 18.3404 174.315C19.0321 174.602 19.6605 175.024 20.1898 175.556C20.7192 176.088 21.1391 176.72 21.4256 177.415C21.7121 178.11 21.8595 178.855 21.8595 179.607V179.793L7.21357 179.793L7.21329 173.879Z" fill="#2F2E41"/>
<path d="M9.17767 169.808C8.71433 169.808 8.26797 169.632 7.92725 169.317C7.74435 169.149 7.59704 168.946 7.49418 168.72C7.39131 168.494 7.335 168.249 7.32863 168L5.50702 102.398L31.3719 108.896L39.3522 132.952C40.3813 136.047 40.8268 139.307 40.6658 142.566L39.6748 165.885C39.6522 166.362 39.4474 166.813 39.1028 167.143C38.7582 167.473 38.3004 167.657 37.8244 167.656H33.4863C33.0385 167.654 32.6064 167.49 32.2692 167.194C31.932 166.898 31.7124 166.49 31.6505 166.044L28.5499 140.304C28.2789 138.296 27.5799 136.37 26.5004 134.659L20.3985 124.951C20.3577 124.886 20.298 124.835 20.2275 124.806C20.1569 124.777 20.0791 124.77 20.0046 124.786C19.9301 124.803 19.8625 124.843 19.8112 124.899C19.7598 124.956 19.7271 125.027 19.7177 125.103L14.9291 167.949C14.8777 168.384 14.6754 168.786 14.3577 169.086C14.0401 169.385 13.6275 169.562 13.1926 169.586L9.28313 169.804C9.24796 169.806 9.21286 169.808 9.17767 169.808Z" fill="#2F2E41"/>
<path d="M27.0677 59.9257C32.0933 59.9257 36.1674 55.832 36.1674 50.782C36.1674 45.7321 32.0933 41.6383 27.0677 41.6383C22.042 41.6383 17.9679 45.7321 17.9679 50.782C17.9679 55.832 22.042 59.9257 27.0677 59.9257Z" fill="#FFB8B8"/>
<path d="M31.2479 111.564C31.0913 111.563 30.9354 111.543 30.7837 111.504L5.12123 104.893C4.66241 104.775 4.26605 104.484 4.01363 104.082C3.76122 103.679 3.67193 103.194 3.76414 102.728L9.65769 70.8261C10.0249 68.9821 10.832 67.2552 12.0097 65.7936C13.1874 64.332 14.7005 63.1795 16.4192 62.435C18.0938 61.6903 19.9251 61.3712 21.7514 61.5059C23.5778 61.6407 25.3431 62.2251 26.8915 63.2076C27.2508 63.4328 27.6127 63.6784 27.9669 63.9376C29.3929 64.9946 30.5558 66.3692 31.3644 67.9536C32.173 69.538 32.6053 71.2891 32.6273 73.0695L33.096 109.676C33.0991 109.922 33.0537 110.166 32.9623 110.395C32.8709 110.623 32.7354 110.831 32.5636 111.007C32.3918 111.182 32.187 111.322 31.9612 111.417C31.7354 111.513 31.493 111.563 31.2479 111.564Z" fill="white"/>
<path d="M7.76166 111.939C7.45553 111.486 7.25191 110.972 7.16512 110.431C7.07833 109.891 7.11051 109.338 7.25936 108.812C7.40821 108.285 7.67013 107.798 8.02667 107.384C8.3832 106.97 8.82568 106.64 9.32294 106.417L8.18151 93.163L14.2303 96.4571L14.3868 108.538C14.7048 109.403 14.6963 110.354 14.3628 111.212C14.0293 112.071 13.394 112.776 12.5774 113.195C11.7608 113.615 10.8195 113.718 9.93191 113.487C9.04434 113.255 8.27214 112.704 7.76166 111.939Z" fill="#FFB8B8"/>
<path d="M9.92265 104.664C9.75197 104.664 9.58199 104.642 9.41665 104.6C9.06102 104.508 8.73652 104.322 8.47747 104.061C8.21843 103.8 8.03447 103.473 7.94507 103.116L4.9725 91.2457C3.93366 87.1 4.42888 82.7163 6.36602 78.9101L12.5936 66.6687C12.9873 65.203 13.9385 63.9516 15.2421 63.1842C16.5456 62.4169 18.0972 62.195 19.562 62.5667C20.2921 62.7519 20.9784 63.081 21.5809 63.5347C22.1835 63.9885 22.6905 64.558 23.0724 65.2101C23.4622 65.8716 23.7171 66.6043 23.8223 67.3658C23.9275 68.1272 23.8809 68.902 23.6852 69.6452L14.8202 89.5646L14.9254 101.491C14.9282 101.912 14.8023 102.323 14.5648 102.67C14.3273 103.016 13.9896 103.281 13.5974 103.429L10.6307 104.536C10.4042 104.62 10.1644 104.664 9.92265 104.664Z" fill="white"/>
<path d="M52.3578 107.064C51.8167 107.001 51.2957 106.821 50.8315 106.535C50.3674 106.248 49.9713 105.863 49.6713 105.406C49.3713 104.949 49.1747 104.432 49.0952 103.891C49.0157 103.349 49.0553 102.797 49.2112 102.272L38.4692 94.4957L44.8998 92.038L54.1146 99.7997C54.974 100.121 55.6861 100.748 56.116 101.562C56.5459 102.376 56.6637 103.32 56.4471 104.216C56.2306 105.111 55.6947 105.896 54.941 106.42C54.1873 106.945 53.2682 107.174 52.3578 107.064Z" fill="#FFB8B8"/>
<path d="M46.7344 101.385C46.4177 101.385 46.1054 101.31 45.822 101.168L34.9297 95.6892C31.1252 93.7758 28.1417 90.5391 26.534 86.5811L21.3629 73.8526C20.5143 72.5965 20.1909 71.0557 20.4624 69.5623C20.7339 68.0689 21.5786 66.7425 22.8144 65.8691C23.4318 65.4329 24.1295 65.1245 24.8668 64.9619C25.604 64.7994 26.3661 64.7859 27.1086 64.9222C27.8598 65.058 28.5767 65.3421 29.2179 65.7583C29.859 66.1745 30.4115 66.7144 30.8435 67.3466L40.0856 87.0925L49.1501 94.7923C49.4693 95.0647 49.6975 95.4289 49.804 95.8359C49.9105 96.2428 49.89 96.6728 49.7454 97.0677L48.6451 100.049C48.5014 100.44 48.2419 100.777 47.9015 101.016C47.5594 101.256 47.1519 101.385 46.7344 101.385Z" fill="white"/>
<path d="M25.1568 60.0656C25.6403 60.2782 26.6304 56.4071 26.1869 55.6328C25.5273 54.4814 25.5663 54.4896 25.1284 53.7278C24.6906 52.966 24.5926 51.9233 25.1596 51.253C25.7266 50.5827 27.0388 50.6716 27.2975 51.512C27.1311 49.9158 28.7024 48.6326 30.2589 48.272C31.8154 47.9114 33.4572 48.1353 35.0223 47.8144C36.8386 47.442 38.7284 45.9121 38.0038 43.9051C37.8794 43.571 37.6932 43.2635 37.455 42.999C36.6177 42.053 35.4465 41.6491 34.3014 41.2585C31.919 40.446 29.4716 39.6233 26.9573 39.713C24.8857 39.8219 22.8906 40.5352 21.2162 41.7656C19.5418 42.9961 18.2606 44.6903 17.5295 46.641C17.3563 47.129 17.222 47.6301 17.1281 48.1396C16.2651 52.8021 18.9597 57.4012 23.3362 59.1768L25.1568 60.0656Z" fill="#2F2E41"/>
<path opacity="0.2" d="M14.4124 101.762L14.6187 89.5026L21.0813 76.4462L15.8943 89.8484L14.4124 101.762Z" fill="black"/>
<path d="M73.0165 132.527L45.7337 121.137C45.1357 120.889 44.6017 120.508 44.1725 120.022C43.7432 119.536 43.43 118.957 43.2566 118.331C43.0783 117.698 43.0462 117.032 43.1627 116.384C43.2792 115.737 43.5412 115.124 43.9288 114.594C50.8193 105.06 55.3796 94.0312 57.241 82.3985C57.3417 81.7481 57.5888 81.1295 57.9634 80.5896C58.338 80.0496 58.8302 79.6027 59.4026 79.2827C59.9665 78.9644 60.5953 78.7795 61.241 78.7422C61.8868 78.7048 62.5324 78.816 63.129 79.0672L90.4118 90.4575C91.3526 90.8535 92.1231 91.5722 92.5858 92.4856C93.0486 93.399 93.1737 94.4478 92.9388 95.4452C89.889 107.913 84.958 119.839 78.3171 130.807C77.7794 131.678 76.9515 132.329 75.9808 132.644C75.0101 132.959 73.9596 132.918 73.0165 132.527Z" fill="#E6E6E6"/>
<path d="M62.2761 81.13C61.9896 81.0092 61.6795 80.9557 61.3694 80.9736C61.0593 80.9914 60.7573 81.0801 60.4865 81.2328C60.208 81.3889 59.9687 81.6068 59.7867 81.8699C59.6046 82.1329 59.4847 82.4343 59.436 82.7509C57.5191 94.7313 52.8224 106.09 45.7261 115.908C45.5371 116.166 45.4092 116.464 45.3521 116.779C45.295 117.094 45.3102 117.418 45.3966 117.727C45.4799 118.027 45.6305 118.305 45.8367 118.539C46.0429 118.772 46.2994 118.955 46.5867 119.074L73.8695 130.464C74.3218 130.653 74.8262 130.675 75.2928 130.525C75.7595 130.375 76.1581 130.064 76.4177 129.647C82.9408 118.872 87.7844 107.158 90.7802 94.9116C90.8914 94.4322 90.8297 93.9287 90.6061 93.4908C90.3824 93.0529 90.0113 92.7089 89.5589 92.5202L62.2761 81.13Z" fill="white"/>
<path d="M76.803 106.485L62.4861 100.508C61.9421 100.28 61.5103 99.8451 61.2853 99.2977C61.0604 98.7503 61.0607 98.1357 61.2862 97.5885L61.6195 96.7825C61.8462 96.2359 62.2795 95.8019 62.8242 95.5759C63.369 95.3499 63.9807 95.3502 64.5252 95.5768L78.8421 101.554C79.3861 101.782 79.8179 102.217 80.0429 102.764C80.2678 103.312 80.2675 103.927 80.0419 104.474L79.7087 105.28C79.4819 105.826 79.0487 106.26 78.5039 106.486C77.9592 106.712 77.3475 106.712 76.803 106.485Z" fill="white"/>
<path d="M72.5916 116.67L58.2747 110.693C57.7307 110.465 57.2988 110.03 57.0739 109.483C56.8489 108.935 56.8493 108.321 57.0748 107.774L57.4081 106.968C57.6348 106.421 58.0681 105.987 58.6128 105.761C59.1575 105.535 59.7693 105.535 60.3138 105.762L74.6307 111.739C75.1747 111.967 75.6065 112.402 75.8314 112.95C76.0564 113.497 76.0561 114.112 75.8305 114.659L75.4972 115.465C75.2705 116.011 74.8373 116.445 74.2925 116.671C73.7478 116.897 73.1361 116.897 72.5916 116.67Z" fill="white"/>
<path d="M82.5398 92.1711C82.3255 92.171 82.1132 92.1292 81.9147 92.0481L67.4883 86.1873C67.0787 86.0204 66.7517 85.697 66.5791 85.2881C66.4065 84.8793 66.4023 84.4183 66.5675 84.0063L67.6785 81.2451C67.8443 80.8332 68.1661 80.5044 68.5731 80.3309C68.9802 80.1574 69.4392 80.1535 69.8491 80.32L84.2755 86.1808C84.6851 86.3477 85.0121 86.6711 85.1847 87.08C85.3573 87.4888 85.3615 87.9498 85.1963 88.3618L84.0853 91.123C83.9605 91.4322 83.7468 91.6971 83.4715 91.8838C83.1963 92.0705 82.8719 92.1705 82.5398 92.1711Z" fill="#CCCCCC"/>
<path d="M52.2401 180H0.370497C0.272235 180 0.178003 179.961 0.108521 179.891C0.0390398 179.821 0 179.726 0 179.628C0 179.529 0.0390398 179.434 0.108521 179.364C0.178003 179.295 0.272235 179.255 0.370497 179.255H52.2401C52.3384 179.255 52.4326 179.295 52.5021 179.364C52.5716 179.434 52.6106 179.529 52.6106 179.628C52.6106 179.726 52.5716 179.821 52.5021 179.891C52.4326 179.961 52.3384 180 52.2401 180Z" fill="#CCCCCC"/>
</g>
<defs>
<clipPath id="clip0_843_1021">
<rect width="180" height="180" fill="white"/>
</clipPath>
</defs>
</svg>
