<svg width="24" height="24" viewBox="0 0 24 24" fill="none" xmlns="http://www.w3.org/2000/svg">
<path d="M11.3993 4.64925L11.3993 4.64929L7.6493 8.39929L7.64926 8.39925L7.64685 8.40183C7.49671 8.56296 7.41497 8.77608 7.41885 8.99629C7.42274 9.21649 7.51194 9.4266 7.66768 9.58233C7.82341 9.73807 8.03352 9.82727 8.25373 9.83116C8.47393 9.83504 8.68705 9.7533 8.84818 9.60316L8.84823 9.60321L8.85072 9.60071L12 6.45142L15.1493 9.60071L15.1493 9.60075L15.1518 9.60316C15.313 9.7533 15.5261 9.83504 15.7463 9.83116C15.9665 9.82727 16.1766 9.73807 16.3323 9.58233C16.4881 9.4266 16.5773 9.21649 16.5812 8.99629C16.5851 8.77608 16.5033 8.56296 16.3532 8.40183L16.3532 8.40179L16.3507 8.39929L12.6007 4.64929L12.6007 4.64925C12.4413 4.49007 12.2253 4.40066 12 4.40066C11.7748 4.40066 11.5587 4.49007 11.3993 4.64925ZM7.64934 14.3992L7.64926 14.3993C7.49008 14.5587 7.40067 14.7747 7.40067 15C7.40067 15.2253 7.49008 15.4413 7.64926 15.6007L7.6493 15.6007L11.3993 19.3507L11.3993 19.3508C11.5587 19.5099 11.7748 19.5993 12 19.5993C12.2253 19.5993 12.4413 19.5099 12.6007 19.3508L12.6007 19.3507L16.3495 15.6019C16.4324 15.5243 16.4989 15.4309 16.5451 15.3272C16.5916 15.223 16.6166 15.1104 16.6186 14.9963C16.6206 14.8822 16.5996 14.7688 16.5569 14.663C16.5141 14.5571 16.4505 14.461 16.3698 14.3803C16.289 14.2995 16.1929 14.2359 16.0871 14.1932C15.9812 14.1504 15.8679 14.1294 15.7537 14.1314C15.6396 14.1334 15.527 14.1584 15.4228 14.2049C15.3191 14.2511 15.2257 14.3176 15.1481 14.4005L12 17.5486L8.85072 14.3993L8.85068 14.3992C8.6913 14.2401 8.47526 14.1507 8.25001 14.1507C8.02476 14.1507 7.80872 14.2401 7.64934 14.3992Z" fill="white" stroke="white" stroke-width="0.2"/>
</svg>
