<svg width="280" height="281" viewBox="0 0 280 281" fill="none" xmlns="http://www.w3.org/2000/svg">
<path d="M107.352 133.948H70.112C70.112 133.948 53.984 97.884 58.072 89.652C62.16 81.42 103.544 83.212 108.808 86.404C114.072 89.596 107.352 133.948 107.352 133.948Z" fill="#F2EBEB"/>
<path d="M107.352 133.948C107.352 133.948 147.896 140.948 146.104 148.956C144.256 157.02 108.64 193.98 108.64 193.98L104.664 182.22L117.376 153.268C117.376 153.268 86.968 151.42 81.872 151.14C76.776 150.86 69.832 133.892 69.832 133.892L107.352 133.948Z" fill="#000001"/>
<path d="M77.504 231.276C77.504 231.276 66.36 221.588 66.136 219.796C65.912 218.004 69.552 183.116 69.776 178.356C70 173.596 66.416 151.532 66.192 147.332C65.968 143.132 69.776 134.004 69.776 134.004H91.056C91.056 134.004 92.904 178.076 93.352 184.18C93.8 190.284 77.504 231.276 77.504 231.276Z" fill="#000001"/>
<path d="M104.608 182.276C104.608 182.276 100.576 185.916 100.688 187.596C100.8 189.276 100.576 209.548 101.92 210.164C103.264 210.78 102.088 205.684 103.208 201.484C104.328 197.284 108.584 193.98 108.584 193.98L104.608 182.276Z" fill="#000001"/>
<path d="M66.192 219.796C66.192 219.796 64.904 229.596 64.848 229.82C64.232 231.668 62.776 233.628 62.776 234.636C62.776 235.812 67.48 241.356 68.432 241.86C69.384 242.364 74.872 243.428 74.872 242.364C74.872 241.3 71.176 240.796 70.784 238.892C70.392 236.988 75.04 229.036 75.04 229.036L66.192 219.796Z" fill="#000001"/>
<path d="M108.808 86.46C108.808 86.46 123.48 92.676 130.256 88.7C137.032 84.724 142.352 60.588 142.352 60.588L154.112 63.108C154.112 63.108 151.76 89.204 139.608 103.204C127.456 117.204 106.288 113.396 106.288 113.396L108.808 86.46Z" fill="#F2EBEB"/>
<path d="M91.952 138.82C92.288 142.572 92.568 146.38 92.736 150.132C92.96 153.94 93.072 157.692 93.24 161.444C93.408 165.196 93.464 169.004 93.464 172.812C93.464 176.62 93.464 180.372 93.408 184.18C93.072 180.428 92.792 176.62 92.624 172.868C92.4 169.06 92.288 165.308 92.12 161.556C91.952 157.804 91.896 153.996 91.896 150.188C91.896 146.38 91.896 142.628 91.952 138.82Z" fill="#000001"/>
<path d="M88.312 60.42C88.312 60.42 92.904 69.716 92.568 69.94C92.232 70.164 91 70.052 91 70.052C91 70.052 93.576 76.66 93.408 86.18C93.408 86.18 83.328 86.908 78.064 83.492C78.064 83.492 74.2 59.412 76.104 58.292C78.008 57.172 88.312 60.42 88.312 60.42Z" fill="#9B4949"/>
<path d="M78.064 64.732C78.064 64.732 80.08 69.38 79.688 70.332C79.296 71.284 76.048 69.324 76.048 69.324C76.048 69.324 73.36 58.404 74.256 56.892C75.152 55.38 99.064 59.58 97.328 60.812C95.592 62.044 88.256 60.476 88.256 60.476L81.032 61.204C81.088 61.204 80.024 63.892 78.064 64.732Z" fill="#000001"/>
<path d="M76.272 69.38C76.272 69.38 72.464 68.428 72.968 65.068C73.472 61.708 77.504 67.42 77.504 67.42L76.272 69.38Z" fill="#9B4949"/>
<path d="M83.664 66.244C83.888 66.132 84.168 66.02 84.448 66.02C84.728 65.964 85.008 65.964 85.288 66.02C85.848 66.076 86.352 66.412 86.744 66.86C86.464 66.804 86.184 66.748 85.96 66.748C85.736 66.748 85.456 66.636 85.232 66.636C84.728 66.468 84.224 66.412 83.664 66.244Z" fill="#000001"/>
<path d="M83.944 71.172C84.224 71.396 84.56 71.508 84.896 71.62C85.008 71.676 85.176 71.732 85.288 71.788C85.512 71.9 85.736 72.012 85.904 72.124C85.792 72.348 85.568 72.572 85.288 72.628C85.008 72.74 84.728 72.684 84.448 72.572C84.168 72.46 83.944 72.236 83.832 71.9C83.72 71.732 83.776 71.452 83.944 71.172Z" fill="#000001"/>
<path d="M81.928 64.9C81.816 64.452 81.872 63.948 82.096 63.556C82.376 63.108 82.768 62.772 83.272 62.66C83.72 62.548 84.224 62.548 84.672 62.772C84.896 62.884 85.064 62.996 85.232 63.108C85.4 63.22 85.568 63.388 85.736 63.556C85.512 63.612 85.288 63.612 85.064 63.612C84.84 63.612 84.672 63.612 84.504 63.612C84.168 63.612 83.832 63.668 83.552 63.724C83.272 63.78 82.992 63.948 82.768 64.116C82.432 64.34 82.152 64.62 81.928 64.9Z" fill="#000001"/>
<path d="M142.352 60.588C142.352 60.588 141.68 58.236 140.672 54.54C139.664 50.844 139.216 48.268 140.112 48.492C141.008 48.716 143.472 51.292 143.864 54.036C145.656 50.676 147.056 47.036 147.84 43.284C148.96 37.628 150.36 42.22 150.36 42.22C150.36 42.22 150.416 38.188 151.592 37.404C152.768 36.62 153.496 41.884 153.496 41.884C153.496 41.884 156.464 41.884 157.024 46.028C157.584 50.172 154.672 60.084 154.056 63.108C153.44 66.132 142.352 60.588 142.352 60.588Z" fill="#9B4949"/>
<path d="M145.208 53.98C145.768 54.148 146.272 54.428 146.72 54.764C147.168 55.1 147.616 55.492 148.008 55.94C148.4 56.388 148.68 56.892 148.904 57.452C149.128 58.012 149.24 58.572 149.184 59.132C149.016 58.628 148.736 58.124 148.512 57.62C148.232 57.172 147.952 56.724 147.616 56.276C146.888 55.436 146.048 54.708 145.208 53.98Z" fill="#000001"/>
<path d="M66.416 85.732C66.416 85.732 51.744 91.948 44.968 88.028C38.192 84.108 32.872 59.916 32.872 59.916L21.112 62.436C21.112 62.436 23.464 88.532 35.616 102.532C47.768 116.532 68.936 112.724 68.936 112.724L66.416 85.732Z" fill="#F2EBEB"/>
<path d="M32.816 59.916C32.816 59.916 33.488 57.564 34.496 53.868C35.504 50.172 35.952 47.596 35.056 47.82C34.16 48.044 31.696 50.62 31.304 53.364C29.512 50.004 28.168 46.364 27.272 42.612C26.152 36.956 24.752 41.548 24.752 41.548C24.752 41.548 24.696 37.516 23.52 36.732C22.344 35.948 21.616 41.212 21.616 41.212C21.616 41.212 18.648 41.212 18.088 45.356C17.528 49.5 20.44 59.412 21.056 62.436C21.672 65.46 32.816 59.916 32.816 59.916Z" fill="#9B4949"/>
<path d="M29.96 53.308C29.12 54.036 28.28 54.82 27.608 55.66C27.272 56.108 26.936 56.556 26.656 57.004C26.376 57.508 26.152 58.012 25.984 58.516C25.984 57.956 26.096 57.396 26.264 56.836C26.488 56.276 26.768 55.772 27.16 55.324C27.552 54.876 27.944 54.484 28.448 54.148C28.896 53.756 29.4 53.476 29.96 53.308Z" fill="#000001"/>
<path d="M88.144 57.9C88.144 57.9 77.56 63.276 73.36 61.708C73.36 61.708 71.568 42.892 73.36 43.004C75.096 43.116 88.144 57.9 88.144 57.9Z" fill="#8367C7"/>
<path d="M72.52 41.772C72.52 41.772 75.544 42.052 74.032 43.844C72.52 45.636 70.112 42.78 72.52 41.772Z" fill="#000001"/>
<path d="M86.856 56.612C85.288 56.78 83.72 56.892 82.152 56.78C80.528 56.78 78.96 56.5 77.504 55.884C77.112 55.716 76.776 55.436 76.496 55.156C76.216 54.82 76.048 54.372 76.048 53.868C76.048 53.42 76.216 52.972 76.552 52.636C76.832 52.3 77.168 52.076 77.616 51.908C79.128 51.348 80.696 51.18 82.32 51.404C81.536 51.46 80.752 51.516 80.024 51.628C79.296 51.74 78.512 51.964 77.84 52.3C77.504 52.468 77.224 52.692 77 52.972C76.776 53.252 76.664 53.532 76.664 53.868C76.608 54.54 77.168 55.044 77.84 55.38C79.296 55.94 80.808 56.276 82.32 56.332C83.104 56.388 83.888 56.444 84.616 56.5C85.344 56.556 86.072 56.556 86.856 56.612Z" fill="#F2EBEB"/>
<path d="M77.84 46.812C77.224 47.316 76.608 47.82 76.048 48.324C75.488 48.828 74.984 49.444 74.48 50.06C74.032 50.676 73.64 51.348 73.36 52.076C73.08 52.804 72.912 53.532 72.744 54.316C72.632 53.532 72.688 52.692 72.912 51.908C73.136 51.124 73.528 50.396 73.976 49.724C74.48 49.052 75.04 48.492 75.712 47.988C76.384 47.484 77.112 47.092 77.84 46.812Z" fill="#F2EBEB"/>
<path d="M84.672 46.868C84.616 46.252 84.672 45.692 84.784 45.132C84.896 44.572 85.008 44.012 85.232 43.452C85.4 42.892 85.624 42.388 85.848 41.884C86.128 41.38 86.464 40.876 86.8 40.428C86.856 41.044 86.8 41.604 86.688 42.164C86.576 42.724 86.464 43.284 86.296 43.844C86.128 44.404 85.904 44.908 85.624 45.412C85.344 45.916 85.008 46.42 84.672 46.868Z" fill="#8367C7"/>
<path d="M86.8 48.268C87.192 47.876 87.64 47.54 88.088 47.26C88.536 46.98 89.04 46.756 89.544 46.532C90.048 46.308 90.552 46.14 91.056 46.028C91.616 45.916 92.12 45.804 92.68 45.86C92.288 46.252 91.84 46.588 91.392 46.868C90.944 47.148 90.44 47.372 89.936 47.596C89.432 47.82 88.928 47.932 88.424 48.1C87.92 48.212 87.36 48.268 86.8 48.268Z" fill="#8367C7"/>
<path d="M219.8 149.068C219.8 149.068 210.28 228.14 210.392 228.98C210.504 229.82 220.36 228.98 220.36 228.98L237.72 144.364L219.8 149.068Z" fill="#000001"/>
<path d="M220.36 228.98C220.36 228.98 220.528 239.452 219.8 241.748C219.072 244.044 213.976 249.644 212.52 249.98C211.064 250.316 200.312 250.932 201.208 249.98C202.104 249.028 205.128 247.404 205.128 247.404L208.6 241.748L210.392 228.98H220.36Z" fill="#000001"/>
<path d="M205.128 247.404C205.128 247.404 212.24 244.828 213.136 244.1C214.032 243.372 220.36 228.98 220.36 228.98L210.784 226.516L207.928 240.796L205.128 247.404Z" fill="#EA8383"/>
<path d="M238.84 143.972C238.84 143.972 245.84 156.068 245.84 159.988C245.84 163.908 216.384 184.348 216.272 186.644C216.16 188.94 248.752 200.084 248.752 202.38C248.752 204.676 243.768 212.964 243.768 212.964C243.768 212.964 201.376 203.444 195.832 195.044C190.288 186.644 217.56 149.628 217.56 149.628L238.84 143.972Z" fill="#8367C7"/>
<path d="M216.328 96.708C216.328 96.708 201.544 64.34 200.312 61.316C199.08 58.292 201.432 51.628 200.144 51.292C198.856 50.956 197.512 54.708 197.064 56.332C197.064 56.332 193.76 53.588 190.68 52.524C187.6 51.46 187.208 52.636 188.776 53.756C190.344 54.876 191.296 55.66 191.296 55.66C191.296 55.66 186.76 53.308 185.696 53.868C184.632 54.428 185.64 55.436 187.04 56.22C188.216 57.004 189.28 57.9 190.232 58.908C190.232 58.908 185.864 56.948 185.64 57.62C185.416 58.292 185.92 58.74 188.664 60.308C191.296 61.82 191.352 62.324 191.52 63.388C191.688 64.452 194.656 67.084 194.656 67.084L207.536 104.156L216.328 96.708Z" fill="#9B4949"/>
<path d="M216.328 96.708L207.48 104.268L213.08 120.396L220.696 104.828L216.328 96.708Z" fill="#000001"/>
<path d="M231.56 98.724C231.56 98.724 246.344 66.356 247.576 63.332C248.808 60.308 246.456 53.644 247.744 53.308C249.032 52.972 250.376 56.724 250.824 58.348C250.824 58.348 254.128 55.604 257.208 54.54C260.288 53.476 260.68 54.652 259.112 55.772C257.544 56.892 256.592 57.676 256.592 57.676C256.592 57.676 261.128 55.324 262.192 55.884C263.256 56.444 262.248 57.452 260.848 58.292C259.672 59.076 258.608 59.972 257.656 60.98C257.656 60.98 262.024 59.02 262.248 59.692C262.472 60.364 261.968 60.812 259.224 62.38C256.48 63.948 256.536 64.396 256.368 65.46C256.2 66.524 253.232 69.156 253.232 69.156L240.352 106.228L231.56 98.724Z" fill="#EA8383"/>
<path d="M225.792 103.708L231.56 98.724L240.408 106.228L235.704 119.78L242.368 147.276C242.368 147.276 211.456 156.684 210.56 154.108L216.272 135.964C216.272 135.964 211.96 127.956 210.448 125.66C210.448 125.66 211.736 118.94 218.68 105.22L225.792 103.708Z" fill="#000001"/>
<path d="M218.736 95.364C216.384 96.036 208.096 98.276 208.096 98.276C208.096 98.276 208.04 89.988 211.512 88.756C214.984 87.524 218.736 95.364 218.736 95.364Z" fill="#000001"/>
<path d="M221.368 112.108C221.088 112.556 220.472 112.668 220.024 112.332C219.8 112.164 219.632 111.884 219.632 111.604C219.24 107.684 218.568 96.148 216.216 96.26C211.792 96.54 208.432 91.388 208.432 91.388C208.432 91.388 204.568 90.828 204.344 90.044C204.12 89.26 206.752 87.02 208.264 84.724C209.776 82.428 210.56 79.516 212.968 79.572C215.376 79.628 213.248 83.212 215.32 85.62C216.608 87.076 218.624 86.628 218.624 86.628C218.624 86.628 218.568 83.828 221.704 85.228C224.84 86.628 220.976 90.548 221.368 91.164C222.264 92.508 225.12 102.532 226.016 104.324C226.24 104.716 222.88 109.924 221.368 112.108Z" fill="#EA8383"/>
<path d="M214.368 86.292C213.808 86.292 213.304 86.348 212.744 86.46C212.52 86.516 212.24 86.628 212.016 86.796C211.792 86.908 211.568 87.076 211.288 87.244C211.344 86.964 211.512 86.684 211.736 86.46C211.96 86.236 212.24 86.068 212.576 85.956C212.856 85.844 213.192 85.844 213.528 85.9C213.864 85.956 214.144 86.068 214.368 86.292Z" fill="#000001"/>
<path d="M214.648 87.748C214.536 87.692 214.424 87.692 214.368 87.692C214.312 87.692 214.256 87.692 214.256 87.636C214.2 87.58 214.2 87.58 214.144 87.524C214.088 87.412 214.088 87.356 214.088 87.244C214.256 87.132 214.424 87.132 214.592 87.244C214.648 87.3 214.704 87.356 214.704 87.468C214.76 87.58 214.704 87.692 214.648 87.748Z" fill="#000001"/>
<path d="M213.64 88.252C213.472 88.252 213.304 88.196 213.192 88.028C213.136 87.916 213.136 87.86 213.08 87.58C213.192 87.524 213.304 87.468 213.416 87.524C213.528 87.524 213.584 87.58 213.64 87.692C213.808 87.86 213.808 88.084 213.64 88.252Z" fill="#000001"/>
<path d="M213.976 92.508C213.584 92.172 213.024 92.228 212.632 92.564C212.016 93.18 213.64 94.692 214.76 94.132C215.88 93.572 213.976 92.508 213.976 92.508Z" fill="#9B4949"/>
<path d="M213.864 91.388C214.312 91.948 214.312 92.676 213.976 93.292C213.808 93.572 213.528 93.796 213.192 93.964C213.024 94.02 212.912 94.076 212.744 94.132C212.576 94.188 212.408 94.188 212.24 94.188C212.352 94.076 212.464 93.964 212.576 93.908C212.688 93.852 212.8 93.74 212.912 93.628C213.136 93.46 213.304 93.236 213.416 93.012C213.528 92.788 213.64 92.564 213.696 92.284C213.864 92.004 213.864 91.724 213.864 91.388Z" fill="#000001"/>
<path d="M213.64 84.556C213.416 84.444 213.192 84.332 213.024 84.276C212.632 84.108 212.24 84.052 211.792 84.052C211.568 84.052 211.344 84.052 211.064 84.052C211.456 83.66 211.96 83.492 212.52 83.604C213.024 83.66 213.472 84.052 213.64 84.556Z" fill="#000001"/>
<path d="M211.008 79.74C211.008 79.74 214.592 87.356 220.416 88.924C220.416 88.924 216.384 92.732 217.952 95.252C219.52 97.772 215.096 99.844 215.88 101.972L239.4 93.18C239.4 93.18 235.424 87.076 230.776 88.252C226.128 89.428 230.664 82.54 224.224 79.124C217.784 75.708 211.008 79.74 211.008 79.74Z" fill="#8367C7"/>
<path d="M241.024 92.62C240.576 92.172 240.072 91.724 239.568 91.332C239.064 90.94 238.56 90.548 238 90.212C236.936 89.54 235.76 89.036 234.528 88.7C233.296 88.42 232.064 88.42 230.832 88.756C230.216 88.924 229.656 89.204 229.096 89.484C228.536 89.82 228.032 90.156 227.528 90.548C228.368 89.54 229.488 88.756 230.72 88.308C231.952 87.86 233.352 87.804 234.64 88.084C235.928 88.42 237.16 88.98 238.224 89.764C239.288 90.604 240.24 91.556 241.024 92.62Z" fill="#8367C7"/>
<path d="M211.008 79.74C211.4 80.412 211.792 81.084 212.24 81.756C212.688 82.428 213.136 83.044 213.64 83.66C214.592 84.892 215.712 85.956 217 86.908C218.232 87.86 219.688 88.42 221.2 88.644C222.768 88.812 224.336 88.532 225.792 87.916C225.12 88.308 224.336 88.644 223.608 88.812C222.824 89.036 221.984 89.092 221.2 89.036C220.36 88.98 219.576 88.812 218.848 88.476C218.12 88.196 217.392 87.748 216.72 87.3C215.432 86.348 214.312 85.172 213.36 83.884C212.352 82.596 211.568 81.196 211.008 79.74Z" fill="#000001"/>
<path d="M218.4 101.076L224.504 100.012L224.112 98.948L218.4 101.076Z" fill="#000001"/>
<path d="M248.416 203.948C248.416 203.948 254.52 205.124 254.52 206.02C254.52 206.916 247.408 231.108 246.624 230.492C245.84 229.876 247.296 221.252 247.296 221.252L246.4 214.42L243.824 212.964L248.416 203.948Z" fill="#000001"/>
<path d="M247.632 205.46C247.632 205.46 250.488 211.732 250.488 212.404C250.488 213.076 247.016 223.268 247.016 223.268L246.064 215.316L243.824 212.964L247.632 205.46Z" fill="#EA8383"/>
<path d="M212.352 79.068C212.352 79.068 223.216 84.444 227.528 82.932C227.528 82.932 229.32 64.116 227.528 64.228C225.736 64.34 212.352 79.068 212.352 79.068Z" fill="#000001"/>
<path d="M228.368 62.94C228.368 62.94 225.288 63.22 226.8 65.012C228.312 66.804 230.832 63.948 228.368 62.94Z" fill="#8367C7"/>
<path d="M213.64 77.78C214.424 77.78 215.264 77.724 216.048 77.724C216.832 77.724 217.616 77.668 218.4 77.556C219.184 77.444 219.968 77.388 220.752 77.22C221.536 77.108 222.264 76.884 222.992 76.604C223.664 76.324 224.28 75.82 224.224 75.092C224.224 74.756 224.112 74.42 223.888 74.14C223.664 73.86 223.328 73.636 222.992 73.524C222.264 73.188 221.536 72.964 220.752 72.908C219.968 72.796 219.184 72.684 218.4 72.684C220.024 72.46 221.648 72.628 223.16 73.188C223.552 73.356 223.944 73.58 224.224 73.916C224.56 74.252 224.728 74.7 224.728 75.148C224.728 75.26 224.728 75.372 224.728 75.484C224.728 75.596 224.672 75.708 224.616 75.82C224.504 76.044 224.392 76.212 224.28 76.436C224 76.772 223.608 76.996 223.216 77.164C221.704 77.724 220.08 78.06 218.456 78.06C216.832 78.06 215.264 77.948 213.64 77.78Z" fill="#F2EBEB"/>
<path d="M222.936 68.036C223.72 68.316 224.392 68.708 225.064 69.212C225.736 69.716 226.352 70.276 226.8 70.948C227.304 71.62 227.696 72.348 227.92 73.132C228.144 73.916 228.2 74.756 228.144 75.54C228.032 74.756 227.808 73.972 227.528 73.244C227.248 72.516 226.856 71.844 226.408 71.228C225.904 70.612 225.4 70.052 224.784 69.548C224.224 68.988 223.552 68.484 222.936 68.036Z" fill="#F2EBEB"/>
<path d="M161 235.7C161 235.7 168.336 142.852 165.872 141.396C163.408 139.94 118.048 137.196 113.848 141.396C109.592 145.652 117.04 235.7 117.04 235.7H161Z" fill="#8367C7"/>
<path d="M137.704 127.9C137.704 127.9 136.64 131.596 137.704 133.052C138.544 134.116 138.88 135.46 138.656 136.748C138.488 137.588 130.368 140.052 131.32 140.388C132.272 140.724 151.2 140.332 150.248 139.604C149.296 138.876 141.568 137.588 141.624 136.412C141.68 135.236 143.136 134.564 143.248 133.22C143.304 131.652 143.192 130.084 143.024 128.516L137.704 127.9Z" fill="#000001"/>
<path d="M168.784 125.884C168.616 126.668 171.08 126.724 169.232 127.116C167.384 127.508 167.552 127.788 166.936 128.292C166.32 128.796 164.024 128.628 162.68 128.516C161.336 128.404 161.336 128.796 160.72 129.02C160.104 129.244 159.208 129.02 157.36 128.908C155.512 128.796 154.896 129.58 153.72 129.692C152.768 129.748 151.816 129.58 150.92 129.188C150.248 128.908 147.896 129.58 146.832 129.692C145.768 129.804 145.432 129.356 144.704 129.244C143.976 129.132 142.8 129.412 141.568 129.748C140.728 129.972 139.888 129.804 139.216 129.3C138.768 129.076 136.08 129.356 134.792 129.636C133.504 129.916 133.112 129.524 132.328 129.244C131.544 128.964 130.368 129.748 129.304 129.468C128.184 129.132 126.952 129.076 125.776 129.356C124.152 129.692 123.984 129.356 123.704 128.964C123.424 128.572 121.856 128.74 120.288 129.02C118.72 129.3 118.832 128.348 116.816 128.516C114.8 128.684 114.688 128.292 114.128 127.956C113.568 127.62 111.104 127.844 111.384 127.396C111.664 126.948 108.808 126.892 109.312 126.388C109.816 125.884 112.504 125.884 114.016 125.156C115.528 124.428 116.816 125.1 118.496 124.652C119.728 124.372 120.96 124.26 122.248 124.204L148.904 124.596C156.072 124.708 159.768 124.764 161.28 124.372C161.28 124.372 163.8 123.924 163.8 124.428C163.8 124.932 163.632 125.1 164.92 125.044C166.208 124.988 168.952 125.1 168.784 125.884Z" fill="#F2EBEB"/>
<path d="M117.936 125.492C117.936 125.492 124.208 126.388 138.264 127.004C152.32 127.62 162.4 125.492 162.4 125.492C162.456 124.316 161.672 117.876 157.024 112.668C152.376 107.46 141.848 104.66 133.336 107.74C124.824 110.82 121.632 111.044 117.936 125.492Z" fill="#8367C7"/>
<path d="M123.368 125.044C123.312 123.14 123.48 121.236 123.928 119.388C124.152 118.436 124.432 117.54 124.768 116.644C125.104 115.748 125.552 114.852 126.056 114.068C126.56 113.228 127.176 112.444 127.904 111.772C128.632 111.1 129.472 110.54 130.368 110.092C131.264 109.7 132.216 109.42 133.168 109.308C134.12 109.252 135.072 109.308 136.024 109.532C135.072 109.532 134.176 109.644 133.28 109.868C132.384 110.092 131.544 110.428 130.76 110.876C129.248 111.828 127.96 113.116 127.008 114.684C126.056 116.252 125.328 117.932 124.768 119.668C124.208 121.348 123.704 123.196 123.368 125.044Z" fill="#F2EBEB"/>
<path d="M138.208 110.26C136.92 111.1 135.856 112.22 135.072 113.564C134.344 114.908 133.84 116.308 133.616 117.82C133.392 119.332 133.28 120.844 133.336 122.412C133.392 123.196 133.448 123.98 133.504 124.764C133.56 125.548 133.672 126.332 133.728 127.116C133.448 126.388 133.168 125.604 132.944 124.876C132.72 124.148 132.608 123.308 132.44 122.524C132.384 122.132 132.384 121.74 132.328 121.348C132.272 120.956 132.272 120.564 132.272 120.116C132.272 119.276 132.328 118.492 132.496 117.708C132.72 116.084 133.336 114.516 134.288 113.172C135.24 111.772 136.64 110.764 138.208 110.26Z" fill="#F2EBEB"/>
<path d="M145.656 110.26C147.336 109.98 149.016 110.316 150.472 111.212C151.2 111.66 151.872 112.276 152.32 113.004C152.824 113.732 153.16 114.516 153.44 115.3C153.664 116.084 153.888 116.924 154 117.708C154.112 118.548 154.224 119.332 154.224 120.172C154.28 121.796 154.168 123.42 153.832 125.044C153.72 123.42 153.552 121.852 153.384 120.228C153.216 118.66 152.88 117.148 152.376 115.636C152.264 115.244 152.096 114.908 151.984 114.572C151.928 114.404 151.816 114.236 151.76 114.068C151.704 113.9 151.592 113.732 151.48 113.564C151.088 112.948 150.584 112.388 150.024 111.94C148.736 110.988 147.224 110.428 145.656 110.26Z" fill="#F2EBEB"/>
<path d="M142.016 110.484C143.528 110.932 144.76 111.996 145.376 113.396C145.712 114.124 145.992 114.852 146.104 115.636C146.216 116.364 146.272 117.148 146.328 117.876C146.384 119.388 146.328 120.844 146.104 122.356C145.936 123.812 145.656 125.268 145.208 126.724C145.208 125.212 145.208 123.756 145.208 122.3C145.208 120.844 145.208 119.388 145.152 117.932C145.152 117.204 145.096 116.476 144.984 115.804C144.928 115.132 144.76 114.46 144.536 113.788C144.144 112.444 143.248 111.268 142.016 110.484Z" fill="#F2EBEB"/>
<path d="M139.552 127.116C139.328 125.828 139.16 124.54 139.104 123.252C138.992 121.964 138.992 120.676 138.992 119.388C138.992 118.1 139.048 116.812 139.104 115.524C139.16 114.236 139.328 112.948 139.552 111.66C139.776 112.948 139.888 114.236 140 115.524C140.056 116.812 140.112 118.1 140.112 119.388C140.112 120.676 140.056 121.964 140 123.252C139.888 124.54 139.776 125.828 139.552 127.116Z" fill="#F2EBEB"/>
<path d="M138.264 135.964C138.6 135.852 138.992 135.796 139.384 135.74C139.72 135.74 140.056 135.74 140.448 135.74C140.784 135.74 141.12 135.796 141.456 135.852C141.792 135.908 142.184 135.964 142.52 135.964C142.352 136.356 141.96 136.636 141.568 136.748C141.176 136.86 140.784 136.916 140.392 136.86C140 136.804 139.608 136.748 139.272 136.58C138.824 136.468 138.544 136.244 138.264 135.964Z" fill="#000001"/>
<path d="M139.552 108.636C139.552 108.636 139.72 101.86 140 101.356C140.28 100.964 140.672 100.628 141.12 100.404L140.728 108.636C140.728 108.636 139.552 109.42 139.552 108.636Z" fill="#000001"/>
<path d="M140.336 100.236C140.336 100.236 137.592 100.012 138.936 97.66C140.28 95.308 139.888 93.796 139.888 93.796C139.888 93.796 145.264 98.444 140.336 100.236Z" fill="#8367C7"/>
<path d="M143.808 94.188C143.976 93.796 144.2 93.46 144.48 93.124C144.76 92.844 145.04 92.564 145.376 92.284C145.712 92.06 146.048 91.836 146.384 91.668C146.776 91.5 147.168 91.332 147.616 91.276C147.448 91.668 147.224 92.06 146.944 92.34C146.44 92.956 145.768 93.46 145.04 93.796C144.648 93.964 144.256 94.132 143.808 94.188Z" fill="#8367C7"/>
<path d="M144.144 95.98C144.48 95.868 144.872 95.868 145.208 95.868C145.544 95.868 145.88 95.924 146.16 96.036C146.496 96.148 146.776 96.26 147.056 96.484C147.336 96.652 147.616 96.932 147.84 97.212C147.504 97.324 147.112 97.38 146.776 97.324C146.104 97.268 145.488 97.044 144.928 96.708C144.648 96.484 144.368 96.26 144.144 95.98Z" fill="#8367C7"/>
</svg>
