<svg width="24" height="24" viewBox="0 0 24 24" fill="none" xmlns="http://www.w3.org/2000/svg">
<path d="M7.5785 12.6713L7.57859 12.6714L15.0763 20.1691C15.1627 20.2612 15.2667 20.3351 15.3821 20.3865C15.4986 20.4384 15.6244 20.4663 15.752 20.4686C15.8795 20.4708 16.0062 20.4473 16.1245 20.3996C16.2428 20.3518 16.3503 20.2807 16.4405 20.1905C16.5307 20.1003 16.6018 19.9928 16.6496 19.8745C16.6974 19.7562 16.7208 19.6295 16.7186 19.502C16.7163 19.3744 16.6884 19.2486 16.6365 19.1321C16.5851 19.0167 16.5112 18.9127 16.4191 18.8262L9.59285 12L16.4191 5.17378C16.5112 5.08731 16.5851 4.98333 16.6365 4.86794C16.6884 4.75141 16.7163 4.62561 16.7186 4.49805C16.7208 4.3705 16.6974 4.24379 16.6496 4.1255C16.6018 4.00721 16.5307 3.89975 16.4405 3.80954C16.3503 3.71933 16.2428 3.64821 16.1245 3.60043C16.0062 3.55265 15.8795 3.52919 15.752 3.53144C15.6244 3.53369 15.4986 3.56161 15.3821 3.61353C15.2667 3.66495 15.1627 3.73886 15.0762 3.83093L7.57859 11.3286L7.5785 11.3287C7.4006 11.5068 7.30067 11.7483 7.30067 12C7.30067 12.2518 7.4006 12.4932 7.5785 12.6713Z" fill="white" stroke="white" stroke-width="0.4"/>
</svg>
