<svg width="24" height="24" viewBox="0 0 24 24" fill="none" xmlns="http://www.w3.org/2000/svg">
<path fill-rule="evenodd" clip-rule="evenodd" d="M5.25 2.25C4.45435 2.25 3.69129 2.56607 3.12868 3.12868C2.56607 3.69129 2.25 4.45435 2.25 5.25V9.568C2.25017 10.3636 2.56635 11.1265 3.129 11.689L12.709 21.27C13.629 22.19 15.099 22.456 16.257 21.698C18.4254 20.2781 20.2777 18.4261 21.698 16.258C22.456 15.098 22.19 13.629 21.27 12.71L11.69 3.129C11.4114 2.85029 11.0806 2.6292 10.7165 2.47838C10.3524 2.32756 9.9621 2.24995 9.568 2.25H5.25ZM6.375 7.5C6.67337 7.5 6.95952 7.38147 7.1705 7.1705C7.38147 6.95952 7.5 6.67337 7.5 6.375C7.5 6.07663 7.38147 5.79048 7.1705 5.5795C6.95952 5.36853 6.67337 5.25 6.375 5.25C6.07663 5.25 5.79048 5.36853 5.5795 5.5795C5.36853 5.79048 5.25 6.07663 5.25 6.375C5.25 6.67337 5.36853 6.95952 5.5795 7.1705C5.79048 7.38147 6.07663 7.5 6.375 7.5Z" fill="white"/>
</svg>
