<svg width="24" height="24" viewBox="0 0 24 24" fill="none" xmlns="http://www.w3.org/2000/svg">
<path d="M15 1.784L14.204 2.579C14.0467 2.73633 13.9395 2.93679 13.8961 3.15502C13.8527 3.37325 13.875 3.59945 13.9601 3.80501C14.0453 4.01058 14.1895 4.18628 14.3745 4.30989C14.5595 4.43351 14.777 4.49949 14.9995 4.49949C15.222 4.49949 15.4395 4.43351 15.6245 4.30989C15.8095 4.18628 15.9537 4.01058 16.0389 3.80501C16.124 3.59945 16.1463 3.37325 16.1029 3.15502C16.0595 2.93679 15.9523 2.73633 15.795 2.579L15 1.784ZM12 1.784L11.204 2.579C11.0467 2.73633 10.9395 2.93679 10.8961 3.15502C10.8527 3.37325 10.875 3.59945 10.9601 3.80501C11.0453 4.01058 11.1895 4.18628 11.3745 4.30989C11.5595 4.43351 11.777 4.49949 11.9995 4.49949C12.222 4.49949 12.4395 4.43351 12.6245 4.30989C12.8095 4.18628 12.9537 4.01058 13.0389 3.80501C13.124 3.59945 13.1463 3.37325 13.1029 3.15502C13.0595 2.93679 12.9523 2.73633 12.795 2.579L12 1.784ZM9 1.784L8.204 2.579C8.04667 2.73633 7.93952 2.93679 7.89612 3.15502C7.85271 3.37325 7.87499 3.59945 7.96014 3.80501C8.04529 4.01058 8.18948 4.18628 8.37449 4.30989C8.55949 4.43351 8.777 4.49949 8.9995 4.49949C9.222 4.49949 9.43951 4.43351 9.62452 4.30989C9.80952 4.18628 9.95371 4.01058 10.0389 3.80501C10.124 3.59945 10.1463 3.37325 10.1029 3.15502C10.0595 2.93679 9.95233 2.73633 9.795 2.579L9 1.784ZM9.75 7.547C10.248 7.526 10.748 7.512 11.25 7.505V6.75C11.25 6.55109 11.329 6.36032 11.4697 6.21967C11.6103 6.07902 11.8011 6 12 6C12.1989 6 12.3897 6.07902 12.5303 6.21967C12.671 6.36032 12.75 6.55109 12.75 6.75V7.505C13.252 7.512 13.752 7.526 14.25 7.547V6.75C14.25 6.55109 14.329 6.36032 14.4697 6.21967C14.6103 6.07902 14.8011 6 15 6C15.1989 6 15.3897 6.07902 15.5303 6.21967C15.671 6.36032 15.75 6.55109 15.75 6.75V7.63L16.057 7.652C17.607 7.769 18.75 9.079 18.75 10.598V11.616C14.2633 11.1261 9.73666 11.1261 5.25 11.616V10.598C5.25 9.079 6.393 7.769 7.943 7.652L8.25 7.63V6.75C8.25 6.55109 8.32902 6.36032 8.46967 6.21967C8.61032 6.07902 8.80109 6 9 6C9.19891 6 9.38968 6.07902 9.53033 6.21967C9.67098 6.36032 9.75 6.55109 9.75 6.75V7.547ZM12 12.75C9.528 12.75 7.1 12.934 4.726 13.29C3.272 13.507 2.25 14.772 2.25 16.206V16.59C3.12832 16.4267 4.03592 16.5545 4.835 16.954C5.19672 17.1349 5.59558 17.229 6 17.229C6.40442 17.229 6.80328 17.1349 7.165 16.954C7.73477 16.6692 8.36301 16.5209 9 16.5209C9.63699 16.5209 10.2652 16.6692 10.835 16.954C11.1967 17.1349 11.5956 17.229 12 17.229C12.4044 17.229 12.8033 17.1349 13.165 16.954C13.7348 16.6692 14.363 16.5209 15 16.5209C15.637 16.5209 16.2652 16.6692 16.835 16.954C17.1967 17.1349 17.5956 17.229 18 17.229C18.4044 17.229 18.8033 17.1349 19.165 16.954C19.9641 16.5545 20.8717 16.4267 21.75 16.59V16.206C21.75 14.772 20.728 13.506 19.274 13.289C16.866 12.9294 14.4347 12.7492 12 12.75ZM21.75 18.131C21.114 17.9398 20.4289 17.9988 19.835 18.296C19.2652 18.5808 18.637 18.7291 18 18.7291C17.363 18.7291 16.7348 18.5808 16.165 18.296C15.8033 18.1151 15.4044 18.021 15 18.021C14.5956 18.021 14.1967 18.1151 13.835 18.296C13.2652 18.5808 12.637 18.7291 12 18.7291C11.363 18.7291 10.7348 18.5808 10.165 18.296C9.80328 18.1151 9.40442 18.021 9 18.021C8.59558 18.021 8.19672 18.1151 7.835 18.296C7.26523 18.5808 6.63699 18.7291 6 18.7291C5.36301 18.7291 4.73477 18.5808 4.165 18.296C3.57106 17.9988 2.88602 17.9398 2.25 18.131V20.625C2.25 21.66 3.09 22.5 4.125 22.5H19.875C20.91 22.5 21.75 21.66 21.75 20.625V18.131Z" fill="white"/>
</svg>
