<svg width="24" height="24" viewBox="0 0 24 24" fill="none" xmlns="http://www.w3.org/2000/svg">
<path d="M5.625 1.5C4.589 1.5 3.75 2.34 3.75 3.375V20.625C3.75 21.66 4.59 22.5 5.625 22.5H18.375C19.41 22.5 20.25 21.66 20.25 20.625V12.75C20.25 11.7554 19.8549 10.8016 19.1517 10.0983C18.4484 9.39509 17.4946 9 16.5 9H14.625C14.1277 9 13.6508 8.80246 13.2992 8.45083C12.9475 8.0992 12.75 7.62228 12.75 7.125V5.25C12.75 4.25544 12.3549 3.30161 11.6517 2.59835C10.9484 1.89509 9.99456 1.5 9 1.5H5.625Z" fill="white"/>
<path d="M12.971 1.816C13.7975 2.76897 14.2517 3.98855 14.25 5.25V7.125C14.25 7.332 14.418 7.5 14.625 7.5H16.5C17.7614 7.49825 18.981 7.95249 19.934 8.779C19.494 7.10571 18.6175 5.5793 17.3941 4.35589C16.1707 3.13248 14.6443 2.25597 12.971 1.816Z" fill="white"/>
</svg>
