<svg width="24" height="24" viewBox="0 0 24 24" fill="none" xmlns="http://www.w3.org/2000/svg">
<path d="M7.99342 4.44859C8.78811 4.11942 9.63984 3.95 10.5 3.95C12.2372 3.95 13.9032 4.64009 15.1315 5.86845C16.3599 7.09682 17.05 8.76284 17.05 10.5C17.05 12.2372 16.3599 13.9032 15.1315 15.1316C13.9032 16.3599 12.2372 17.05 10.5 17.05C9.63984 17.05 8.78811 16.8806 7.99342 16.5514C7.19874 16.2222 6.47667 15.7398 5.86845 15.1316C5.26023 14.5233 4.77776 13.8013 4.44859 13.0066C4.11942 12.2119 3.95 11.3602 3.95 10.5C3.95 9.63985 4.11942 8.78811 4.44859 7.99343C4.77776 7.19874 5.26023 6.47668 5.86845 5.86845C6.47667 5.26023 7.19874 4.77776 7.99342 4.44859ZM3.00335 6.60202C2.37718 7.80594 2.05018 9.14295 2.05 10.5C2.04982 12.1059 2.5073 13.6787 3.36885 15.034C4.23039 16.3893 5.46032 17.4711 6.91455 18.1525C8.36878 18.8339 9.98708 19.0869 11.5799 18.8816C13.1122 18.6842 14.5599 18.0706 15.7663 17.1091L20.3263 21.6691C20.4127 21.7612 20.5167 21.8351 20.6321 21.8865C20.7486 21.9384 20.8744 21.9663 21.0019 21.9686C21.1295 21.9708 21.2562 21.9474 21.3745 21.8996C21.4928 21.8518 21.6002 21.7807 21.6905 21.6905C21.7807 21.6003 21.8518 21.4928 21.8996 21.3745C21.9473 21.2562 21.9708 21.1295 21.9686 21.002C21.9663 20.8744 21.9384 20.7486 21.8865 20.6321C21.8351 20.5167 21.7612 20.4127 21.6691 20.3263L17.1091 15.7663C17.9157 14.7538 18.4794 13.5689 18.7557 12.3027C19.045 10.9768 19.0108 9.60084 18.6559 8.29106C18.301 6.98127 17.6358 5.77623 16.7167 4.77786C15.7976 3.7795 14.6515 3.01718 13.3755 2.5554C12.0994 2.09361 10.731 1.94594 9.38579 2.12487C8.04062 2.30381 6.75833 2.80409 5.64738 3.58339C4.53644 4.36269 3.62952 5.3981 3.00335 6.60202Z" fill="white" stroke="white" stroke-width="0.4"/>
</svg>
