<svg width="24" height="24" viewBox="0 0 24 24" fill="none" xmlns="http://www.w3.org/2000/svg">
<path fill-rule="evenodd" clip-rule="evenodd" d="M12 6.75C11.9998 5.93 12.1917 5.12135 12.5602 4.38885C12.9288 3.65635 13.4638 3.02038 14.1225 2.53188C14.7811 2.04339 15.545 1.71596 16.3529 1.57584C17.1608 1.43572 17.9904 1.48681 18.775 1.725C18.899 1.76257 19.0112 1.83163 19.1006 1.92544C19.19 2.01926 19.2535 2.13464 19.285 2.26033C19.3166 2.38602 19.315 2.51773 19.2804 2.64263C19.2459 2.76753 19.1796 2.88135 19.088 2.973L15.768 6.292C15.831 6.767 16.044 7.226 16.409 7.591C16.774 7.956 17.233 8.169 17.709 8.231L21.027 4.912C21.1187 4.82039 21.2325 4.75409 21.3574 4.71956C21.4823 4.68503 21.614 4.68345 21.7397 4.71497C21.8654 4.7465 21.9807 4.81005 22.0746 4.89943C22.1684 4.98881 22.2374 5.10098 22.275 5.225C22.5242 6.04585 22.5685 6.91527 22.4039 7.75719C22.2394 8.59912 21.8711 9.38789 21.3311 10.0545C20.7912 10.7211 20.0961 11.2453 19.3068 11.5811C18.5174 11.917 17.6577 12.0543 16.803 11.981C15.785 11.895 14.933 12.081 14.494 12.615L7.34401 21.3C7.05125 21.6538 6.68784 21.9425 6.27705 22.1477C5.86626 22.3529 5.41715 22.4701 4.95847 22.4917C4.49979 22.5133 4.04165 22.4389 3.61338 22.2732C3.18511 22.1076 2.79616 21.8543 2.47143 21.5296C2.1467 21.205 1.89334 20.8161 1.72759 20.3878C1.56183 19.9596 1.48732 19.5015 1.50884 19.0428C1.53036 18.5841 1.64742 18.135 1.85254 17.7241C2.05766 17.3133 2.34631 16.9498 2.70001 16.657L11.384 9.50599C11.917 9.06599 12.104 8.215 12.018 7.197C12.0058 7.04831 11.9998 6.89918 12 6.75ZM4.11701 19.125C4.11701 18.9261 4.19603 18.7353 4.33668 18.5947C4.47733 18.454 4.6681 18.375 4.86701 18.375H4.87501C5.07392 18.375 5.26469 18.454 5.40534 18.5947C5.54599 18.7353 5.62501 18.9261 5.62501 19.125V19.133C5.62501 19.3319 5.54599 19.5227 5.40534 19.6633C5.26469 19.804 5.07392 19.883 4.87501 19.883H4.86701C4.6681 19.883 4.47733 19.804 4.33668 19.6633C4.19603 19.5227 4.11701 19.3319 4.11701 19.133V19.125Z" fill="white"/>
<path d="M10.076 8.63999L7.875 6.43999V4.87399C7.87499 4.74451 7.84146 4.61724 7.77768 4.50456C7.71389 4.39188 7.62202 4.29763 7.511 4.23099L3.761 1.98099C3.61757 1.89502 3.44953 1.85944 3.28356 1.87991C3.1176 1.90039 2.96323 1.97574 2.845 2.09399L2.095 2.84399C1.97674 2.96223 1.90139 3.11659 1.88092 3.28255C1.86044 3.44852 1.89602 3.61657 1.982 3.75999L4.232 7.50999C4.29864 7.62101 4.39289 7.71288 4.50557 7.77667C4.61825 7.84046 4.74552 7.87399 4.875 7.87399H6.439L8.501 9.93599L10.076 8.63899V8.63999Z" fill="white"/>
<path fill-rule="evenodd" clip-rule="evenodd" d="M12.556 17.329L16.739 21.511C17.0524 21.8244 17.4245 22.073 17.8339 22.2426C18.2434 22.4122 18.6823 22.4995 19.1255 22.4995C19.5687 22.4995 20.0076 22.4122 20.4171 22.2426C20.8265 22.073 21.1986 21.8244 21.512 21.511C21.8254 21.1976 22.074 20.8256 22.2436 20.4161C22.4132 20.0066 22.5005 19.5677 22.5005 19.1245C22.5005 18.6813 22.4132 18.2424 22.2436 17.8329C22.074 17.4235 21.8254 17.0514 21.512 16.738L18.206 13.433C17.6992 13.5049 17.186 13.5193 16.676 13.476C16.282 13.442 15.994 13.47 15.809 13.518C15.7505 13.5304 15.6941 13.5517 15.642 13.581L12.556 17.329ZM15.97 15.969C16.1106 15.8286 16.3012 15.7497 16.5 15.7497C16.6988 15.7497 16.8894 15.8286 17.03 15.969L18.905 17.845C18.9787 17.9137 19.0378 17.9965 19.0788 18.0885C19.1198 18.1805 19.1418 18.2798 19.1436 18.3805C19.1454 18.4812 19.1268 18.5812 19.0891 18.6746C19.0514 18.768 18.9953 18.8528 18.924 18.9241C18.8528 18.9953 18.768 19.0514 18.6746 19.0891C18.5812 19.1269 18.4812 19.1454 18.3805 19.1436C18.2798 19.1418 18.1805 19.1198 18.0885 19.0788C17.9965 19.0378 17.9137 18.9787 17.845 18.905L15.97 17.03C15.8295 16.8894 15.7507 16.6988 15.7507 16.5C15.7507 16.3013 15.8295 16.1106 15.97 15.97V15.969Z" fill="white"/>
</svg>
