<svg width="280" height="281" viewBox="0 0 280 281" fill="none" xmlns="http://www.w3.org/2000/svg">
<path d="M70.112 112.668L71.512 113.62L71.456 113.676L70.112 112.668Z" fill="#000001"/>
<path d="M74.312 115.636L77.056 117.596L76.944 117.82L74.2 115.748L74.312 115.636Z" fill="#000001"/>
<path d="M79.856 119.556L82.656 121.572L82.376 121.964L79.632 119.892L79.856 119.556Z" fill="#000001"/>
<path d="M85.456 123.588L88.256 125.548L87.864 126.052L85.12 123.98L85.456 123.588Z" fill="#000001"/>
<path d="M91 127.564L93.8 129.58L93.352 130.14L90.608 128.124L91 127.564Z" fill="#000001"/>
<path d="M96.544 131.596L99.344 133.556L98.84 134.228L96.096 132.212L96.544 131.596Z" fill="#000001"/>
<path d="M102.144 135.572L104.888 137.588L104.328 138.316L101.584 136.3L102.144 135.572Z" fill="#000001"/>
<path d="M107.632 139.604L110.432 141.62L109.872 142.404L107.072 140.388L107.632 139.604Z" fill="#000001"/>
<path d="M113.176 143.636L115.976 145.652L115.36 146.492L112.616 144.42L113.176 143.636Z" fill="#000001"/>
<path d="M118.72 147.668L121.52 149.684L120.848 150.524L118.104 148.508L118.72 147.668Z" fill="#000001"/>
<path d="M124.264 151.7L127.008 153.716L126.392 154.612L123.648 152.596L124.264 151.7Z" fill="#000001"/>
<path d="M129.823 155.737L129.161 156.641L131.916 158.66L132.578 157.757L129.823 155.737Z" fill="#000001"/>
<path d="M135.296 159.82L138.096 161.836L137.424 162.676L134.68 160.66L135.296 159.82Z" fill="#000001"/>
<path d="M140.84 163.852L143.584 165.924L142.968 166.764L140.224 164.748L140.84 163.852Z" fill="#000001"/>
<path d="M146.328 167.94L149.072 169.956L148.512 170.796L145.712 168.78L146.328 167.94Z" fill="#000001"/>
<path d="M151.872 172.028L154.616 174.044L154.056 174.828L151.256 172.812L151.872 172.028Z" fill="#000001"/>
<path d="M157.36 176.06L160.104 178.132L159.6 178.86L156.8 176.844L157.36 176.06Z" fill="#000001"/>
<path d="M162.848 180.148L165.592 182.22L165.144 182.836L162.344 180.82L162.848 180.148Z" fill="#000001"/>
<path d="M168.336 184.236L171.08 186.308L170.688 186.868L167.888 184.852L168.336 184.236Z" fill="#000001"/>
<path d="M173.824 188.38L176.568 190.396L176.232 190.844L173.488 188.884L173.824 188.38Z" fill="#000001"/>
<path d="M179.312 192.468L182.056 194.54L181.832 194.82L179.032 192.86L179.312 192.468Z" fill="#000001"/>
<path d="M184.8 196.612L187.488 198.684L187.376 198.796L184.632 196.836L184.8 196.612Z" fill="#000001"/>
<path d="M190.232 200.756L191.576 201.764L190.176 200.756H190.232Z" fill="#000001"/>
<path d="M89.04 200.532L90.384 199.524L90.44 199.58L89.04 200.532Z" fill="#000001"/>
<path d="M93.016 197.564L95.704 195.604L95.872 195.828L93.128 197.676L93.016 197.564Z" fill="#000001"/>
<path d="M98.336 193.644L101.024 191.684L101.304 192.02L98.56 193.924L98.336 193.644Z" fill="#000001"/>
<path d="M103.656 189.668L106.344 187.764L106.68 188.212L103.992 190.116L103.656 189.668Z" fill="#000001"/>
<path d="M108.976 185.804L111.664 183.844L112.056 184.404L109.368 186.308L108.976 185.804Z" fill="#000001"/>
<path d="M114.352 181.884L116.984 179.924L117.488 180.596L114.8 182.5L114.352 181.884Z" fill="#000001"/>
<path d="M119.672 177.964L122.304 176.06L122.864 176.788L120.176 178.692L119.672 177.964Z" fill="#000001"/>
<path d="M124.992 174.1L127.68 172.14L128.24 172.98L125.552 174.884L124.992 174.1Z" fill="#000001"/>
<path d="M130.368 170.236L133.056 168.276L133.616 169.116L130.928 171.02L130.368 170.236Z" fill="#000001"/>
<path d="M135.688 166.372L138.376 164.412L138.992 165.252L136.304 167.212L135.688 166.372Z" fill="#000001"/>
<path d="M141.064 162.508L143.752 160.548L144.368 161.444L141.68 163.348L141.064 162.508Z" fill="#000001"/>
<path d="M149.106 156.66L146.424 158.59L147.078 159.499L149.76 157.569L149.106 156.66Z" fill="#000001"/>
<path d="M151.76 154.78L154.504 152.82L155.12 153.716L152.432 155.676L151.76 154.78Z" fill="#000001"/>
<path d="M157.136 150.916L159.88 149.012L160.44 149.852L157.808 151.756L157.136 150.916Z" fill="#000001"/>
<path d="M162.512 147.108L165.2 145.148L165.816 145.988L163.128 147.892L162.512 147.108Z" fill="#000001"/>
<path d="M167.888 143.244L170.576 141.34L171.136 142.124L168.504 144.028L167.888 143.244Z" fill="#000001"/>
<path d="M173.264 139.38L176.008 137.476L176.512 138.204L173.824 140.164L173.264 139.38Z" fill="#000001"/>
<path d="M178.696 135.572L181.384 133.668L181.832 134.34L179.2 136.244L178.696 135.572Z" fill="#000001"/>
<path d="M184.072 131.764L186.76 129.86L187.152 130.42L184.52 132.38L184.072 131.764Z" fill="#000001"/>
<path d="M189.504 127.956L192.192 126.052L192.528 126.5L189.84 128.46L189.504 127.956Z" fill="#000001"/>
<path d="M194.88 124.204L197.624 122.3L197.792 122.58L195.16 124.54L194.88 124.204Z" fill="#000001"/>
<path d="M200.312 120.396L203 118.492L203.112 118.66L200.48 120.62L200.312 120.396Z" fill="#000001"/>
<path d="M205.744 116.644L207.144 115.692L205.744 116.7V116.644Z" fill="#000001"/>
<path d="M27.104 164.412L42.392 155.956L83.216 185.748L64.96 196.22L27.104 164.412Z" fill="#8367C7"/>
<path d="M66.304 252.612L85.064 243.764L83.216 185.748L64.96 196.22L66.304 252.612Z" fill="#000001"/>
<path d="M26.04 224.164L27.104 164.412L64.96 196.22L66.304 252.612L26.04 224.164Z" fill="#F2EBEB"/>
<path d="M28 211.116V222.708L34.44 227.076L34.832 216.66L28 211.116Z" fill="#8367C7"/>
<path d="M60.704 244.884V237.66L51.8 230.38L51.464 238.612L60.704 244.884Z" fill="#8367C7"/>
<path d="M38.584 219.684L38.248 229.652L47.712 236.036L48.048 227.356L38.584 219.684Z" fill="#8367C7"/>
<path d="M28 188.492V207.14L35 212.572L35.672 194.764L28 188.492Z" fill="#8367C7"/>
<path d="M60.704 232.62V215.26L52.64 208.652L51.968 225.788L60.704 232.62Z" fill="#8367C7"/>
<path d="M38.752 215.484L48.216 222.876L48.888 205.572L39.424 197.844L38.752 215.484Z" fill="#8367C7"/>
<path d="M29.12 169.956V185.748L35.784 191.124L36.344 176.284L29.12 169.956Z" fill="#8367C7"/>
<path d="M49.056 201.764L49.616 187.82L40.096 179.532L39.536 194.148L49.056 201.764Z" fill="#8367C7"/>
<path d="M60.704 211.116V197.508L53.368 191.068L52.808 204.788L60.704 211.116Z" fill="#8367C7"/>
<path d="M84.56 36.9L69.216 28.444L28.448 58.236L46.704 68.708L84.56 36.9Z" fill="#8367C7"/>
<path d="M45.36 125.1L26.544 116.252L28.448 58.236L46.704 68.708L45.36 125.1Z" fill="#000001"/>
<path d="M85.624 96.652L84.56 36.9L46.704 68.708L45.36 125.1L85.624 96.652Z" fill="#F2EBEB"/>
<path d="M83.608 83.604V95.196L77.168 99.564L76.776 89.148L83.608 83.604Z" fill="#8367C7"/>
<path d="M50.904 117.372V110.148L59.864 102.868L60.2 111.1L50.904 117.372Z" fill="#8367C7"/>
<path d="M73.024 92.172L73.416 102.14L63.952 108.524L63.616 99.844L73.024 92.172Z" fill="#8367C7"/>
<path d="M83.608 60.98V79.628L76.664 85.06L75.992 67.252L83.608 60.98Z" fill="#8367C7"/>
<path d="M50.904 105.108V87.748L58.968 81.14L59.696 98.276L50.904 105.108Z" fill="#8367C7"/>
<path d="M72.856 87.972L63.448 95.364L62.72 78.116L72.24 70.332L72.856 87.972Z" fill="#8367C7"/>
<path d="M82.544 42.444V58.236L75.824 63.612L75.32 48.772L82.544 42.444Z" fill="#8367C7"/>
<path d="M62.552 74.252L61.992 60.308L71.568 52.02L72.072 66.636L62.552 74.252Z" fill="#8367C7"/>
<path d="M50.904 83.604V69.996L58.296 63.612L58.856 77.276L50.904 83.604Z" fill="#8367C7"/>
<path d="M252.896 164.524L237.608 156.124L196.784 185.916L215.04 196.388L252.896 164.524Z" fill="#8367C7"/>
<path d="M213.696 252.78L194.936 243.876L196.784 185.916L215.04 196.388L213.696 252.78Z" fill="#000001"/>
<path d="M253.96 224.276L252.896 164.524L215.04 196.388L213.696 252.78L253.96 224.276Z" fill="#F2EBEB"/>
<path d="M252 211.228V222.876L245.56 227.244L245.168 216.772L252 211.228Z" fill="#8367C7"/>
<path d="M219.296 245.052V237.828L228.2 230.548L228.536 238.78L219.296 245.052Z" fill="#8367C7"/>
<path d="M241.416 219.852L241.752 229.82L232.344 236.204L231.952 227.524L241.416 219.852Z" fill="#8367C7"/>
<path d="M252 188.66V207.308L245 212.74L244.328 194.876L252 188.66Z" fill="#8367C7"/>
<path d="M219.296 232.732V215.428L227.36 208.82L228.032 225.956L219.296 232.732Z" fill="#8367C7"/>
<path d="M241.248 215.652L231.784 223.044L231.112 205.74L240.576 197.956L241.248 215.652Z" fill="#8367C7"/>
<path d="M250.88 170.124V185.916L244.216 191.236L243.656 176.396L250.88 170.124Z" fill="#8367C7"/>
<path d="M230.944 201.932L230.384 187.988L239.904 179.7L240.464 194.26L230.944 201.932Z" fill="#8367C7"/>
<path d="M219.296 211.228V197.62L226.632 191.236L227.192 204.9L219.296 211.228Z" fill="#8367C7"/>
<path d="M195.44 37.012L210.784 28.612L251.552 58.404L233.296 68.876L195.44 37.012Z" fill="#8367C7"/>
<path d="M234.64 125.268L253.456 116.364L251.552 58.404L233.296 68.876L234.64 125.268Z" fill="#000001"/>
<path d="M194.376 96.82L195.44 37.012L233.296 68.876L234.64 125.268L194.376 96.82Z" fill="#F2EBEB"/>
<path d="M196.392 83.716V95.364L202.832 99.732L203.224 89.316L196.392 83.716Z" fill="#8367C7"/>
<path d="M229.096 117.54V110.316L220.136 103.036L219.8 111.268L229.096 117.54Z" fill="#8367C7"/>
<path d="M206.976 92.34L206.584 102.308L216.048 108.692L216.384 100.012L206.976 92.34Z" fill="#8367C7"/>
<path d="M196.392 61.148V79.796L203.336 85.228L204.008 67.364L196.392 61.148Z" fill="#8367C7"/>
<path d="M229.096 105.276V87.916L221.032 81.308L220.304 98.444L229.096 105.276Z" fill="#8367C7"/>
<path d="M207.144 88.14L216.552 95.532L217.28 78.228L207.76 70.444L207.144 88.14Z" fill="#8367C7"/>
<path d="M197.456 42.612V58.404L204.12 63.78L204.68 48.94L197.456 42.612Z" fill="#8367C7"/>
<path d="M217.448 74.42L218.008 60.476L208.432 52.188L207.928 66.748L217.448 74.42Z" fill="#8367C7"/>
<path d="M229.096 83.716V70.108L221.704 63.724L221.2 77.388L229.096 83.716Z" fill="#8367C7"/>
<path d="M114.52 136.972C114.52 136.972 85.4 148.228 93.52 167.38C101.64 186.532 163.128 200.98 180.152 178.132C197.176 155.284 177.296 133.22 161.784 133.22C146.272 133.22 114.52 136.972 114.52 136.972Z" fill="#8367C7"/>
<path d="M107.352 173.82L106.288 172.7H175.056C175.056 172.7 174.72 173.876 173.824 173.82C172.928 173.764 107.352 173.82 107.352 173.82Z" fill="#000001"/>
<path d="M115.584 160.828C115.584 160.828 106.008 172.532 106.288 172.7C106.568 172.868 174.384 173.204 175.056 172.7C175.728 172.196 166.544 160.828 165.144 160.828H115.584Z" fill="#F2EBEB"/>
<path d="M110.376 169.788C110.32 170.012 110.264 170.236 110.208 170.404C110.152 170.572 110.04 170.796 109.928 170.964C109.704 171.3 109.48 171.636 109.2 171.972L108.752 171.076C109.088 171.076 109.424 171.132 109.816 171.188C110.208 171.244 110.544 171.412 110.88 171.636C110.544 171.804 110.208 171.972 109.816 172.084C109.48 172.14 109.144 172.196 108.752 172.196L107.576 172.252L108.36 171.3C108.64 170.964 108.92 170.684 109.2 170.46C109.368 170.348 109.536 170.236 109.704 170.124C109.928 169.9 110.152 169.844 110.376 169.788Z" fill="#F2EBEB"/>
<path d="M138.32 171.58C138.712 171.412 139.104 171.3 139.496 171.244C139.888 171.188 140.28 171.132 140.672 171.132C141.064 171.132 141.456 171.132 141.848 171.244C142.24 171.3 142.688 171.468 143.024 171.636C142.688 171.86 142.24 172.028 141.848 172.14C141.456 172.252 141.064 172.308 140.672 172.308C140.28 172.308 139.888 172.252 139.496 172.196C139.048 172.028 138.656 171.86 138.32 171.58Z" fill="#F2EBEB"/>
<path d="M143.752 171.58C143.752 171.58 146.608 171.076 146.608 171.468C146.664 172.196 143.752 171.58 143.752 171.58Z" fill="#F2EBEB"/>
<path d="M129.472 165.364L128.744 167.156H131.936L132.328 165.364H129.472Z" fill="#8367C7"/>
<path d="M136.92 165.364L136.752 167.156H139.888V165.364H136.92Z" fill="#8367C7"/>
<path d="M144.256 165.364L144.48 167.156H147.784L147.392 165.364H144.256Z" fill="#8367C7"/>
<path d="M140.448 165.364L140.504 167.156H143.752L143.528 165.364H140.448Z" fill="#8367C7"/>
<path d="M166.712 170.684H170.296C170.296 170.684 169.4 169.452 168.28 167.94H164.864L166.712 170.684Z" fill="#8367C7"/>
<path d="M118.384 165.364L117.32 167.156H120.456L121.408 165.364H118.384Z" fill="#8367C7"/>
<path d="M122.024 165.364L121.072 167.156H123.984L124.824 165.364H122.024Z" fill="#8367C7"/>
<path d="M125.776 165.364L125.104 167.156H128.072L128.744 165.364H125.776Z" fill="#8367C7"/>
<path d="M133.112 165.364L132.72 167.156H136.024L136.192 165.364H133.112Z" fill="#8367C7"/>
<path d="M163.296 167.156H164.304L163.072 165.364H162.176L163.296 167.156Z" fill="#8367C7"/>
<path d="M159.152 165.364L160.104 167.156H163.296L162.176 165.364H159.152Z" fill="#8367C7"/>
<path d="M148.176 165.364L148.568 167.156H151.76L151.088 165.364H148.176Z" fill="#8367C7"/>
<path d="M151.76 165.364L152.432 167.156H155.456L154.784 165.364H151.76Z" fill="#8367C7"/>
<path d="M155.736 165.364L156.52 167.156H159.488L158.536 165.364H155.736Z" fill="#8367C7"/>
<path d="M123.648 167.94L122.416 170.684H123.816L124.88 167.94H123.648Z" fill="#8367C7"/>
<path d="M116.816 167.94L115.136 170.684H118.552L120.008 167.94H116.816Z" fill="#8367C7"/>
<path d="M131.768 167.94L131.152 170.684H131.992L132.552 167.94H131.768Z" fill="#8367C7"/>
<path d="M124.768 167.94L123.76 170.684H126.728L127.792 167.94H124.768Z" fill="#8367C7"/>
<path d="M128.464 167.94L127.456 170.684H131.152L131.768 167.94H128.464Z" fill="#8367C7"/>
<path d="M120.68 167.94L119.28 170.684H122.36L123.592 167.94H120.68Z" fill="#8367C7"/>
<path d="M119.28 162.732H116.648L115.248 164.58H117.992L119.28 162.732Z" fill="#8367C7"/>
<path d="M121.856 164.58L122.864 162.788H120.008L118.888 164.58H121.856Z" fill="#8367C7"/>
<path d="M112.728 167.94C111.608 169.452 110.712 170.684 110.88 170.684C110.936 170.684 112.056 170.684 113.904 170.684L115.752 167.94H112.728Z" fill="#8367C7"/>
<path d="M117.488 165.364H114.632L113.288 167.156H116.256L117.488 165.364Z" fill="#8367C7"/>
<path d="M143.808 167.94L144.088 170.684H144.872L144.536 167.94H143.808Z" fill="#8367C7"/>
<path d="M152.768 167.94L153.832 170.684H156.856L155.792 167.94H152.768Z" fill="#8367C7"/>
<path d="M156.912 167.94L158.144 170.684H161.28L159.88 167.94H156.912Z" fill="#8367C7"/>
<path d="M148.736 167.94L149.352 170.684H153.104L152.04 167.94H148.736Z" fill="#8367C7"/>
<path d="M160.552 167.94L162.008 170.684H165.424L163.744 167.94H160.552Z" fill="#8367C7"/>
<path d="M132.552 167.94L131.992 170.684H135.632L135.968 167.94H132.552Z" fill="#8367C7"/>
<path d="M139.888 167.94L139.944 170.684H140.616L140.56 167.94H139.888Z" fill="#8367C7"/>
<path d="M136.64 167.94L136.36 170.684H139.944L139.888 167.94H136.64Z" fill="#8367C7"/>
<path d="M135.912 167.94L135.576 170.684H136.36L136.64 167.94H135.912Z" fill="#8367C7"/>
<path d="M144.592 167.94L144.928 170.684H148.568L148.008 167.94H144.592Z" fill="#8367C7"/>
<path d="M140.56 167.94L140.616 170.684H144.088L143.808 167.94H140.56Z" fill="#8367C7"/>
<path d="M147.952 167.94L148.512 170.684H149.352L148.736 167.94H147.952Z" fill="#8367C7"/>
<path d="M127.792 167.94L126.728 170.684H127.4L128.408 167.94H127.792Z" fill="#8367C7"/>
<path d="M158.144 164.58L157.192 162.732H154.504L155.344 164.58H158.144Z" fill="#8367C7"/>
<path d="M165.76 164.58C165.312 163.908 164.808 163.292 164.192 162.788C164.136 162.788 163.072 162.788 161.28 162.788L162.512 164.636H165.76V164.58Z" fill="#8367C7"/>
<path d="M161.728 164.58L160.608 162.732H157.752L158.76 164.58H161.728Z" fill="#8367C7"/>
<path d="M164.304 167.156H167.72L166.376 165.364H163.128L164.304 167.156Z" fill="#8367C7"/>
<path d="M125.16 164.58L126 162.732H123.312L122.36 164.58H125.16Z" fill="#8367C7"/>
<path d="M136.304 164.58L136.528 162.732H133.672L133.28 164.58H136.304Z" fill="#8367C7"/>
<path d="M139.832 164.58L139.776 162.732H137.2L136.976 164.58H139.832Z" fill="#8367C7"/>
<path d="M132.552 164.58L133 162.732H130.48L129.752 164.58H132.552Z" fill="#8367C7"/>
<path d="M129.08 164.58L129.752 162.732H126.784L126.112 164.58H129.08Z" fill="#8367C7"/>
<path d="M147.224 164.58L146.832 162.732H143.976L144.2 164.58H147.224Z" fill="#8367C7"/>
<path d="M150.752 164.58L150.024 162.732H147.504L147.952 164.58H150.752Z" fill="#8367C7"/>
<path d="M154.448 164.58L153.776 162.732H150.808L151.536 164.58H154.448Z" fill="#8367C7"/>
<path d="M143.472 164.58L143.248 162.732H140.336L140.392 164.58H143.472Z" fill="#8367C7"/>
<path d="M134.736 155.004C134.736 155.004 135.016 155.452 135.24 155.452L148.12 155.564C148.288 155.564 148.456 155.004 148.456 155.004H134.736Z" fill="#000001"/>
<path d="M171.248 108.636C171.248 107.46 170.296 106.564 169.176 106.508C158.648 106.396 112.448 106.116 111.832 106.508C110.488 107.404 110.208 144.252 111.776 145.204C112.336 145.54 168.784 146.38 170.128 145.372C171.304 144.532 171.304 116.588 171.248 108.636Z" fill="#F2EBEB"/>
<path d="M166.656 108.076C167.608 108.076 168.336 108.86 168.336 109.812C168.448 116.644 168.728 141.508 168.336 141.844C167.944 142.18 113.4 142.068 113.4 141.844C113.4 141.62 113.232 108.692 113.4 108.58C113.568 108.468 157.416 108.132 166.656 108.076Z" fill="#8367C7"/>
<path d="M141.792 142.852C141.4 142.964 141.176 143.412 141.288 143.86C141.288 143.916 141.344 143.916 141.344 143.972C141.512 144.364 141.96 144.476 142.352 144.308C142.576 144.196 142.744 143.972 142.744 143.748C142.744 143.244 142.352 142.74 141.792 142.852Z" fill="#EA8383"/>
<path d="M133.448 132.044C134.064 130.812 134.792 129.636 135.52 128.46C136.248 127.284 137.032 126.164 137.872 125.044C138.712 123.924 139.552 122.86 140.392 121.796C141.288 120.732 142.184 119.724 143.192 118.716C142.576 119.948 141.848 121.124 141.12 122.3C140.392 123.476 139.552 124.596 138.768 125.716C137.984 126.836 137.088 127.9 136.248 128.964C135.352 130.028 134.456 131.036 133.448 132.044Z" fill="#F2EBEB"/>
<path d="M139.608 131.092C140.056 130.084 140.616 129.076 141.232 128.18C141.792 127.228 142.408 126.332 143.08 125.436C143.752 124.54 144.424 123.7 145.152 122.804C145.88 121.964 146.664 121.124 147.448 120.396C147 121.404 146.44 122.412 145.824 123.364C145.264 124.316 144.648 125.212 143.976 126.108C143.304 127.004 142.632 127.844 141.904 128.74C141.176 129.524 140.448 130.308 139.608 131.092Z" fill="#F2EBEB"/>
<path d="M136.864 145.988L136.304 151.084H146.832L145.88 145.988H136.864Z" fill="#000001"/>
<path d="M134.736 155.004C134.736 155.004 148.68 155.34 148.512 155.004C148.344 154.668 146.776 151.084 146.776 151.084H136.248C136.304 151.084 134.512 154.78 134.736 155.004Z" fill="#F2EBEB"/>
<path d="M135.576 154.444C135.576 154.444 137.872 154.668 137.536 154.444C137.2 154.22 135.576 154.444 135.576 154.444Z" fill="#F2EBEB"/>
<path d="M138.04 154.444C138.04 154.444 142.016 154.78 142.352 154.556C142.688 154.332 138.04 154.444 138.04 154.444Z" fill="#F2EBEB"/>
<path d="M163.016 144.476C163.296 144.308 163.576 144.196 163.856 144.084C164.136 144.028 164.416 143.972 164.696 143.972C164.976 143.972 165.256 144.028 165.536 144.084C165.872 144.14 166.152 144.308 166.432 144.476C166.208 144.7 165.872 144.868 165.592 144.924C165.312 145.036 165.032 145.036 164.752 145.036C164.472 145.036 164.136 144.98 163.856 144.924C163.576 144.868 163.24 144.7 163.016 144.476Z" fill="#F2EBEB"/>
<path d="M166.992 144.476C166.992 144.476 169.12 144.14 169.12 144.364C169.12 144.868 166.992 144.476 166.992 144.476Z" fill="#F2EBEB"/>
<path d="M113.4 141.844C113.176 139.1 113.064 136.3 112.952 133.5C112.84 130.7 112.84 127.956 112.84 125.156C112.84 122.356 112.896 119.612 112.952 116.812C113.008 114.012 113.176 111.268 113.4 108.468C113.624 111.268 113.736 114.012 113.848 116.812C113.96 119.612 113.96 122.356 113.96 125.156C113.96 127.956 113.904 130.7 113.848 133.5C113.792 136.3 113.624 139.044 113.4 141.844Z" fill="#000001"/>
<path d="M168.56 139.212C168.336 136.748 168.168 134.284 168.056 131.876C167.944 129.468 167.888 126.948 167.888 124.54C167.888 122.132 167.888 119.612 167.944 117.204C168 114.796 168.112 112.276 168.336 109.868C168.616 112.332 168.728 114.796 168.84 117.204C168.952 119.612 169.008 122.132 169.008 124.54C169.008 126.948 169.008 129.468 168.952 131.876C168.896 134.284 168.784 136.804 168.56 139.212Z" fill="#000001"/>
</svg>
