<svg width="242" height="180" viewBox="0 0 242 180" fill="none" xmlns="http://www.w3.org/2000/svg">
<path d="M46.6949 175.966L50.5838 175.965L51.3054 160.885L46.6941 160.966L46.6949 175.966Z" fill="#FFB6B6"/>
<path d="M45.7029 174.696L53.3614 174.696H53.3617C54.6561 174.696 55.8974 175.21 56.8127 176.125C57.728 177.04 58.2422 178.282 58.2423 179.576V179.735L45.7031 179.735L45.7029 174.696Z" fill="#2F2E41"/>
<path d="M30.9741 175.966L34.8629 175.965L35.6337 160.885L30.9733 160.966L30.9741 175.966Z" fill="#FFB6B6"/>
<path d="M29.9821 174.696L37.6405 174.696H37.6409C38.9352 174.696 40.1766 175.21 41.0919 176.125C42.0071 177.04 42.5214 178.282 42.5215 179.576V179.735L29.9823 179.735L29.9821 174.696Z" fill="#2F2E41"/>
<path d="M68.8558 111.359C68.8404 110.909 68.7264 110.467 68.5218 110.066C68.3172 109.664 68.0271 109.312 67.6718 109.035C67.3165 108.757 66.9048 108.561 66.4655 108.46C66.0263 108.359 65.5702 108.356 65.1295 108.45L59.4515 99.0802L57.011 104.224L62.7771 112.333C62.9846 113.063 63.4526 113.692 64.0925 114.1C64.7324 114.507 65.4997 114.666 66.249 114.546C66.9983 114.426 67.6775 114.036 68.158 113.448C68.6384 112.861 68.8867 112.118 68.8558 111.359Z" fill="#FFB6B6"/>
<path d="M21.4089 121.16C21.6738 120.796 21.8556 120.377 21.9414 119.935C22.0273 119.492 22.015 119.037 21.9056 118.599C21.7961 118.162 21.5922 117.754 21.308 117.404C21.0239 117.054 20.6665 116.771 20.261 116.574L21.5495 105.694L16.461 108.248L16.0175 118.188C15.732 118.891 15.7144 119.675 15.9679 120.39C16.2214 121.105 16.7285 121.703 17.3931 122.069C18.0576 122.435 18.8335 122.545 19.5736 122.378C20.3138 122.21 20.9667 121.777 21.4089 121.16Z" fill="#FFB6B6"/>
<path d="M48.9751 110.139L51.729 111.77C51.729 111.77 53.9666 113.195 53.2142 123.102C52.4617 133.009 51.5625 172.703 51.5625 172.703H46.6811L38.7753 125.287L35.8906 173.217L30.7523 172.96C30.7523 172.96 20.2542 118.392 24.7967 112.469L48.9751 110.139Z" fill="#2F2E41"/>
<path d="M23.1346 75.0775C23.1346 75.0775 36.5267 70.7722 47.3318 74.7862L46.4472 95.6282L53.1122 111.886C53.1122 111.886 31.9234 120.105 24.8623 113.198L26.9216 96.9128L23.1346 75.0775Z" fill="white"/>
<path d="M43.7316 77.234L46.538 74.7863C46.538 74.7863 48.41 74.7641 50.0209 77.6442C51.6319 80.5242 54.5506 89.8206 54.5506 89.8206L63.8944 105.648L59.7837 108.474L44.9644 87.7486L43.7316 77.234Z" fill="white"/>
<path d="M23.6315 76.1051L23.8229 74.7993C23.8229 74.7993 18.6048 75.1854 18.1634 80.2132C17.722 85.2411 16.1081 113.612 16.1081 113.612L21.2695 114.64L26.404 85.5211L23.6315 76.1051Z" fill="white"/>
<path d="M41.7212 67.5448L26.0662 70.6275C25.7441 70.6905 25.4101 70.6232 25.1376 70.4404C24.8651 70.2575 24.6762 69.974 24.6124 69.6521L23.2837 62.9042C22.8128 60.5067 23.3134 58.0203 24.6753 55.9917C26.0371 53.9631 28.1489 52.5583 30.5462 52.0863C32.9435 51.6142 35.4301 52.1135 37.4594 53.4743C39.4887 54.8351 40.8946 56.9461 41.3679 59.3432L42.6966 66.091C42.7597 66.4131 42.6924 66.747 42.5095 67.0196C42.3267 67.2921 42.0431 67.481 41.7212 67.5448Z" fill="#2F2E41"/>
<path d="M34.4154 68.6906C38.147 68.6906 41.1721 65.6655 41.1721 61.9339C41.1721 58.2023 38.147 55.1772 34.4154 55.1772C30.6838 55.1772 27.6588 58.2023 27.6588 61.9339C27.6588 65.6655 30.6838 68.6906 34.4154 68.6906Z" fill="#FFB6B6"/>
<path d="M43.6399 59.5967L34.0673 61.4817L33.6985 60.1267L33.4783 61.5977L32.0043 61.8879L31.2734 59.2023L30.837 62.1178L27.9849 62.6794L27.9584 62.5444C27.5871 60.6477 27.9833 58.6811 29.0602 57.0761C30.137 55.4711 31.8066 54.3588 33.7025 53.9833L35.0522 53.7175C36.9489 53.3462 38.9155 53.7425 40.5205 54.8194C42.1255 55.8962 43.2378 57.5658 43.6134 59.4617L43.6399 59.5967Z" fill="#2F2E41"/>
<path d="M35.672 70.0445C35.5999 70.0587 35.5268 70.0665 35.4533 70.0679L28.2003 70.2114L25.9191 58.6267L33.6352 57.1073L33.488 57.3677C31.4405 60.9908 34.4327 65.6229 36.3985 68.0615C36.5432 68.2399 36.6345 68.4556 36.6619 68.6837C36.6894 68.9118 36.6518 69.143 36.5536 69.3507C36.472 69.5278 36.3496 69.6831 36.1963 69.8037C36.0431 69.9243 35.8634 70.0069 35.672 70.0445Z" fill="#2F2E41"/>
<path d="M138.673 0.0758057H45.1899V49.1613H138.673V0.0758057Z" fill="#F2F2F2"/>
<path d="M138.616 0H45.1329V5.69036H138.616V0Z" fill="#E6E6E6"/>
<path d="M136.923 7.99756H47.304V46.5739H136.923V7.99756Z" fill="white"/>
<path d="M53.9915 3.77188C54.5113 3.77188 54.9328 3.35045 54.9328 2.83058C54.9328 2.31072 54.5113 1.88928 53.9915 1.88928C53.4716 1.88928 53.0502 2.31072 53.0502 2.83058C53.0502 3.35045 53.4716 3.77188 53.9915 3.77188Z" fill="white"/>
<path d="M57.5645 3.77188C58.0843 3.77188 58.5058 3.35045 58.5058 2.83058C58.5058 2.31072 58.0843 1.88928 57.5645 1.88928C57.0446 1.88928 56.6232 2.31072 56.6232 2.83058C56.6232 3.35045 57.0446 3.77188 57.5645 3.77188Z" fill="white"/>
<path d="M50.4091 3.77188C50.929 3.77188 51.3504 3.35045 51.3504 2.83058C51.3504 2.31072 50.929 1.88928 50.4091 1.88928C49.8893 1.88928 49.4678 2.31072 49.4678 2.83058C49.4678 3.35045 49.8893 3.77188 50.4091 3.77188Z" fill="white"/>
<path d="M62.5721 37.1541C63.4855 37.1541 64.2259 36.4136 64.2259 35.5003C64.2259 34.5869 63.4855 33.8464 62.5721 33.8464C61.6587 33.8464 60.9183 34.5869 60.9183 35.5003C60.9183 36.4136 61.6587 37.1541 62.5721 37.1541Z" fill="#E4E4E4"/>
<path d="M77.1809 32.8228C78.0943 32.8228 78.8348 32.0823 78.8348 31.169C78.8348 30.2556 78.0943 29.5151 77.1809 29.5151C76.2675 29.5151 75.5271 30.2556 75.5271 31.169C75.5271 32.0823 76.2675 32.8228 77.1809 32.8228Z" fill="#E4E4E4"/>
<path d="M91.7897 37.1541C92.7031 37.1541 93.4435 36.4136 93.4435 35.5003C93.4435 34.5869 92.7031 33.8464 91.7897 33.8464C90.8763 33.8464 90.1359 34.5869 90.1359 35.5003C90.1359 36.4136 90.8763 37.1541 91.7897 37.1541Z" fill="#E4E4E4"/>
<path d="M106.398 15.3067C107.312 15.3067 108.052 14.5662 108.052 13.6528C108.052 12.7395 107.312 11.999 106.398 11.999C105.485 11.999 104.745 12.7395 104.745 13.6528C104.745 14.5662 105.485 15.3067 106.398 15.3067Z" fill="#E4E4E4"/>
<path d="M121.007 15.1031C121.921 15.1031 122.661 14.3626 122.661 13.4492C122.661 12.5359 121.921 11.7954 121.007 11.7954C120.094 11.7954 119.353 12.5359 119.353 13.4492C119.353 14.3626 120.094 15.1031 121.007 15.1031Z" fill="#E4E4E4"/>
<path d="M91.8244 35.8708L77.1807 31.3211L62.7375 35.7209L62.4068 35.2797L77.1807 30.6324L91.7549 35.1299L106.237 13.4207L106.296 13.397L120.904 13.3713L121.11 13.8829L106.56 13.8851L91.8244 35.8708Z" fill="#E4E4E4"/>
<path d="M154.33 64.3618H66.3566V110.554H154.33V64.3618Z" fill="#F2F2F2"/>
<path d="M154.276 64.2904H66.3028V69.6454H154.276V64.2904Z" fill="#E6E6E6"/>
<path d="M152.683 71.5073H68.2115V108.202H152.683V71.5073Z" fill="white"/>
<path d="M74.6392 67.84C75.1285 67.84 75.5251 67.4434 75.5251 66.9542C75.5251 66.465 75.1285 66.0684 74.6392 66.0684C74.15 66.0684 73.7534 66.465 73.7534 66.9542C73.7534 67.4434 74.15 67.84 74.6392 67.84Z" fill="white"/>
<path d="M78.0017 67.84C78.4909 67.84 78.8875 67.4434 78.8875 66.9542C78.8875 66.465 78.4909 66.0684 78.0017 66.0684C77.5124 66.0684 77.1158 66.465 77.1158 66.9542C77.1158 67.4434 77.5124 67.84 78.0017 67.84Z" fill="white"/>
<path d="M71.2681 67.84C71.7574 67.84 72.154 67.4434 72.154 66.9542C72.154 66.465 71.7574 66.0684 71.2681 66.0684C70.7789 66.0684 70.3823 66.465 70.3823 66.9542C70.3823 67.4434 70.7789 67.84 71.2681 67.84Z" fill="white"/>
<path d="M213.058 20.2435H108.706V75.0357H213.058V20.2435Z" fill="#E6E6E6"/>
<path d="M212.994 20.1588H108.643V26.5107H212.994V20.1588Z" fill="white"/>
<path d="M210.548 28.4618H111.049V71.9778H210.548V28.4618Z" fill="white"/>
<path d="M118.531 24.3693C119.112 24.3693 119.582 23.8989 119.582 23.3186C119.582 22.7383 119.112 22.2678 118.531 22.2678C117.951 22.2678 117.48 22.7383 117.48 23.3186C117.48 23.8989 117.951 24.3693 118.531 24.3693Z" fill="white"/>
<path d="M122.52 24.3693C123.1 24.3693 123.57 23.8989 123.57 23.3186C123.57 22.7383 123.1 22.2678 122.52 22.2678C121.939 22.2678 121.469 22.7383 121.469 23.3186C121.469 23.8989 121.939 24.3693 122.52 24.3693Z" fill="white"/>
<path d="M114.532 24.3693C115.113 24.3693 115.583 23.8989 115.583 23.3186C115.583 22.7383 115.113 22.2678 114.532 22.2678C113.952 22.2678 113.482 22.7383 113.482 23.3186C113.482 23.8989 113.952 24.3693 114.532 24.3693Z" fill="white"/>
<path d="M161.509 37.9971C161.302 38.0245 161.112 38.1261 160.975 38.2831C160.837 38.44 160.761 38.6415 160.761 38.8501C160.761 39.0588 160.837 39.2603 160.975 39.4172C161.112 39.5741 161.302 39.6758 161.509 39.7032H196.742C196.949 39.6758 197.139 39.5741 197.276 39.4172C197.414 39.2603 197.49 39.0588 197.49 38.8501C197.49 38.6415 197.414 38.44 197.276 38.2831C197.139 38.1261 196.949 38.0245 196.742 37.9971H161.509Z" fill="#E6E6E6"/>
<path d="M161.509 58.1167C161.302 58.1441 161.112 58.2458 160.975 58.4027C160.837 58.5596 160.761 58.7611 160.761 58.9698C160.761 59.1784 160.837 59.3799 160.975 59.5368C161.112 59.6938 161.302 59.7954 161.509 59.8228H196.742C196.949 59.7954 197.139 59.6938 197.276 59.5368C197.414 59.3799 197.49 59.1784 197.49 58.9698C197.49 58.7611 197.414 58.5596 197.276 58.4027C197.139 58.2458 196.949 58.1441 196.742 58.1167H161.509Z" fill="#E6E6E6"/>
<path d="M161.509 43.1154C161.302 43.1428 161.112 43.2444 160.975 43.4013C160.837 43.5583 160.761 43.7598 160.761 43.9684C160.761 44.177 160.837 44.3786 160.975 44.5355C161.112 44.6924 161.302 44.794 161.509 44.8215H176.67C176.877 44.794 177.067 44.6924 177.204 44.5355C177.342 44.3786 177.417 44.177 177.417 43.9684C177.417 43.7598 177.342 43.5583 177.204 43.4013C177.067 43.2444 176.877 43.1428 176.67 43.1154H161.509Z" fill="#E6E6E6"/>
<path d="M161.509 47.9941C161.302 48.0216 161.112 48.1232 160.975 48.2801C160.837 48.437 160.761 48.6386 160.761 48.8472C160.761 49.0558 160.837 49.2574 160.975 49.4143C161.112 49.5712 161.302 49.6728 161.509 49.7003H196.742C196.949 49.6728 197.139 49.5712 197.276 49.4143C197.414 49.2574 197.49 49.0558 197.49 48.8472C197.49 48.6386 197.414 48.437 197.276 48.2801C197.139 48.1232 196.949 48.0216 196.742 47.9941H161.509Z" fill="#E6E6E6"/>
<path d="M161.509 53.1124C161.302 53.1399 161.112 53.2415 160.975 53.3984C160.837 53.5553 160.761 53.7569 160.761 53.9655C160.761 54.1741 160.837 54.3756 160.975 54.5326C161.112 54.6895 161.302 54.7911 161.509 54.8185H176.67C176.877 54.7911 177.067 54.6895 177.204 54.5326C177.342 54.3756 177.417 54.1741 177.417 53.9655C177.417 53.7569 177.342 53.5553 177.204 53.3984C177.067 53.2415 176.877 53.1399 176.67 53.1124H161.509Z" fill="#E6E6E6"/>
<path d="M140.975 58.8882C141.081 58.8885 141.187 58.8677 141.286 58.827C141.385 58.7863 141.474 58.7266 141.55 58.6512C141.626 58.5758 141.686 58.4863 141.726 58.3877C141.767 58.2891 141.788 58.1834 141.789 58.0767C141.789 57.9699 141.768 57.8642 141.727 57.7656C141.686 57.6669 141.626 57.5773 141.55 57.5019C141.475 57.4264 141.385 57.3666 141.287 57.3258C141.188 57.2851 141.082 57.2641 140.976 57.2643H124.503C124.396 57.264 124.291 57.2848 124.192 57.3255C124.093 57.3662 124.004 57.4259 123.928 57.5013C123.852 57.5767 123.792 57.6662 123.751 57.7648C123.711 57.8634 123.689 57.9691 123.689 58.0759C123.689 58.1826 123.71 58.2883 123.751 58.387C123.792 58.4856 123.852 58.5752 123.927 58.6506C124.003 58.7261 124.093 58.7859 124.191 58.8267C124.29 58.8675 124.396 58.8884 124.502 58.8882H140.975Z" fill="#E4E4E4"/>
<path d="M140.975 54.1043C141.19 54.1039 141.396 54.0182 141.548 53.866C141.7 53.7137 141.785 53.5074 141.785 53.2923C141.785 53.0772 141.7 52.8709 141.548 52.7187C141.396 52.5665 141.19 52.4807 140.975 52.4803H124.503C124.396 52.4801 124.291 52.5009 124.192 52.5416C124.093 52.5823 124.004 52.642 123.928 52.7174C123.852 52.7928 123.792 52.8823 123.751 52.9809C123.711 53.0795 123.689 53.1852 123.689 53.2919C123.689 53.3987 123.71 53.5044 123.751 53.603C123.792 53.7017 123.852 53.7913 123.927 53.8667C124.003 53.9422 124.093 54.002 124.191 54.0428C124.29 54.0835 124.396 54.1044 124.502 54.1043H140.975Z" fill="#E4E4E4"/>
<path d="M132.739 38.9316C133.75 38.9316 134.738 39.2314 135.578 39.793C136.419 40.3546 137.074 41.1528 137.461 42.0868C137.848 43.0207 137.949 44.0483 137.752 45.0398C137.555 46.0312 137.068 46.9419 136.353 47.6567C135.638 48.3715 134.728 48.8583 133.736 49.0555C132.745 49.2527 131.717 49.1515 130.783 48.7646C129.849 48.3778 129.051 47.7227 128.489 46.8822C127.928 46.0417 127.628 45.0535 127.628 44.0427C127.629 42.6876 128.168 41.3885 129.127 40.4303C130.085 39.4721 131.384 38.9332 132.739 38.9316Z" fill="white"/>
<path d="M91.4052 84.1319C92.5096 84.1319 93.4049 83.2366 93.4049 82.1322C93.4049 81.0278 92.5096 80.1324 91.4052 80.1324C90.3008 80.1324 89.4055 81.0278 89.4055 82.1322C89.4055 83.2366 90.3008 84.1319 91.4052 84.1319Z" fill="#E4E4E4"/>
<path d="M123.535 80.576C123.714 80.5758 123.89 80.6107 124.055 80.6787C124.22 80.7468 124.369 80.8466 124.495 80.9726C124.622 81.0985 124.722 81.2481 124.79 81.4128C124.858 81.5774 124.893 81.754 124.893 81.9322C124.893 82.1105 124.858 82.287 124.79 82.4516C124.722 82.6163 124.622 82.7659 124.495 82.8919C124.369 83.0178 124.22 83.1177 124.055 83.1857C123.89 83.2537 123.714 83.2886 123.535 83.2884H102.504C102.325 83.2886 102.149 83.2537 101.984 83.1857C101.819 83.1177 101.669 83.0178 101.543 82.8919C101.417 82.7659 101.317 82.6163 101.249 82.4516C101.181 82.287 101.145 82.1105 101.145 81.9322C101.145 81.754 101.181 81.5774 101.249 81.4128C101.317 81.2481 101.417 81.0985 101.543 80.9726C101.669 80.8466 101.819 80.7468 101.984 80.6787C102.149 80.6107 102.325 80.5758 102.504 80.576H123.535ZM123.535 80.2439H102.504C102.056 80.2439 101.626 80.4218 101.31 80.7384C100.993 81.055 100.815 81.4844 100.815 81.9322C100.815 82.38 100.993 82.8094 101.31 83.126C101.626 83.4427 102.056 83.6205 102.504 83.6205H123.535C123.983 83.6205 124.412 83.4427 124.729 83.126C125.046 82.8094 125.224 82.38 125.224 81.9322C125.224 81.4844 125.046 81.055 124.729 80.7384C124.412 80.4218 123.983 80.2439 123.535 80.2439Z" fill="#E4E4E4"/>
<path d="M115.237 83.6205H99.4041C98.9563 83.6205 98.5269 83.4426 98.2103 83.126C97.8936 82.8094 97.7158 82.38 97.7158 81.9322C97.7158 81.4844 97.8936 81.055 98.2103 80.7384C98.5269 80.4218 98.9563 80.2439 99.4041 80.2439H115.237C115.684 80.2439 116.114 80.4218 116.43 80.7384C116.747 81.055 116.925 81.4844 116.925 81.9322C116.925 82.38 116.747 82.8094 116.43 83.126C116.114 83.4426 115.684 83.6205 115.237 83.6205Z" fill="#E4E4E4"/>
<path d="M91.4052 92.4357C92.5096 92.4357 93.4049 91.5404 93.4049 90.436C93.4049 89.3316 92.5096 88.4363 91.4052 88.4363C90.3008 88.4363 89.4055 89.3316 89.4055 90.436C89.4055 91.5404 90.3008 92.4357 91.4052 92.4357Z" fill="#E4E4E4"/>
<path d="M123.535 88.8798C123.714 88.8795 123.89 88.9144 124.055 88.9824C124.22 89.0505 124.369 89.1503 124.495 89.2763C124.622 89.4022 124.722 89.5518 124.79 89.7165C124.858 89.8812 124.893 90.0577 124.893 90.2359C124.893 90.4142 124.858 90.5907 124.79 90.7554C124.722 90.92 124.622 91.0696 124.495 91.1956C124.369 91.3215 124.22 91.4214 124.055 91.4894C123.89 91.5575 123.714 91.5924 123.535 91.5921H102.504C102.325 91.5924 102.149 91.5575 101.984 91.4894C101.819 91.4214 101.669 91.3215 101.543 91.1956C101.417 91.0696 101.317 90.92 101.249 90.7554C101.181 90.5907 101.145 90.4142 101.145 90.2359C101.145 90.0577 101.181 89.8812 101.249 89.7165C101.317 89.5518 101.417 89.4022 101.543 89.2763C101.669 89.1503 101.819 89.0505 101.984 88.9824C102.149 88.9144 102.325 88.8795 102.504 88.8798H123.535ZM123.535 88.5476H102.504C102.056 88.5476 101.626 88.7255 101.31 89.0421C100.993 89.3587 100.815 89.7882 100.815 90.2359C100.815 90.6837 100.993 91.1131 101.31 91.4298C101.626 91.7464 102.056 91.9243 102.504 91.9243H123.535C123.983 91.9243 124.412 91.7464 124.729 91.4298C125.046 91.1131 125.224 90.6837 125.224 90.2359C125.224 89.7882 125.046 89.3587 124.729 89.0421C124.412 88.7255 123.983 88.5476 123.535 88.5476Z" fill="#E4E4E4"/>
<path d="M121.215 91.9242H99.4041C98.9563 91.9242 98.5269 91.7464 98.2102 91.4297C97.8936 91.1131 97.7158 90.6837 97.7158 90.2359C97.7158 89.7882 97.8936 89.3587 98.2102 89.0421C98.5269 88.7255 98.9563 88.5476 99.4041 88.5476H121.215C121.663 88.5482 122.092 88.7263 122.408 89.0429C122.724 89.3594 122.901 89.7885 122.901 90.2359C122.901 90.6833 122.724 91.1124 122.408 91.429C122.092 91.7455 121.663 91.9237 121.215 91.9242Z" fill="#E4E4E4"/>
<path d="M91.4052 100.739C92.5096 100.739 93.4049 99.8441 93.4049 98.7397C93.4049 97.6353 92.5096 96.74 91.4052 96.74C90.3008 96.74 89.4055 97.6353 89.4055 98.7397C89.4055 99.8441 90.3008 100.739 91.4052 100.739Z" fill="#E4E4E4"/>
<path d="M123.535 97.1836C123.895 97.1836 124.24 97.3265 124.494 97.5808C124.749 97.8351 124.891 98.1801 124.891 98.5398C124.891 98.8994 124.749 99.2444 124.494 99.4987C124.24 99.753 123.895 99.8959 123.535 99.8959H102.504C102.144 99.8959 101.799 99.753 101.545 99.4987C101.29 99.2444 101.147 98.8994 101.147 98.5398C101.147 98.1801 101.29 97.8351 101.545 97.5808C101.799 97.3265 102.144 97.1836 102.504 97.1836H123.535ZM123.535 96.8514H102.504C102.056 96.8514 101.626 97.0293 101.31 97.3459C100.993 97.6626 100.815 98.092 100.815 98.5398C100.815 98.9875 100.993 99.417 101.31 99.7336C101.626 100.05 102.056 100.228 102.504 100.228H123.535C123.983 100.228 124.412 100.05 124.729 99.7336C125.046 99.417 125.224 98.9875 125.224 98.5398C125.224 98.092 125.046 97.6626 124.729 97.3459C124.412 97.0293 123.983 96.8514 123.535 96.8514Z" fill="#E4E4E4"/>
<path d="M123.61 100.228H99.4041C98.9563 100.228 98.5269 100.05 98.2102 99.7336C97.8936 99.417 97.7158 98.9875 97.7158 98.5397C97.7158 98.092 97.8936 97.6626 98.2102 97.3459C98.5269 97.0293 98.9563 96.8514 99.4041 96.8514H123.61C124.058 96.8514 124.487 97.0293 124.804 97.3459C125.121 97.6626 125.299 98.092 125.299 98.5397C125.299 98.9875 125.121 99.417 124.804 99.7336C124.487 100.05 124.058 100.228 123.61 100.228Z" fill="#E4E4E4"/>
<path d="M186.545 120.438C186.789 120.147 186.967 119.806 187.065 119.439C187.163 119.072 187.18 118.688 187.114 118.314C187.048 117.94 186.901 117.585 186.682 117.274C186.464 116.963 186.18 116.704 185.851 116.514L187.578 107.443L183.149 109.289L182.188 117.62C181.906 118.194 181.845 118.852 182.016 119.468C182.187 120.085 182.578 120.617 183.115 120.964C183.652 121.311 184.298 121.45 184.93 121.353C185.562 121.256 186.137 120.93 186.545 120.438Z" fill="#FFB7B7"/>
<path d="M208.629 176.1L204.879 176.099L203.095 161.634L208.63 161.634L208.629 176.1Z" fill="#FFB7B7"/>
<path d="M209.586 179.735L197.493 179.735V179.582C197.493 178.333 197.989 177.136 198.872 176.254C199.754 175.371 200.952 174.875 202.2 174.875H202.2L209.586 174.875L209.586 179.735Z" fill="#2F2E41"/>
<path d="M188.133 176.1L184.383 176.099L182.599 161.634L188.134 161.634L188.133 176.1Z" fill="#FFB7B7"/>
<path d="M188.172 179.735L176.079 179.735V179.582C176.079 178.333 176.575 177.136 177.458 176.254C178.341 175.371 179.538 174.875 180.786 174.875H180.786L188.172 174.875L188.172 179.735Z" fill="#2F2E41"/>
<path d="M187.826 115.003L184.155 123.46L181.127 172.069L188.775 171.763L190.863 148.591L197.307 127.952L201.011 150.961L202.541 171.151L208.869 171.425L211.391 115.003H187.826Z" fill="#2F2E41"/>
<path d="M206.176 73.2717L195.536 73.5379L189.29 76.7446L188.947 100.403L185.051 116.737C185.051 116.737 209.393 118.412 212.758 115.965L208.781 97.3045L214.115 77.1378L206.176 73.2717Z" fill="#3F3D56"/>
<path d="M190.426 77.1143L189.29 76.7445C189.29 76.7445 185.685 79.0582 186.028 84.652C186.028 84.652 185.893 87.5466 186.022 89.473C186.17 91.6826 181.739 113.64 181.739 113.64H188.163L190.916 93.7558L190.426 77.1143Z" fill="#3F3D56"/>
<path d="M213.948 120.744C213.704 120.453 213.526 120.112 213.428 119.745C213.329 119.378 213.313 118.994 213.379 118.62C213.445 118.246 213.592 117.891 213.811 117.58C214.029 117.269 214.313 117.01 214.642 116.82L212.915 107.749L217.344 109.595L218.305 117.926C218.587 118.5 218.648 119.158 218.477 119.774C218.306 120.391 217.915 120.923 217.378 121.27C216.841 121.617 216.195 121.756 215.563 121.659C214.931 121.562 214.356 121.236 213.948 120.744Z" fill="#FFB7B7"/>
<path d="M212.514 77.4203L213.65 77.0504C213.65 77.0504 217.256 79.3641 216.913 84.9579C216.913 84.9579 217.048 87.8525 216.919 89.7789C216.771 91.9885 218.754 113.946 218.754 113.946H212.33L209.577 94.0617L212.514 77.4203Z" fill="#3F3D56"/>
<path d="M208.788 63.346C208.788 64.8047 208.355 66.2307 207.545 67.4436C206.734 68.6565 205.582 69.6018 204.235 70.16C202.887 70.7183 201.404 70.8643 199.973 70.5798C198.543 70.2952 197.228 69.5927 196.197 68.5612C195.165 67.5298 194.463 66.2156 194.178 64.7849C193.894 63.3542 194.04 61.8712 194.598 60.5235C195.156 59.1758 196.102 58.0239 197.315 57.2135C198.527 56.403 199.953 55.9705 201.412 55.9705C202.378 55.9681 203.335 56.156 204.229 56.5235C205.123 56.891 205.935 57.4309 206.62 58.1123C207.305 58.7938 207.849 59.6035 208.221 60.4952C208.593 61.3869 208.785 62.3431 208.788 63.3092C208.788 63.3215 208.788 63.3337 208.788 63.346Z" fill="#FFB7B7"/>
<path d="M194.061 53.4394C194.925 51.5815 196.597 51.9488 198.06 52.5786C199.911 52.1678 201.672 50.9381 203.668 51.6653C205.633 54.5238 212.231 53.6828 210.828 58.3364C210.826 59.4515 212.926 58.8024 212.559 60.6287C213.672 64.1433 208.544 70.7996 205.6 69.3979C206.328 68.0635 207.991 65.0327 205.468 64.7321C200.042 69.7813 204.908 55.1172 198.09 59.3817C195.832 61.4478 192.742 55.5059 194.061 53.4394Z" fill="#2F2E41"/>
</svg>
