<svg width="24" height="24" viewBox="0 0 24 24" fill="none" xmlns="http://www.w3.org/2000/svg">
<path fill-rule="evenodd" clip-rule="evenodd" d="M5.478 5.559C5.57233 5.25232 5.76252 4.98398 6.02062 4.79337C6.27872 4.60276 6.59114 4.49994 6.912 4.5H9C9.19891 4.5 9.38968 4.42098 9.53033 4.28033C9.67098 4.13968 9.75 3.94891 9.75 3.75C9.75 3.55109 9.67098 3.36032 9.53033 3.21967C9.38968 3.07902 9.19891 3 9 3H6.912C6.27029 2.99988 5.64544 3.20552 5.12924 3.58674C4.61303 3.96795 4.23266 4.50465 4.044 5.118L1.633 12.956C1.54496 13.2417 1.50013 13.539 1.5 13.838V18C1.5 18.7956 1.81607 19.5587 2.37868 20.1213C2.94129 20.6839 3.70435 21 4.5 21H19.5C20.2956 21 21.0587 20.6839 21.6213 20.1213C22.1839 19.5587 22.5 18.7956 22.5 18V13.838C22.5 13.539 22.455 13.242 22.367 12.956L19.955 5.118C19.7664 4.50481 19.3862 3.96823 18.8702 3.58703C18.3542 3.20583 17.7295 3.00009 17.088 3H15C14.8011 3 14.6103 3.07902 14.4697 3.21967C14.329 3.36032 14.25 3.55109 14.25 3.75C14.25 3.94891 14.329 4.13968 14.4697 4.28033C14.6103 4.42098 14.8011 4.5 15 4.5H17.088C17.4089 4.49994 17.7213 4.60276 17.9794 4.79337C18.2375 4.98398 18.4277 5.25232 18.522 5.559L20.735 12.75H17.89C17.3328 12.7498 16.7865 12.9049 16.3125 13.1977C15.8384 13.4906 15.4553 13.9096 15.206 14.408L14.95 14.921C14.8254 15.1702 14.6338 15.3797 14.3968 15.5261C14.1597 15.6726 13.8866 15.7501 13.608 15.75H10.39C10.1113 15.75 9.83809 15.6723 9.60104 15.5257C9.364 15.3791 9.17249 15.1694 9.048 14.92L8.792 14.408C8.54274 13.9096 8.1596 13.4906 7.68554 13.1977C7.21148 12.9049 6.66522 12.7498 6.108 12.75H3.265L5.478 5.559Z" fill="white"/>
<path fill-rule="evenodd" clip-rule="evenodd" d="M12 2.25C12.1989 2.25 12.3897 2.32902 12.5303 2.46967C12.671 2.61032 12.75 2.80109 12.75 3V9.44L14.47 7.72C14.5387 7.64631 14.6215 7.58721 14.7135 7.54622C14.8055 7.50523 14.9048 7.48319 15.0055 7.48141C15.1062 7.47963 15.2062 7.49816 15.2996 7.53588C15.393 7.5736 15.4778 7.62974 15.549 7.70096C15.6203 7.77218 15.6764 7.85701 15.7141 7.9504C15.7518 8.04379 15.7704 8.14382 15.7686 8.24452C15.7668 8.34522 15.7448 8.44454 15.7038 8.53654C15.6628 8.62854 15.6037 8.71134 15.53 8.78L12.53 11.78C12.3894 11.9205 12.1988 11.9993 12 11.9993C11.8012 11.9993 11.6106 11.9205 11.47 11.78L8.47 8.78C8.33752 8.63783 8.2654 8.44978 8.26882 8.25548C8.27225 8.06118 8.35097 7.87579 8.48838 7.73838C8.62579 7.60097 8.81118 7.52225 9.00548 7.51883C9.19978 7.5154 9.38782 7.58752 9.53 7.72L11.25 9.44V3C11.25 2.80109 11.329 2.61032 11.4697 2.46967C11.6103 2.32902 11.8011 2.25 12 2.25Z" fill="white"/>
</svg>
