<svg width="24" height="24" viewBox="0 0 24 24" fill="none" xmlns="http://www.w3.org/2000/svg">
<path d="M17.004 10.407C17.142 10.842 16.788 11.249 16.332 11.249H12.867C12.7353 11.2491 12.6058 11.2145 12.4917 11.1486C12.3776 11.0828 12.2829 10.9881 12.217 10.874L10.485 7.874C10.256 7.478 10.432 6.967 10.878 6.87C12.1562 6.59056 13.4927 6.79829 14.6258 7.45251C15.7589 8.10672 16.6069 9.16031 17.004 10.407ZM8.12 8.464C8.427 8.126 8.958 8.229 9.186 8.624L10.918 11.624C10.9838 11.738 11.0185 11.8673 11.0185 11.999C11.0185 12.1307 10.9838 12.26 10.918 12.374L9.186 15.374C8.957 15.771 8.42601 15.874 8.11901 15.535C7.23666 14.5693 6.74821 13.3081 6.75 12C6.74824 10.6914 7.23706 9.42977 8.12 8.464ZM10.878 17.13C10.431 17.032 10.255 16.522 10.484 16.126L12.217 13.124C12.2829 13.0099 12.3776 12.9152 12.4917 12.8494C12.6058 12.7835 12.7353 12.7489 12.867 12.749H16.332C16.789 12.749 17.142 13.156 17.004 13.591C16.6073 14.8381 15.7594 15.8921 14.6263 16.5467C13.4932 17.2013 12.1565 17.4093 10.878 17.13Z" fill="white"/>
<path fill-rule="evenodd" clip-rule="evenodd" d="M21 12.75C21.1989 12.75 21.3897 12.671 21.5303 12.5303C21.671 12.3897 21.75 12.1989 21.75 12C21.75 11.8011 21.671 11.6103 21.5303 11.4697C21.3897 11.329 21.1989 11.25 21 11.25H20.217C20.1761 10.7918 20.0968 10.3379 19.98 9.893L20.714 9.626C20.8066 9.59232 20.8916 9.54073 20.9643 9.47418C21.0369 9.40763 21.0957 9.32742 21.1374 9.23814C21.179 9.14885 21.2027 9.05224 21.207 8.95382C21.2113 8.85539 21.1962 8.75708 21.1625 8.6645C21.1288 8.57192 21.0772 8.48688 21.0107 8.41423C20.9441 8.34159 20.8639 8.28276 20.7746 8.24112C20.6854 8.19947 20.5887 8.17582 20.4903 8.17151C20.3919 8.1672 20.2936 8.18232 20.201 8.216L19.466 8.484C19.27 8.06814 19.0395 7.66942 18.777 7.292L19.377 6.789C19.4541 6.72624 19.518 6.64876 19.5649 6.56108C19.6118 6.47341 19.6408 6.37728 19.6502 6.27829C19.6596 6.1793 19.6493 6.07943 19.6197 5.98448C19.5902 5.88954 19.5421 5.80141 19.4782 5.72524C19.4143 5.64906 19.3358 5.58636 19.2475 5.54077C19.1591 5.49518 19.0625 5.46761 18.9634 5.45968C18.8643 5.45175 18.7646 5.46361 18.6701 5.49456C18.5756 5.52552 18.4882 5.57496 18.413 5.64L17.813 6.144C17.4868 5.82033 17.1342 5.52431 16.759 5.259L17.15 4.581C17.2 4.49567 17.2327 4.40129 17.2461 4.30329C17.2595 4.2053 17.2534 4.10561 17.2281 4.00999C17.2028 3.91437 17.1589 3.82469 17.0988 3.74612C17.0387 3.66754 16.9637 3.60163 16.878 3.55218C16.7923 3.50272 16.6978 3.4707 16.5997 3.45795C16.5016 3.4452 16.4019 3.45198 16.3065 3.47789C16.211 3.50381 16.1216 3.54835 16.0435 3.60895C15.9653 3.66955 15.8999 3.74502 15.851 3.831L15.461 4.507C15.0433 4.31423 14.6101 4.15701 14.166 4.037L14.302 3.267C14.3322 3.07298 14.2852 2.87485 14.1709 2.71515C14.0567 2.55546 13.8844 2.44693 13.691 2.41289C13.4976 2.37885 13.2986 2.422 13.1367 2.53309C12.9747 2.64417 12.8628 2.81432 12.825 3.007L12.689 3.777C12.2308 3.73913 11.7702 3.73913 11.312 3.777L11.176 3.007C11.1607 2.90846 11.1258 2.81396 11.0735 2.72905C11.0212 2.64414 10.9524 2.57052 10.8713 2.51249C10.7902 2.45446 10.6983 2.41319 10.6011 2.3911C10.5038 2.36901 10.4031 2.36653 10.3049 2.38382C10.2067 2.40111 10.1129 2.43782 10.029 2.4918C9.94518 2.54577 9.87293 2.61593 9.8165 2.69817C9.76008 2.78041 9.72063 2.87308 9.70045 2.97075C9.68028 3.06842 9.67979 3.16914 9.69901 3.267L9.83501 4.037C9.38701 4.158 8.95501 4.317 8.54101 4.507L8.15101 3.831C8.10176 3.74564 8.03619 3.67082 7.95802 3.6108C7.87986 3.55078 7.79064 3.50675 7.69546 3.48122C7.60028 3.45568 7.501 3.44914 7.4033 3.46197C7.30559 3.4748 7.21137 3.50675 7.12601 3.556C7.04065 3.60525 6.96582 3.67082 6.90581 3.74898C6.84579 3.82715 6.80176 3.91637 6.77622 4.01155C6.75069 4.10673 6.74415 4.206 6.75698 4.30371C6.76981 4.40142 6.80176 4.49564 6.85101 4.581L7.24301 5.259C6.86775 5.52428 6.5152 5.8203 6.18901 6.144L5.58901 5.64C5.43664 5.51203 5.23968 5.44983 5.04145 5.46709C4.84323 5.48434 4.65997 5.57963 4.53201 5.732C4.40404 5.88437 4.34184 6.08133 4.3591 6.27955C4.37635 6.47778 4.47164 6.66103 4.62401 6.789L5.22401 7.292C4.9615 7.66942 4.73103 8.06815 4.53501 8.484L3.80001 8.216C3.61303 8.14797 3.40669 8.15701 3.22637 8.24112C3.04605 8.32523 2.90654 8.47752 2.83851 8.6645C2.77048 8.85148 2.77951 9.05782 2.86362 9.23814C2.94773 9.41845 3.10003 9.55797 3.28701 9.626L4.02201 9.893C3.9049 10.3376 3.82529 10.7911 3.78401 11.249H3.00101C2.80209 11.249 2.61133 11.328 2.47068 11.4687C2.33002 11.6093 2.25101 11.8001 2.25101 11.999C2.25101 12.1979 2.33002 12.3887 2.47068 12.5293C2.61133 12.67 2.80209 12.749 3.00101 12.749H3.78401C3.82601 13.213 3.90601 13.666 4.02201 14.105L3.28701 14.373C3.10003 14.441 2.94773 14.5805 2.86362 14.7609C2.77951 14.9412 2.77048 15.1475 2.83851 15.3345C2.90654 15.5215 3.04605 15.6738 3.22637 15.7579C3.40669 15.842 3.61303 15.851 3.80001 15.783L4.53501 15.515C4.73201 15.932 4.96301 16.331 5.22501 16.706L4.62501 17.21C4.47424 17.3382 4.38026 17.5208 4.36357 17.7181C4.34687 17.9153 4.40881 18.1111 4.53588 18.2628C4.66295 18.4146 4.84485 18.5099 5.04193 18.5281C5.23901 18.5463 5.4353 18.4859 5.58801 18.36L6.18901 17.855C6.51501 18.178 6.86801 18.475 7.24301 18.74L6.85101 19.42C6.75155 19.5924 6.72465 19.7972 6.77622 19.9895C6.8278 20.1817 6.95362 20.3455 7.12601 20.445C7.2984 20.5445 7.50324 20.5714 7.69546 20.5198C7.88769 20.4682 8.05155 20.3424 8.15101 20.17L8.54101 19.491C8.95501 19.683 9.38801 19.841 9.83501 19.962L9.69901 20.732C9.6671 20.9267 9.7132 21.1261 9.8273 21.2871C9.94141 21.448 10.1143 21.5575 10.3086 21.5918C10.5029 21.6262 10.7029 21.5826 10.8652 21.4705C11.0276 21.3584 11.1393 21.1868 11.176 20.993L11.313 20.221C11.7709 20.2589 12.2311 20.2589 12.689 20.221L12.825 20.993C12.8404 21.0915 12.8752 21.186 12.9275 21.2709C12.9798 21.3559 13.0486 21.4295 13.1297 21.4875C13.2108 21.5455 13.3027 21.5868 13.3999 21.6089C13.4972 21.631 13.5979 21.6335 13.6961 21.6162C13.7943 21.5989 13.8881 21.5622 13.972 21.5082C14.0558 21.4542 14.1281 21.3841 14.1845 21.3018C14.2409 21.2196 14.2804 21.1269 14.3006 21.0292C14.3207 20.9316 14.3212 20.8309 14.302 20.733L14.166 19.962C14.6098 19.8419 15.0426 19.6847 15.46 19.492L15.851 20.169C15.9505 20.3414 16.1143 20.4672 16.3066 20.5188C16.4988 20.5704 16.7036 20.5435 16.876 20.444C17.0484 20.3445 17.1742 20.1807 17.2258 19.9885C17.2774 19.7962 17.2505 19.5914 17.151 19.419L16.758 18.74C17.1333 18.4747 17.4858 18.1787 17.812 17.855L18.413 18.359C18.5655 18.4868 18.7625 18.5489 18.9608 18.5314C19.159 18.514 19.3422 18.4185 19.47 18.266C19.5978 18.1135 19.6599 17.9165 19.6424 17.7182C19.625 17.52 19.5295 17.3368 19.377 17.209L18.777 16.706C19.038 16.331 19.269 15.932 19.467 15.515L20.202 15.782C20.2946 15.8156 20.3929 15.8307 20.4913 15.8263C20.5897 15.8219 20.6863 15.7982 20.7755 15.7565C20.8647 15.7148 20.9449 15.656 21.0114 15.5833C21.0779 15.5106 21.1294 15.4256 21.163 15.333C21.1966 15.2404 21.2117 15.1421 21.2073 15.0437C21.2029 14.9453 21.1792 14.8487 21.1375 14.7595C21.0958 14.6703 21.037 14.5901 20.9643 14.5236C20.8916 14.4571 20.8066 14.4056 20.714 14.372L19.98 14.105C20.095 13.666 20.175 13.213 20.217 12.749H21.001L21 12.75ZM18.343 9.69C18.0708 8.94071 17.6679 8.24562 17.153 7.637C16.6394 7.03099 16.0234 6.5199 15.333 6.127C14.3174 5.54925 13.1684 5.24693 12 5.25C11.5892 5.24959 11.1792 5.2864 10.775 5.36C10.0181 5.4989 9.29082 5.76716 8.62501 6.153C7.26709 6.93957 6.22385 8.17258 5.67301 9.642C5.66327 9.67545 5.65124 9.7082 5.63701 9.74C5.38021 10.4658 5.24966 11.2302 5.25101 12C5.24973 13.1836 5.56014 14.3466 6.15102 15.3721C6.7419 16.3977 7.59241 17.2495 8.61701 17.842L8.62601 17.847C9.30074 18.2377 10.0385 18.5078 10.806 18.645L10.828 18.648C11.6115 18.7853 12.413 18.784 13.196 18.644C13.973 18.5056 14.7195 18.231 15.401 17.833C16.0686 17.4424 16.6646 16.9405 17.163 16.349L17.172 16.339L17.181 16.329C17.6937 15.7157 18.0932 15.0162 18.361 14.263C18.614 13.556 18.751 12.794 18.751 12C18.751 11.2124 18.6129 10.4309 18.343 9.691V9.69Z" fill="white"/>
</svg>
