<svg width="280" height="281" viewBox="0 0 280 281" fill="none" xmlns="http://www.w3.org/2000/svg">
<path d="M43.848 148.676C43.848 148.676 229.824 137.252 240.352 148.06C250.88 158.868 267.288 233.572 264.096 237.212C260.904 240.852 36.848 230.94 23.072 229.988C9.29603 229.036 43.848 148.676 43.848 148.676Z" fill="#F2EBEB"/>
<g opacity="0.45">
<mask id="mask0_996_4244" style="mask-type:luminance" maskUnits="userSpaceOnUse" x="19" y="143" width="246" height="96">
<path d="M43.848 148.676C43.848 148.676 229.824 137.252 240.352 148.06C250.88 158.868 267.288 233.572 264.096 237.212C260.904 240.852 36.848 230.94 23.072 229.988C9.29603 229.036 43.848 148.676 43.848 148.676Z" fill="white"/>
</mask>
<g mask="url(#mask0_996_4244)">
<path d="M76.4884 111.198L30.101 250.86L32.7582 251.743L79.1456 112.08L76.4884 111.198Z" fill="#EA8383"/>
<path d="M102.154 113.77L86.5129 261.339L89.2972 261.634L104.939 114.065L102.154 113.77Z" fill="#EA8383"/>
<path d="M142.52 281.452H139.72C139.72 279.884 140.448 126.5 140.448 124.708H143.248C143.248 126.444 142.576 279.884 142.52 281.452Z" fill="#EA8383"/>
<path d="M169.592 123.925L166.875 124.599L198.996 254.124L201.713 253.45L169.592 123.925Z" fill="#EA8383"/>
<path d="M198.549 126.858L196.026 128.073L258.507 257.846L261.03 256.631L198.549 126.858Z" fill="#EA8383"/>
<path d="M273.672 215.484C271.096 215.316 14.672 199.468 -2.35199 201.54L-2.68799 198.74C14.616 196.668 263.312 212.012 273.84 212.684L273.672 215.484Z" fill="#EA8383"/>
<path d="M204.288 166.54C130.592 166.54 23.968 166.372 17.248 166.372V163.572C104.384 163.684 270.144 163.852 273.616 163.572L273.896 166.372C272.552 166.484 242.984 166.54 204.288 166.54Z" fill="#EA8383"/>
</g>
</g>
<path d="M197.68 115.916L190.96 127.452L187.712 121.516L173.768 133.276C173.768 133.276 185.136 144.868 193.704 145.54C202.272 146.212 206.08 119.052 206.08 119.052L197.68 115.916Z" fill="#A04040"/>
<path d="M130.536 142.404C130.536 142.404 88.368 144.812 87.584 156.908C86.8 169.004 99.456 172.644 126.728 173.26C154 173.876 194.656 178.524 200.536 163.964C206.416 149.404 180.768 142.404 158.816 142.404L159.208 138.148H129.584L130.536 142.404Z" fill="#8367C7"/>
<path d="M163.296 152.708C163.296 152.708 147.616 157.076 146.664 157.076C145.712 157.076 140.616 152.148 138.712 152.708C136.808 153.268 132.384 161.78 126.28 165.364C120.176 168.948 116.816 171.86 117.04 172.868C117.264 173.876 163.296 174.436 163.296 174.436V152.708Z" fill="#A04040"/>
<path d="M182.784 150.86C181.216 151.364 179.592 151.7 177.968 152.036C176.344 152.372 174.72 152.652 173.152 152.932C171.584 153.212 169.904 153.38 168.28 153.548C166.656 153.716 165.032 153.828 163.352 153.884C164.92 153.38 166.544 153.044 168.168 152.708C169.792 152.372 171.416 152.092 172.984 151.812C174.552 151.532 176.232 151.364 177.856 151.196C179.48 151.028 181.104 150.86 182.784 150.86Z" fill="#000001"/>
<path d="M106.624 150.86C108.248 151.084 109.816 151.252 111.384 151.476C112.952 151.7 114.52 151.98 116.088 152.316C117.656 152.652 119.224 152.932 120.792 153.38C122.36 153.828 123.928 154.164 125.44 154.724C123.816 154.668 122.248 154.5 120.624 154.276C119 154.052 117.432 153.772 115.864 153.492C114.296 153.212 112.728 152.82 111.16 152.428C110.376 152.204 109.592 152.036 108.864 151.812C108.136 151.476 107.352 151.196 106.624 150.86Z" fill="#000001"/>
<path d="M129.36 99.564C132.664 95.756 157.472 95.196 167.944 99.564C167.944 99.564 173.936 113.172 159.208 138.148H129.584C129.528 138.148 123.648 106.228 129.36 99.564Z" fill="#000001"/>
<path d="M141.008 76.436C141.008 76.436 136.36 85.34 136.696 85.564C137.032 85.788 138.208 85.676 138.208 85.676C138.208 85.676 135.576 92.004 135.52 101.244C135.52 101.244 145.264 102.14 150.472 98.948C150.472 98.948 154.728 75.708 152.936 74.588C151.144 73.468 141.008 76.436 141.008 76.436Z" fill="#A04040"/>
<path d="M150.864 80.804C150.864 80.804 148.848 85.228 149.184 86.18C149.52 87.132 152.768 85.284 152.768 85.284C152.768 85.284 155.568 74.756 154.728 73.244C153.888 71.732 130.648 75.372 132.328 76.548C134.008 77.724 141.12 76.38 141.12 76.38L148.064 77.276C148.008 77.332 149.016 79.964 150.864 80.804Z" fill="#000001"/>
<path d="M152.488 85.396C152.488 85.396 156.24 84.556 155.792 81.308C155.344 78.06 151.312 83.492 151.312 83.492L152.488 85.396Z" fill="#A04040"/>
<path d="M146.552 82.596C146.552 82.596 143.248 81.532 142.184 84.388C142.128 84.612 142.184 84.836 142.408 84.892H142.464C143.416 85.116 145.936 85.284 146.552 82.596Z" fill="#F2EBEB"/>
<path d="M146.72 82.596C146.216 82.596 145.768 82.596 145.32 82.652C144.872 82.708 144.424 82.764 143.976 82.932C143.136 83.212 142.408 83.884 142.072 84.724C142.072 84.22 142.24 83.716 142.52 83.324C142.856 82.932 143.304 82.596 143.752 82.428C144.256 82.26 144.76 82.204 145.264 82.26C145.768 82.204 146.272 82.316 146.72 82.596Z" fill="#000001"/>
<path d="M143.36 82.82C143.36 82.82 144.312 83.044 144.032 84.948C144.032 84.948 141.848 85.228 142.072 84.556C142.072 84.556 142.632 82.876 143.36 82.82Z" fill="#000001"/>
<path d="M145.04 86.964C145.096 87.188 145.096 87.468 144.984 87.636C144.872 87.86 144.648 88.028 144.424 88.14C144.2 88.252 143.92 88.252 143.696 88.196C143.472 88.14 143.248 88.028 143.08 87.86C143.304 87.804 143.528 87.748 143.696 87.748C143.864 87.692 144.032 87.692 144.2 87.636C144.536 87.468 144.816 87.244 145.04 86.964Z" fill="#000001"/>
<path d="M147.112 80.916C146.664 80.916 146.216 80.916 145.768 80.86C145.376 80.804 144.984 80.748 144.592 80.692C144.2 80.636 143.808 80.524 143.416 80.468C142.968 80.356 142.576 80.244 142.184 80.076C142.968 79.628 143.92 79.46 144.816 79.628C145.264 79.684 145.712 79.852 146.104 80.076C146.496 80.244 146.832 80.524 147.112 80.916Z" fill="#000001"/>
<path d="M167.944 99.564C167.944 99.564 187.768 120.732 187.768 121.516C187.768 122.3 178.024 137.084 178.024 137.084L159.88 122.02L167.944 99.564Z" fill="#000001"/>
<path d="M202.664 114.628C202.664 114.628 203.784 110.708 203.784 109.196C203.784 107.684 203.224 106.9 201.824 109.196C200.424 111.492 197.96 115.188 197.68 115.916C197.4 116.644 196.504 122.244 198.464 122.524C200.424 122.804 205.576 120.172 202.776 114.124" fill="#A04040"/>
<path d="M201.824 122.3C202.104 121.572 202.328 120.844 202.552 120.116C202.776 119.444 202.888 118.716 203 117.988C203.112 117.26 203.112 116.588 203.056 115.86C203 115.132 202.832 114.348 202.664 113.62C203.28 114.18 203.672 114.908 203.896 115.636C204.176 116.42 204.232 117.26 204.12 118.1C204.008 118.884 203.784 119.668 203.392 120.396C203 121.18 202.44 121.796 201.824 122.3Z" fill="#000001"/>
<path d="M195.048 121.292C195.048 121.292 206.248 120.452 207.536 118.436C208.824 116.42 199.64 103.932 198.52 104.94C197.4 105.948 193.984 120.284 195.048 121.292Z" fill="#8367C7"/>
<path d="M204.904 111.716C204.904 111.716 207.648 113.172 207.648 114.18C207.648 115.188 204.4 117.652 203.616 117.036C202.832 116.42 205.072 114.18 205.072 114.18L204.904 111.716Z" fill="#A04040"/>
<path d="M205.576 113.676C205.576 113.676 208.32 115.132 208.32 116.14C208.32 117.148 205.072 119.612 204.288 118.996C203.504 118.38 205.744 116.14 205.744 116.14L205.576 113.676Z" fill="#A04040"/>
<path d="M205.576 115.636C205.576 115.636 208.32 117.092 208.32 118.1C208.32 119.108 205.072 121.572 204.288 120.956C203.504 120.34 205.744 118.1 205.744 118.1L205.576 115.636Z" fill="#A04040"/>
<path d="M207.48 113.676C207.704 113.844 207.928 114.124 207.984 114.46C208.04 114.628 208.04 114.852 207.984 115.02C207.928 115.188 207.816 115.356 207.704 115.524C207.312 115.916 206.864 116.308 206.416 116.588C205.968 116.924 205.408 117.148 204.848 117.316C204.512 117.428 204.232 117.428 203.896 117.372C203.728 117.316 203.504 117.26 203.392 117.092C203.28 116.924 203.28 116.756 203.336 116.588C203.392 116.7 203.504 116.812 203.616 116.812C203.728 116.812 203.784 116.812 203.896 116.756C204.12 116.644 204.288 116.532 204.512 116.42L205.8 115.58C206.248 115.3 206.696 115.02 207.144 114.74C207.312 114.684 207.424 114.516 207.48 114.348C207.48 114.18 207.48 113.9 207.48 113.676Z" fill="#000001"/>
<path d="M208.152 115.636C208.376 115.804 208.6 116.084 208.656 116.42C208.712 116.588 208.656 116.812 208.656 116.98C208.6 117.148 208.488 117.316 208.376 117.484C207.984 117.876 207.536 118.268 207.088 118.548C206.64 118.884 206.08 119.108 205.52 119.276C205.184 119.388 204.904 119.388 204.568 119.332C204.4 119.276 204.176 119.22 204.064 119.052C203.952 118.884 203.952 118.716 204.008 118.548C204.064 118.66 204.176 118.772 204.288 118.772C204.4 118.772 204.456 118.772 204.568 118.716C204.792 118.604 204.96 118.492 205.184 118.38L206.472 117.54C206.92 117.26 207.368 116.98 207.816 116.7C207.984 116.644 208.096 116.476 208.152 116.308C208.152 116.14 208.152 115.86 208.152 115.636Z" fill="#000001"/>
<path d="M157.304 118.324C159.208 119.724 161 121.18 162.792 122.692C164.584 124.204 166.32 125.716 168.056 127.284C169.792 128.852 171.472 130.42 173.152 132.044C174.832 133.668 176.456 135.348 178.024 137.084C176.12 135.684 174.328 134.228 172.536 132.716C170.744 131.204 169.008 129.692 167.272 128.124C165.536 126.556 163.856 124.988 162.176 123.364C160.496 121.74 158.816 120.06 157.304 118.324Z" fill="#000001"/>
<path d="M108.752 60.084C108.752 60.084 113.064 44.124 114.8 43.956C115.976 43.9 117.152 44.18 118.16 44.74C118.16 44.74 122.808 45.524 123.032 45.748C123.256 45.972 126.84 49.556 126.84 50.452C126.84 51.348 124.544 52.972 124.544 52.972C124.544 52.972 125.608 55.044 125.496 55.828C125.384 56.612 122.528 59.916 121.632 59.972C120.736 60.028 120.232 63.332 120.232 63.332L108.752 60.084Z" fill="#A04040"/>
<path d="M118.552 57.06C118.608 55.828 118.552 54.596 118.272 53.42C118.16 52.86 117.936 52.356 117.656 51.852C117.376 51.404 116.984 50.956 116.592 50.62L117.376 49.836C117.824 50.34 118.496 50.788 118.776 50.62C119 50.508 119.168 50.284 119.28 50.06C119.448 49.78 119.616 49.388 119.728 49.052C120.064 48.38 120.288 47.652 120.4 46.924C120.456 46.588 120.512 46.196 120.456 45.86C120.4 45.468 120.12 45.188 119.784 45.076L120.064 45.132C120.176 45.188 120.288 45.188 120.344 45.244C120.512 45.356 120.68 45.524 120.792 45.748C120.96 46.14 121.072 46.588 121.016 46.98C121.016 47.82 120.848 48.604 120.568 49.388C120.456 49.78 120.288 50.172 120.12 50.564C119.952 51.068 119.56 51.46 119.056 51.684C118.776 51.796 118.496 51.796 118.16 51.74C117.88 51.684 117.656 51.572 117.432 51.46C117.04 51.236 116.704 50.9 116.424 50.564L117.208 49.78C117.768 50.228 118.216 50.788 118.496 51.404C118.776 52.02 119 52.636 119.056 53.308C119.112 53.924 119.112 54.596 119 55.212C118.944 55.828 118.776 56.444 118.552 57.06Z" fill="#000001"/>
<path d="M117.32 47.092C117.432 47.372 117.432 47.708 117.432 47.988C117.432 48.268 117.376 48.492 117.32 48.772C117.264 48.996 117.208 49.22 117.096 49.444C117.04 49.556 116.984 49.668 116.928 49.78C116.872 49.892 116.816 50.06 116.816 50.172C116.648 50.172 116.48 50.06 116.368 49.892C116.256 49.724 116.2 49.612 116.144 49.444C116.088 49.164 116.088 48.828 116.144 48.548C116.2 48.268 116.312 47.988 116.48 47.764C116.76 47.484 117.04 47.26 117.32 47.092Z" fill="#000001"/>
<path d="M119.504 51.852C119.784 52.02 120.064 52.076 120.4 52.076C120.624 52.076 120.848 52.02 121.016 51.852C121.408 51.46 121.688 51.012 121.856 50.508C122.36 49.332 122.976 48.212 123.648 47.148C123.704 47.82 123.648 48.492 123.536 49.164C123.424 49.836 123.2 50.452 122.92 51.068C122.752 51.404 122.584 51.684 122.36 51.964C122.136 52.3 121.8 52.524 121.464 52.692C121.072 52.86 120.624 52.86 120.232 52.692C119.896 52.468 119.672 52.188 119.504 51.852Z" fill="#000001"/>
<path d="M122.304 52.86C122.696 52.972 123.088 52.916 123.48 52.692C123.704 52.468 123.872 52.132 123.984 51.852C124.152 51.46 124.376 51.068 124.6 50.676C124.824 50.228 125.104 49.836 125.384 49.5C125.496 50.004 125.496 50.508 125.44 51.012C125.384 51.516 125.216 51.964 124.992 52.412C124.88 52.636 124.768 52.86 124.6 53.084C124.376 53.364 124.096 53.532 123.816 53.588C123.2 53.644 122.64 53.364 122.304 52.86Z" fill="#000001"/>
<path d="M108.752 60.084C108.752 60.084 94.696 93.46 95.648 97.436C96.6 101.412 116.032 110.652 116.032 110.652L123.2 93.292L116.032 89.596L120.232 63.388C120.232 63.388 110.152 56.78 108.752 60.084Z" fill="#A04040"/>
<path d="M116.032 110.652L123.2 93.292L135.576 97.268L130.536 116.924L116.032 110.652Z" fill="#000001"/>
<path d="M158.032 61.54C158.2 62.268 158.256 62.996 158.088 63.724C157.976 64.396 157.808 65.124 157.584 65.796C157.36 66.468 157.08 67.084 156.744 67.756C156.464 68.372 156.072 68.988 155.624 69.548C155.68 68.82 155.792 68.148 155.96 67.42C156.128 66.748 156.296 66.076 156.52 65.404C156.744 64.732 156.968 64.116 157.248 63.444C157.528 62.772 157.808 62.212 158.032 61.54Z" fill="#8367C7"/>
<path d="M165.704 65.684C165.536 66.076 165.312 66.468 165.032 66.804C164.752 67.14 164.472 67.476 164.192 67.756C163.632 68.372 163.016 68.988 162.4 69.492C161.784 70.052 161.112 70.556 160.44 71.004C159.768 71.508 158.984 71.9 158.256 72.292C158.76 71.62 159.32 70.948 159.88 70.332C160.44 69.716 161.056 69.156 161.672 68.596C162.288 68.036 162.96 67.532 163.632 67.028C163.968 66.804 164.304 66.524 164.64 66.3C165.032 66.188 165.368 65.964 165.704 65.684Z" fill="#8367C7"/>
<path d="M160.832 75.316C161.112 74.924 161.392 74.588 161.784 74.308C162.12 74.028 162.512 73.804 162.848 73.58C163.24 73.356 163.632 73.188 164.024 73.076C164.472 72.964 164.92 72.852 165.368 72.852C165.088 73.244 164.808 73.58 164.416 73.86C164.08 74.14 163.688 74.364 163.352 74.588C162.96 74.812 162.568 74.98 162.176 75.092C161.728 75.204 161.28 75.316 160.832 75.316Z" fill="#8367C7"/>
<path d="M199.752 156.852C199.752 156.852 189.504 159.204 187.768 157.748C186.032 156.292 190.792 142.572 192.08 143.188C193.368 143.804 200.424 155.676 199.752 156.852Z" fill="#000001"/>
<path d="M213.136 179.42C213.136 179.42 206.864 190.06 200.424 188.604C193.984 187.148 195.384 168.612 193.592 166.372C191.8 164.132 187.6 160.156 187.04 157.244C186.48 154.332 186.2 150.86 187.376 151.532C188.552 152.204 188.72 156.124 190.008 157.804C190.008 157.804 193.2 151.252 194.656 151.42C196.112 151.588 193.536 157.356 193.536 157.356C193.536 157.356 196 153.828 196.728 154.612C197.456 155.396 196.504 157.468 196.504 157.468L197.848 157.188C197.848 157.188 200.256 161.332 199.752 163.628C199.248 165.924 205.016 174.66 205.016 174.66L213.136 179.42Z" fill="#EA8383"/>
<path d="M233.352 215.82C233.352 215.82 243.04 219.852 240.856 221.588C238.672 223.324 230.16 221.476 230.16 221.476C230.16 221.476 223.664 217.444 233.352 215.82Z" fill="#A04040"/>
<path d="M207.592 217.444C207.592 217.444 220.808 220.692 226.184 221.14C231.56 221.588 234.584 222.092 234.472 220.692C234.36 219.292 220.08 214.644 220.08 214.644L212.184 208.82L207.592 217.444Z" fill="#A04040"/>
<path d="M222.376 206.356C222.376 206.356 195.72 189.444 187.656 193.644C179.592 197.844 182.168 205.012 188.776 209.996C195.384 214.98 207.144 218.116 207.144 218.116L212.52 209.1L220.08 214.588L225.736 209.996L232.68 218.116L240.8 216.044C240.8 216.044 245.672 215.764 250.768 207.868C255.864 199.972 254.576 190.732 248.08 190.732C241.584 190.732 226.016 206.748 226.016 206.748L222.376 206.356Z" fill="#8367C7"/>
<path d="M251.104 203.388C250.6 205.404 249.76 207.364 248.584 209.1C247.408 210.892 246.008 212.46 244.384 213.804L243.768 214.308L243.096 214.756C242.648 215.036 242.256 215.372 241.752 215.596C240.856 216.1 239.848 216.548 238.896 216.94L238.168 217.22C237.944 217.332 237.664 217.388 237.44 217.444L235.928 217.78C235.424 217.892 234.92 217.948 234.36 218.004C233.856 218.06 233.296 218.116 232.792 218.116C233.296 217.948 233.8 217.836 234.304 217.668C234.808 217.556 235.312 217.388 235.76 217.22C236.712 216.884 237.664 216.548 238.616 216.1C240.464 215.26 242.2 214.196 243.712 212.908C245.28 211.62 246.68 210.164 247.912 208.596C249.144 206.972 250.208 205.236 251.104 203.388Z" fill="#000001"/>
<path d="M194.936 226.516C195.216 226.572 200.984 226.348 203.168 225.676C206.192 224.78 213.976 217.5 213.976 217.5C213.976 217.5 211.176 215.596 210.056 215.372C208.936 215.148 205.296 219.572 200.872 222.036C196.056 224.78 190.624 225.228 194.936 226.516Z" fill="#EA8383"/>
<path d="M201.432 225.9C201.656 226.348 207.592 224.332 217.056 221.588C222.208 220.132 227.472 218.956 232.736 218.116L225.792 209.996C225.792 209.996 219.408 215.764 213.136 216.884C206.864 218.004 200.592 224.164 201.432 225.9Z" fill="#EA8383"/>
<path d="M235.648 180.092C235.648 180.092 246.344 177.628 246.344 175.5C246.344 173.372 234.416 150.524 223.384 154.108C216.496 156.348 210.84 162.9 205.016 174.716L209.44 177.348C209.44 177.348 209.048 180.708 209.048 182.78C209.048 184.852 215.6 188.772 215.6 188.772L211.064 200.98C211.064 200.98 220.976 208.148 227.136 206.58C233.296 205.012 238.112 195.772 238.112 195.772L235.648 180.092Z" fill="#000001"/>
<path d="M221.256 213.58C221.256 213.58 213.472 218.172 214.536 216.1C214.536 216.1 211.512 217.108 213.752 213.58C213.752 213.58 211.008 215.372 214.032 210.948C214.032 210.948 214.088 207.588 214.984 206.748C215.88 205.908 222.432 206.356 222.432 206.356C222.432 206.356 235.088 191.348 235.76 190.06C236.432 188.772 235.704 180.036 235.704 180.036L245.84 176.34C245.84 176.34 247.912 192.412 245.84 195.38C243.768 198.348 227.864 208.54 226.688 209.38C225.512 210.22 221.256 213.58 221.256 213.58Z" fill="#EA8383"/>
<path d="M220.08 210.78C219.632 211.284 219.184 211.788 218.68 212.236C218.176 212.684 217.728 213.076 217.224 213.524L215.768 214.7C215.544 214.868 215.264 215.092 215.096 215.316C214.872 215.54 214.648 215.764 214.536 216.1C214.424 215.764 214.48 215.372 214.648 215.036C214.76 214.7 214.928 214.42 215.152 214.14C215.544 213.58 216.048 213.076 216.552 212.684C217.056 212.236 217.616 211.9 218.232 211.564C218.848 211.172 219.464 210.948 220.08 210.78Z" fill="#000001"/>
<path d="M218.232 209.1C217.84 209.604 217.392 210.108 216.944 210.556C216.496 211.004 216.048 211.452 215.6 211.844C215.152 212.236 214.704 212.684 214.256 213.076C213.808 213.468 213.416 213.972 213.192 214.532C213.136 214.364 213.08 214.196 213.08 214.028C213.08 213.86 213.08 213.636 213.136 213.468C213.192 213.3 213.248 213.132 213.304 212.964C213.36 212.796 213.472 212.628 213.528 212.516C213.864 211.956 214.312 211.396 214.816 210.948C215.32 210.5 215.824 210.108 216.44 209.772C217 209.492 217.616 209.268 218.232 209.1Z" fill="#000001"/>
<path d="M217.336 207.364C217.056 207.924 216.776 208.428 216.384 208.876C216.048 209.324 215.656 209.772 215.32 210.22C214.984 210.668 214.536 211.06 214.144 211.452L212.912 212.684C212.968 212.068 213.136 211.452 213.416 210.948C213.696 210.444 214.032 209.94 214.48 209.492C214.872 209.044 215.32 208.652 215.768 208.26C216.216 207.868 216.776 207.588 217.336 207.364Z" fill="#000001"/>
<path d="M192.192 195.492C194.04 196.444 195.776 197.452 197.512 198.516C199.248 199.58 200.984 200.7 202.664 201.82C204.344 202.94 206.024 204.116 207.704 205.292C209.384 206.468 211.008 207.7 212.576 209.044C210.728 208.092 208.992 207.084 207.256 206.02C205.52 204.956 203.784 203.836 202.104 202.716C200.424 201.596 198.744 200.42 197.064 199.244C195.384 198.068 193.76 196.836 192.192 195.492Z" fill="#000001"/>
<path d="M205.016 174.66C204.456 174.156 203.896 173.596 203.392 172.98C202.888 172.364 202.496 171.748 202.048 171.132C201.656 170.46 201.264 169.844 200.928 169.116C200.592 168.444 200.256 167.716 200.088 166.932C200.648 167.436 201.208 167.996 201.712 168.612C202.216 169.228 202.608 169.844 203.056 170.46C203.448 171.132 203.84 171.804 204.176 172.476C204.512 173.204 204.848 173.932 205.016 174.66Z" fill="#000001"/>
<path d="M198.24 163.124C197.68 162.9 197.12 162.564 196.616 162.284C196.112 161.948 195.608 161.612 195.104 161.276L194.824 161.052L194.936 160.66C195.272 159.708 195.608 158.756 196 157.804C196.168 157.356 196.336 156.852 196.56 156.404C196.784 155.956 196.84 155.452 196.84 154.948C197.008 155.172 197.12 155.452 197.12 155.732C197.176 156.012 197.176 156.292 197.176 156.572C197.176 157.076 197.064 157.636 196.952 158.14C196.728 159.148 196.392 160.156 195.944 161.108L195.776 160.492C196.224 160.884 196.672 161.332 197.064 161.78C197.512 162.172 197.904 162.62 198.24 163.124Z" fill="#000001"/>
<path d="M193.592 162.116C193.088 162.06 192.64 161.724 192.36 161.22C192.136 160.716 192.024 160.156 192.192 159.596C192.416 158.644 192.752 157.748 193.144 156.852C193.48 155.956 193.928 155.116 194.32 154.276C194.488 153.828 194.712 153.436 194.88 152.988C194.992 152.764 195.048 152.54 195.104 152.372C195.16 152.148 195.216 151.924 195.16 151.7C195.328 151.868 195.44 152.148 195.44 152.372C195.44 152.596 195.44 152.876 195.44 153.1C195.384 153.604 195.272 154.052 195.16 154.556C194.88 155.452 194.6 156.404 194.208 157.244C193.872 158.084 193.424 158.98 193.088 159.764C192.92 160.156 192.864 160.548 192.976 160.94C192.976 161.5 193.2 161.892 193.592 162.116Z" fill="#000001"/>
<path d="M214.536 216.604C215.6 216.156 216.608 215.652 217.616 215.148C218.624 214.7 219.576 214.14 220.528 213.524C220.92 213.244 221.424 212.796 221.872 212.46L223.272 211.452L226.072 209.492C227.976 208.204 229.88 206.972 231.784 205.74C233.688 204.508 235.648 203.388 237.664 202.268C235.928 203.724 234.08 205.124 232.232 206.468C230.384 207.812 228.536 209.1 226.632 210.388L220.976 214.196C219.968 214.756 218.904 215.26 217.784 215.652C216.776 216.044 215.656 216.324 214.536 216.604Z" fill="#000001"/>
<path d="M231.28 165.42C232.288 167.268 233.128 169.228 233.856 171.244C234.584 173.26 235.2 175.276 235.648 177.404C236.096 179.476 236.376 181.604 236.488 183.788C236.6 185.916 236.32 188.044 235.76 190.116C235.928 188.044 235.872 185.916 235.648 183.844C235.592 183.34 235.536 182.78 235.48 182.276L235.2 180.708C235.144 180.204 235.032 179.7 234.92 179.14C234.808 178.58 234.752 178.132 234.584 177.628C234.136 175.556 233.632 173.54 233.072 171.524C232.512 169.508 231.896 167.436 231.28 165.42Z" fill="#000001"/>
<path d="M213.136 163.124C212.688 165.476 212.24 167.828 211.736 170.18C211.232 172.532 210.728 174.884 210.28 177.18C210 178.356 209.832 179.476 209.72 180.652C209.608 181.156 209.664 181.716 209.888 182.22L210.056 182.612L210.28 182.948C210.448 183.172 210.56 183.452 210.728 183.676C211.456 184.628 212.24 185.468 213.08 186.308C213.92 187.148 214.816 187.932 215.768 188.716C214.704 188.1 213.696 187.428 212.744 186.7C211.736 185.972 210.84 185.132 210.056 184.18C209.608 183.676 209.272 183.172 208.992 182.556C208.936 182.388 208.88 182.22 208.824 182.052C208.768 181.884 208.712 181.716 208.712 181.548C208.712 181.212 208.712 180.876 208.712 180.54C208.824 179.308 208.992 178.132 209.216 176.9C209.72 174.548 210.28 172.196 210.952 169.9C211.624 167.604 212.296 165.364 213.136 163.124Z" fill="#000001"/>
<path d="M220.92 163.908C220.528 164.3 219.856 164.356 219.464 163.964C219.24 163.74 219.128 163.46 219.128 163.18C219.352 158.98 220.36 146.548 217.84 146.324C213.08 145.932 210.336 139.94 210.336 139.94C210.336 139.94 206.304 138.764 206.192 137.868C206.08 136.972 209.216 135.068 211.176 132.828C213.136 130.588 214.424 127.62 217 128.068C219.576 128.516 216.72 131.988 218.568 134.844C219.688 136.58 221.928 136.412 221.928 136.412C221.928 136.412 222.264 133.388 225.4 135.404C228.536 137.42 223.832 140.948 224.168 141.676C224.896 143.3 226.464 154.332 227.08 156.404C227.248 156.796 222.88 161.836 220.92 163.908Z" fill="#EA8383"/>
<path d="M217.448 135.628C217.448 135.628 213.472 133.892 211.904 136.748C211.904 136.748 216.048 138.484 217.448 135.628Z" fill="#F2EBEB"/>
<path d="M217.672 135.628C216.664 135.46 215.6 135.348 214.536 135.404C214.032 135.46 213.528 135.516 213.08 135.74C212.576 135.908 212.184 136.244 211.848 136.636C212.016 136.076 212.352 135.628 212.856 135.348C213.36 135.068 213.92 134.9 214.48 134.844C215.04 134.788 215.6 134.844 216.16 135.012C216.72 135.124 217.224 135.348 217.672 135.628Z" fill="#000001"/>
<path d="M217.448 137.252C217.336 137.252 217.28 137.196 217.168 137.196C217.112 137.196 217.056 137.14 217 137.14C216.944 137.084 216.944 137.028 216.888 136.972C216.832 136.86 216.832 136.804 216.832 136.692C217 136.524 217.28 136.58 217.392 136.748C217.448 136.804 217.448 136.86 217.504 136.916C217.56 137.084 217.504 137.196 217.448 137.252Z" fill="#000001"/>
<path d="M216.328 137.756C216.16 137.756 215.992 137.644 215.88 137.532C215.824 137.42 215.824 137.364 215.768 137.084C215.88 137.028 215.992 136.972 216.104 137.028C216.216 137.028 216.272 137.084 216.328 137.196C216.496 137.364 216.496 137.588 216.328 137.756Z" fill="#000001"/>
<path d="M214.48 135.124C214.48 135.124 215.04 136.3 214.256 137.028C213.472 137.756 211.68 137.14 212.072 136.3C212.464 135.46 213.864 134.956 214.48 135.124Z" fill="#000001"/>
<path d="M216.104 141.956C215.712 141.564 215.096 141.508 214.648 141.788C213.92 142.348 215.432 144.196 216.664 143.748C217.896 143.3 216.104 141.956 216.104 141.956Z" fill="#A04040"/>
<path d="M216.16 140.78C216.496 141.452 216.44 142.236 215.936 142.796C215.712 143.076 215.376 143.3 215.04 143.412C214.872 143.468 214.704 143.524 214.536 143.524C214.368 143.524 214.2 143.524 214.032 143.524C214.2 143.412 214.312 143.356 214.48 143.3C214.648 143.244 214.76 143.132 214.872 143.076C215.096 142.908 215.32 142.74 215.544 142.516C215.712 142.292 215.88 142.012 215.992 141.788C216.048 141.396 216.104 141.116 216.16 140.78Z" fill="#000001"/>
<path d="M216.832 133.388C216.608 133.276 216.384 133.22 216.104 133.108C215.88 133.052 215.656 132.996 215.432 132.996C215.208 132.996 214.984 132.996 214.76 132.996C214.536 132.996 214.256 133.052 213.976 133.052C214.144 132.828 214.368 132.66 214.648 132.548C214.928 132.436 215.208 132.38 215.488 132.436C216.104 132.492 216.608 132.828 216.832 133.388Z" fill="#000001"/>
<path d="M214.872 127.9C214.872 127.9 217.504 136.58 223.44 139.156C223.44 139.156 218.568 142.572 219.856 145.54C221.144 148.452 216.104 150.02 216.608 152.372L242.984 146.604C242.984 146.604 239.68 139.492 234.528 140.052C229.376 140.612 235.256 134.004 228.928 129.356C222.6 124.708 214.872 127.9 214.872 127.9Z" fill="#8367C7"/>
<path d="M244.832 146.156C243.936 145.148 242.928 144.196 241.864 143.3C240.856 142.46 239.68 141.788 238.448 141.284C237.216 140.836 235.928 140.612 234.64 140.78C233.296 140.948 232.008 141.396 230.776 142.012C231.784 141.004 233.072 140.276 234.472 139.94C235.928 139.604 237.44 139.716 238.84 140.276C240.184 140.836 241.416 141.62 242.424 142.684C243.432 143.692 244.272 144.868 244.832 146.156Z" fill="#8367C7"/>
<path d="M214.872 127.9C215.6 129.468 216.384 130.924 217.28 132.38C218.12 133.78 219.184 135.124 220.36 136.244C221.48 137.42 222.88 138.26 224.448 138.708C226.072 139.156 227.752 139.156 229.376 138.82C227.808 139.604 225.96 139.884 224.224 139.548C223.328 139.38 222.488 139.044 221.704 138.652C220.92 138.204 220.192 137.644 219.576 137.028C218.344 135.796 217.28 134.34 216.496 132.772C215.712 131.26 215.152 129.58 214.872 127.9Z" fill="#000001"/>
<path d="M219.464 151.7L226.128 151.588L225.904 150.3L219.464 151.7Z" fill="#000001"/>
<path d="M78.288 134.788C78.288 134.788 60.816 144.196 63.28 151.868C65.744 159.54 77.672 147.836 79.688 135.516C79.688 135.46 79.24 134.228 78.288 134.788Z" fill="#A04040"/>
<path d="M104.104 164.244C104.104 164.244 103.6 209.38 103.824 211.844C104.048 214.308 109.2 215.428 112.448 215.652C115.696 215.876 121.128 218.172 118.216 218.284C116.984 218.396 115.808 218.396 114.576 218.284C114.576 218.284 116.2 219.796 114.352 219.796C112.504 219.796 103.936 218.732 100.52 218.116C97.104 217.5 94.864 164.132 94.864 164.132L104.104 164.244Z" fill="#A04040"/>
<path d="M54.6 179.42L67.872 173.932L69.72 163.46L67.424 159.54C67.424 159.54 69.216 146.884 75.544 145.316C81.872 143.748 94.304 144.42 100.072 146.38C105.84 148.34 104.048 164.244 104.048 164.244H99.68C99.68 164.244 100.184 170.908 99.344 172.14C98.504 173.372 90.272 176.116 90.272 176.116L82.656 193.308L54.6 179.42Z" fill="#000001"/>
<path d="M67.424 159.54L78.736 163.46C78.736 163.46 76.888 173.652 77.224 174.996L97.496 185.468C99.568 185.356 105.392 185.02 106.512 184.908C107.8 184.796 110.488 185.692 111.16 186.42C112.616 187.932 107.24 187.764 107.24 187.764C107.24 187.764 110.096 189.444 112.112 188.716C114.128 187.988 115.472 187.596 115.528 188.324C115.584 189.052 113.904 190.06 112.504 190.788C112.504 190.788 115.808 189.724 115.864 190.396C115.92 191.068 114.744 191.908 110.768 193.7C110.768 193.7 115.136 192.86 114.072 194.204C113.008 195.548 109.088 196.948 106.736 196.5C104.496 196.108 95.872 192.86 95.872 192.86C93.52 192.02 73.584 183.788 68.488 180.372C63.392 176.956 67.424 159.54 67.424 159.54Z" fill="#EA8383"/>
<path d="M108.696 191.012C109.368 190.9 109.928 190.844 110.544 190.732C111.104 190.676 111.664 190.508 112.168 190.34C112.28 190.284 112.448 190.228 112.56 190.172C112.672 190.116 112.784 190.06 112.896 190.004C113.12 189.892 113.4 189.668 113.68 189.556C114.24 189.22 114.8 188.996 115.416 188.716C115.08 189.276 114.688 189.78 114.24 190.228C114.128 190.34 114.016 190.452 113.904 190.564C113.792 190.676 113.68 190.788 113.512 190.9C113.232 191.124 112.896 191.292 112.56 191.404C111.944 191.628 111.216 191.74 110.544 191.628C109.928 191.572 109.312 191.348 108.696 191.012Z" fill="#000001"/>
<path d="M108.64 194.148C109.704 193.532 110.824 193.084 112 192.636L113.68 192.02C114.24 191.796 114.8 191.572 115.36 191.292C115.08 191.908 114.632 192.412 114.072 192.748C113.568 193.14 113.008 193.42 112.392 193.644C111.776 193.868 111.16 194.036 110.544 194.092C109.928 194.26 109.256 194.26 108.64 194.148Z" fill="#000001"/>
<path d="M58.016 214.084C58.016 214.084 82.544 225.956 90.552 222.484C98.56 219.012 85.008 202.772 85.008 202.772L58.016 214.084Z" fill="#000001"/>
<path d="M54.6 179.42C54.6 179.42 43.96 185.748 44.352 191.348C44.744 196.948 49.728 202.492 49.728 202.492L35.28 207.7L37.352 215.876C37.352 215.876 59.304 218.676 75.88 214.028C92.456 209.38 91.672 200.588 81.984 192.636C72.296 184.684 58.408 179.308 54.6 179.42Z" fill="#8367C7"/>
<path d="M75.096 196.5C71.68 197.172 68.32 197.956 64.96 198.74C61.6 199.524 58.24 200.42 54.992 201.372C51.744 202.324 48.44 203.5 45.192 204.62C41.944 205.74 38.584 206.748 35.28 207.7C38.472 206.356 41.664 205.012 44.912 203.78C46.536 203.164 48.16 202.548 49.784 201.932C51.408 201.316 53.088 200.812 54.712 200.308C58.072 199.356 61.432 198.516 64.848 197.9C68.208 197.228 71.68 196.78 75.096 196.5Z" fill="#000001"/>
<path d="M37.296 215.876C37.296 215.876 31.136 217.724 29.904 218.508C28.672 219.292 21.616 224.164 19.712 226.572C17.808 228.98 16.072 230.324 16.072 224.78C16.072 219.236 23.016 214.196 24.136 213.524C25.256 212.852 26.432 209.772 26.712 209.772C26.992 209.772 35.56 208.764 35.56 208.764L37.296 215.876Z" fill="#EA8383"/>
<path d="M98.616 154.668C99.232 156.964 99.736 159.26 100.128 161.612C100.52 163.964 100.688 166.372 100.688 168.78C100.688 169.396 100.632 170.012 100.52 170.628C100.52 170.796 100.464 170.908 100.408 171.076C100.352 171.244 100.352 171.412 100.296 171.58C100.184 171.916 100.016 172.252 99.792 172.532C99.344 172.98 98.84 173.372 98.224 173.652C97.72 173.932 97.16 174.212 96.6 174.436C94.36 175.276 92.064 175.836 89.656 176.172C91.896 175.444 94.08 174.604 96.264 173.652C97.272 173.204 98.224 172.588 99.008 171.804C99.288 171.412 99.4 170.908 99.456 170.404C99.512 169.844 99.568 169.284 99.568 168.724C99.624 167.604 99.568 166.428 99.512 165.252C99.456 164.076 99.344 162.9 99.288 161.724L98.616 154.668Z" fill="#000001"/>
<path d="M94.024 118.828C94.024 118.828 89.208 118.044 86.128 118.66C83.048 119.276 81.144 121.124 80.472 124.316C79.8 127.676 79.576 129.748 81.536 132.38C83.496 135.012 86.016 136.748 90.16 134.788C94.304 132.828 95.2 124.708 97.832 124.148C100.464 123.588 101.416 120.06 99.96 119.052C98.504 118.044 98.392 117.82 94.024 118.828Z" fill="#A04040"/>
<path d="M95.144 154.5C95.928 154.78 95.144 152.876 93.24 149.236C91.168 145.204 91.336 140.556 93.016 139.38C94.696 138.204 100.296 134.676 100.296 134.676C100.296 134.676 104.16 135.124 104.384 134.34C104.608 133.556 101.696 129.636 100.408 127.34C99.12 125.044 96.32 122.132 96.32 122.132C96.432 122.524 95.76 125.548 93.632 127.676C92.344 128.964 89.32 129.636 89.32 129.636C89.32 129.636 90.664 125.716 87.584 126.836C84.504 127.956 87.864 131.876 87.416 132.492C86.464 133.724 86.52 146.1 85.568 147.724C85.512 148.004 92.232 153.38 95.144 154.5Z" fill="#EA8383"/>
<path d="M93.856 129.132C93.856 129.132 97.44 127.564 98.84 130.028C98.84 130.084 95.088 131.652 93.856 129.132Z" fill="#F2EBEB"/>
<path d="M93.688 129.132C94.08 128.852 94.528 128.628 95.032 128.516C95.536 128.404 96.04 128.348 96.544 128.348C97.048 128.348 97.552 128.516 98 128.796C98.448 129.076 98.7281 129.524 98.8961 130.028C98.6161 129.692 98.224 129.412 97.832 129.188C97.44 129.02 96.992 128.908 96.544 128.908C95.536 128.908 94.584 128.964 93.688 129.132Z" fill="#000001"/>
<path d="M93.912 130.588C93.856 130.532 93.8 130.42 93.8 130.308C93.8 130.196 93.856 130.14 93.912 130.084C94.08 129.972 94.2481 129.972 94.4161 130.14C94.4161 130.364 94.36 130.476 94.304 130.532C94.248 130.532 94.248 130.588 94.192 130.588C94.08 130.588 93.968 130.588 93.912 130.588Z" fill="#000001"/>
<path d="M94.864 130.98C94.752 130.868 94.696 130.644 94.808 130.476C94.864 130.42 94.92 130.364 95.032 130.364C95.144 130.364 95.256 130.364 95.368 130.42C95.312 130.7 95.368 130.756 95.312 130.812C95.144 130.924 95.032 130.98 94.864 130.98Z" fill="#000001"/>
<path d="M94.416 134.396C94.808 134.116 95.368 134.172 95.704 134.564C96.208 135.18 94.584 136.524 93.576 135.852C92.568 135.18 94.416 134.396 94.416 134.396Z" fill="#A04040"/>
<path d="M94.584 133.388C94.584 133.668 94.584 133.948 94.64 134.228C94.696 134.452 94.752 134.732 94.864 134.956C94.976 135.18 95.144 135.404 95.312 135.572C95.368 135.684 95.48 135.74 95.592 135.852C95.704 135.964 95.816 136.076 95.928 136.188C95.76 136.188 95.648 136.132 95.48 136.132C95.312 136.076 95.2 136.02 95.032 135.964C94.752 135.796 94.528 135.572 94.36 135.236C94.024 134.564 94.136 133.892 94.584 133.388Z" fill="#000001"/>
<path d="M80.304 130.42C79.968 130.812 79.688 131.204 79.408 131.596C79.296 131.764 79.184 131.988 79.128 132.212C79.072 132.436 79.128 132.492 79.184 132.548C79.296 132.66 79.464 132.716 79.576 132.716L80.304 132.94C80.584 132.996 80.808 133.108 81.088 133.22C81.424 133.388 81.704 133.612 81.872 133.892C81.984 134.06 82.04 134.284 82.04 134.508C82.04 134.676 81.984 134.9 81.928 135.068C81.816 135.348 81.704 135.572 81.592 135.796L81.536 135.852L81.48 135.796C81.48 135.796 81.48 135.796 81.424 135.796C81.592 135.908 81.816 135.964 81.984 136.02C82.096 136.076 82.264 136.076 82.376 136.132C82.544 136.188 82.712 136.3 82.88 136.412C83.048 136.58 83.104 136.86 82.992 137.084C82.936 137.196 82.88 137.364 82.768 137.476C82.488 137.924 82.096 138.316 81.704 138.596C81.928 138.148 82.152 137.7 82.264 137.196C82.32 137.084 82.32 136.972 82.32 136.916C82.264 136.916 82.32 136.804 82.32 136.916C82.152 136.86 81.984 136.86 81.816 136.86C81.48 136.86 81.2 136.748 80.92 136.636L80.808 136.524C80.752 136.468 80.696 136.412 80.64 136.356C80.528 136.244 80.472 136.076 80.472 135.908C80.472 135.796 80.472 135.684 80.528 135.516L80.64 135.236C80.752 135.012 80.808 134.844 80.92 134.62C80.92 134.564 80.976 134.508 80.976 134.396C80.976 134.34 80.976 134.34 80.976 134.34C80.864 134.228 80.752 134.116 80.64 134.06C80.416 133.948 80.248 133.836 80.024 133.78L79.352 133.5C79.184 133.444 79.072 133.388 78.904 133.276C78.736 133.164 78.624 133.052 78.512 132.884C78.288 132.548 78.288 132.156 78.512 131.82C78.624 131.54 78.848 131.316 79.016 131.148C79.408 130.924 79.8 130.644 80.304 130.42Z" fill="#8367C7"/>
<path d="M94.136 127.34C94.248 127.004 94.416 126.724 94.696 126.5C94.976 126.276 95.312 126.164 95.592 126.108C96.32 125.996 96.992 126.388 97.272 127.06C96.88 127.116 96.656 127.116 96.376 127.116L95.704 127.172C95.256 127.284 94.696 127.34 94.136 127.34Z" fill="#000001"/>
<path d="M96.376 128.684C96.376 128.684 96.04 129.692 96.656 130.196C97.272 130.7 98.952 130.42 98.672 129.748C98.392 129.076 96.88 128.236 96.376 128.684Z" fill="#000001"/>
<path d="M120.288 176.452C120.288 176.452 115.976 178.692 115.976 179.532C115.976 180.372 142.912 183.956 149.632 181.884C156.352 179.812 157.528 178.86 157.304 177.964C157.08 177.068 134.624 173.932 120.288 176.452Z" fill="#000001"/>
<path d="M134.344 164.58C134.344 164.58 143.976 176.116 143.136 177.908C142.296 179.7 133.224 181.548 129.64 180.036C126.056 178.524 132.552 164.02 134.344 164.58Z" fill="#8367C7"/>
<path d="M133.728 173.372C133.728 173.372 134.68 174.1 134.008 174.324C133.336 174.548 133.728 173.372 133.728 173.372Z" fill="#F2EBEB"/>
<path d="M136.304 172.868C136.304 172.868 136.416 174.548 136.752 174.66C137.088 174.772 137.2 174.548 137.2 174.548L136.304 172.868Z" fill="#F2EBEB"/>
<path d="M134.064 177.516C133.84 177.348 133.56 177.46 133.392 177.684C133.392 177.74 133.336 177.74 133.336 177.796C133.168 178.356 134.064 177.516 134.064 177.516Z" fill="#F2EBEB"/>
<path d="M132.328 176.34C132.328 176.34 132.216 175.78 132.048 176.228C131.88 176.676 132.328 176.34 132.328 176.34Z" fill="#F2EBEB"/>
<path d="M138.712 177.684C138.712 177.684 138.488 177.236 138.432 177.572C138.376 177.908 138.712 177.684 138.712 177.684Z" fill="#F2EBEB"/>
<path d="M148.12 172.476C148.12 172.476 153.104 186.924 151.704 188.212C150.304 189.5 141.232 187.82 138.432 185.076C135.632 182.332 146.664 171.244 148.12 172.476Z" fill="#8367C7"/>
<path d="M144.48 180.372C144.48 180.372 145.096 181.436 144.424 181.38C143.752 181.324 144.48 180.372 144.48 180.372Z" fill="#F2EBEB"/>
<path d="M147.056 180.876C147.056 180.876 146.552 182.5 146.832 182.724C147.112 182.948 147.28 182.78 147.28 182.78L147.056 180.876Z" fill="#F2EBEB"/>
<path d="M143.36 184.404C143.192 184.18 142.912 184.18 142.688 184.292C142.632 184.292 142.632 184.348 142.576 184.404C142.184 184.796 143.36 184.404 143.36 184.404Z" fill="#F2EBEB"/>
<path d="M142.184 182.612C142.184 182.612 142.24 182.052 141.96 182.388C141.68 182.724 142.184 182.612 142.184 182.612Z" fill="#F2EBEB"/>
<path d="M147.616 186.308C147.616 186.308 147.616 185.804 147.392 186.084C147.168 186.364 147.616 186.308 147.616 186.308Z" fill="#F2EBEB"/>
<path d="M117.208 181.716C117.208 181.716 124.544 168.444 126.392 168.724C128.24 169.004 132.888 177.404 132.608 181.38C132.328 185.356 117.208 183.676 117.208 181.716Z" fill="#8367C7"/>
<path d="M125.328 179.532C125.328 179.532 125.664 178.356 126.112 178.916C126.56 179.476 125.328 179.532 125.328 179.532Z" fill="#F2EBEB"/>
<path d="M124.04 177.18C124.04 177.18 125.552 176.564 125.496 176.116C125.44 175.668 125.216 175.724 125.216 175.724L124.04 177.18Z" fill="#F2EBEB"/>
<path d="M128.968 177.852C128.912 178.132 129.08 178.412 129.36 178.468C129.416 178.468 129.416 178.468 129.472 178.468C130.032 178.524 128.968 177.852 128.968 177.852Z" fill="#F2EBEB"/>
<path d="M128.408 179.924C128.408 179.924 127.96 180.204 128.408 180.204C128.856 180.204 128.408 179.924 128.408 179.924Z" fill="#F2EBEB"/>
<path d="M127.624 173.204C127.624 173.204 127.288 173.54 127.624 173.54C127.96 173.54 127.624 173.204 127.624 173.204Z" fill="#F2EBEB"/>
<path d="M125.16 176.116C125.16 176.116 139.776 175.892 140.504 177.684C141.232 179.476 136.752 187.932 133.336 189.78C129.92 191.628 123.592 177.18 125.16 176.116Z" fill="#8367C7"/>
<path d="M131.152 182.276C131.152 182.276 132.328 181.996 132.048 182.668C131.768 183.34 131.152 182.276 131.152 182.276Z" fill="#F2EBEB"/>
<path d="M132.44 179.924C132.44 179.924 133.728 180.932 134.064 180.708C134.4 180.484 134.232 180.26 134.232 180.26L132.44 179.924Z" fill="#F2EBEB"/>
<path d="M134.4 184.684C134.12 184.796 134.008 185.076 134.12 185.356C134.12 185.412 134.12 185.412 134.176 185.468C134.4 185.972 134.4 184.684 134.4 184.684Z" fill="#F2EBEB"/>
<path d="M132.44 185.3C132.44 185.3 131.992 185.076 132.216 185.412C132.44 185.748 132.44 185.3 132.44 185.3Z" fill="#F2EBEB"/>
<path d="M137.536 181.1C137.536 181.1 137.088 180.932 137.256 181.268C137.424 181.604 137.536 181.1 137.536 181.1Z" fill="#F2EBEB"/>
<path d="M127.456 183.844C126.728 182.78 126.056 181.66 125.496 180.54C125.216 179.98 124.936 179.364 124.712 178.748C124.6 178.412 124.488 178.132 124.432 177.796C124.32 177.404 124.32 177.068 124.376 176.676C124.432 176.396 124.6 176.172 124.824 176.004C124.992 175.892 125.16 175.78 125.384 175.724C125.72 175.612 126.056 175.556 126.392 175.5C127.064 175.444 127.736 175.388 128.352 175.388C129.64 175.388 130.928 175.388 132.216 175.5C133.504 175.612 134.792 175.724 136.08 175.948C137.368 176.116 138.656 176.452 139.888 176.844C140.28 176.956 140.616 177.18 140.896 177.46C141.12 177.796 141.232 178.244 141.176 178.636C141.064 179.308 140.896 179.98 140.56 180.596C140 181.772 139.272 182.836 138.432 183.844C139.048 182.724 139.608 181.604 140.056 180.428C140.28 179.868 140.392 179.308 140.448 178.692C140.448 178.468 140.392 178.244 140.28 178.02C140.112 177.852 139.888 177.74 139.608 177.684C138.432 177.348 137.2 177.124 135.912 177.012C134.68 176.844 133.392 176.732 132.104 176.62C130.816 176.508 129.584 176.452 128.296 176.452C127.68 176.452 127.064 176.452 126.448 176.508C125.832 176.564 125.104 176.676 125.16 176.844C125.104 177.124 125.104 177.348 125.16 177.628C125.216 177.908 125.272 178.188 125.328 178.524C125.496 179.14 125.664 179.7 125.944 180.316C126.448 181.492 126.952 182.668 127.456 183.844Z" fill="#000001"/>
<path d="M147.056 172.588C146.552 173.092 145.992 173.54 145.432 173.932C144.872 174.324 144.312 174.772 143.752 175.108C143.192 175.444 142.632 175.892 142.072 176.284C141.512 176.676 141.008 177.124 140.56 177.684C140.616 176.956 140.952 176.228 141.512 175.668C141.96 175.108 142.52 174.604 143.136 174.212C143.752 173.82 144.368 173.484 145.04 173.148C145.6 172.868 146.328 172.7 147.056 172.588Z" fill="#000001"/>
<path d="M126.784 168.724C127.4 169.172 128.016 169.676 128.576 170.236C129.136 170.796 129.584 171.356 130.088 171.972C130.536 172.588 130.984 173.26 131.32 173.932C131.712 174.604 131.992 175.388 132.104 176.172C131.6 175.556 131.096 175.052 130.592 174.436C130.088 173.82 129.64 173.26 129.192 172.644C128.744 172.028 128.296 171.412 127.904 170.74C127.456 170.18 127.12 169.452 126.784 168.724Z" fill="#000001"/>
<path d="M122.92 195.156C122.92 195.156 114.464 179.14 115.976 179.532C135.352 184.684 157.248 177.964 157.248 177.964C157.024 181.1 156.52 184.236 155.848 187.26C154.896 191.068 153.44 193.756 151.872 194.092C150.304 194.428 127.568 198.628 122.92 195.156Z" fill="#8367C7"/>
<path d="M120.848 191.18C121.184 190.284 121.632 189.388 122.136 188.492C122.64 187.652 123.144 186.812 123.704 186.028C124.264 185.244 124.824 184.46 125.44 183.676C126.056 182.892 126.728 182.164 127.456 181.492C127.12 182.388 126.672 183.284 126.168 184.18C125.664 185.02 125.16 185.86 124.6 186.644C124.04 187.428 123.48 188.212 122.864 188.996C122.248 189.78 121.576 190.508 120.848 191.18Z" fill="#F2EBEB"/>
<path d="M123.592 195.548C124.208 194.316 124.936 193.084 125.664 191.908C126.392 190.732 127.176 189.612 127.96 188.492C128.744 187.372 129.584 186.252 130.48 185.188C131.376 184.124 132.272 183.06 133.28 182.052C132.664 183.284 131.936 184.516 131.208 185.692C130.48 186.868 129.696 187.988 128.856 189.108C128.016 190.228 127.232 191.348 126.336 192.412C125.552 193.532 124.6 194.54 123.592 195.548Z" fill="#F2EBEB"/>
<path d="M131.6 196.556C132.272 195.1 133.056 193.756 133.896 192.412C134.736 191.068 135.576 189.724 136.416 188.436C137.256 187.148 138.208 185.86 139.16 184.572C140.112 183.284 141.064 182.052 142.184 180.932C141.512 182.388 140.728 183.732 139.888 185.076C139.048 186.42 138.208 187.764 137.368 189.052C136.528 190.34 135.576 191.628 134.624 192.916C133.672 194.204 132.72 195.38 131.6 196.556Z" fill="#F2EBEB"/>
<path d="M140.56 195.548C141.176 194.148 141.848 192.804 142.576 191.46C143.304 190.116 144.088 188.828 144.872 187.54C145.656 186.252 146.496 184.964 147.392 183.732C148.232 182.5 149.184 181.268 150.136 180.092C149.52 181.492 148.848 182.836 148.12 184.18C147.392 185.524 146.608 186.812 145.824 188.1C145.04 189.388 144.2 190.676 143.304 191.908C142.464 193.196 141.568 194.372 140.56 195.548Z" fill="#F2EBEB"/>
<path d="M146.44 195.1C147.112 193.7 147.84 192.3 148.624 190.956C149.408 189.612 150.192 188.324 151.032 186.98C151.872 185.636 152.768 184.404 153.664 183.172C154.56 181.94 155.512 180.708 156.576 179.532C155.904 180.932 155.176 182.332 154.392 183.676C153.608 185.02 152.824 186.364 151.984 187.652C151.144 188.94 150.248 190.228 149.352 191.46C148.456 192.692 147.504 193.924 146.44 195.1Z" fill="#F2EBEB"/>
<path d="M116.256 181.38C119.56 182.052 122.864 182.612 126.168 183.06C129.472 183.508 132.832 183.956 136.136 184.236C139.44 184.516 142.8 184.74 146.16 185.02L151.2 185.356C152.88 185.524 154.56 185.58 156.24 185.524C155.4 185.692 154.56 185.804 153.72 185.804C152.88 185.86 152.04 185.86 151.2 185.916C149.52 185.916 147.84 185.916 146.16 185.916C142.8 185.86 139.44 185.692 136.08 185.412C132.72 185.076 129.36 184.628 126.056 183.956C122.752 183.34 119.448 182.444 116.256 181.38Z" fill="#F2EBEB"/>
<path d="M118.944 187.26C121.856 187.708 124.768 188.212 127.68 188.716C130.592 189.22 133.448 189.724 136.36 190.172C139.272 190.62 142.128 191.068 145.04 191.404L153.776 192.524C150.808 192.58 147.896 192.524 144.928 192.244C143.472 192.132 142.016 192.02 140.504 191.852C138.992 191.684 137.592 191.46 136.136 191.236C133.224 190.732 130.312 190.172 127.456 189.5C124.6 188.884 121.744 188.156 118.944 187.26Z" fill="#F2EBEB"/>
<path d="M170.016 169.676C170.016 169.676 169.68 166.708 169.792 166.596C170.408 166.652 170.968 166.764 171.584 166.932C171.584 166.932 172.592 161.892 172.928 161.836C173.152 161.78 173.432 161.836 173.6 161.948L173.992 167.268C173.992 167.268 175.392 167.268 175.504 167.828C175.616 168.388 174.664 170.628 174.664 170.628L170.016 169.676Z" fill="#000001"/>
<path d="M166.6 194.54C166.6 194.54 175 196.052 175.952 195.044C176.904 194.036 178.192 177.852 177.072 176.396C175.952 174.94 174.552 174.884 174.328 173.484C174.216 172.532 174.16 171.524 174.104 170.572L170.912 169.9C170.912 169.9 171.192 172.756 169.848 173.652C168.504 174.548 167.16 175.5 166.712 178.692C166.264 181.884 166.6 194.54 166.6 194.54Z" fill="#EA8383"/>
<path d="M170.576 170.292C170.912 170.124 171.304 170.068 171.64 170.012C172.312 169.956 173.04 170.068 173.656 170.348C173.992 170.516 174.328 170.684 174.608 170.964C174.272 171.132 173.88 171.188 173.544 171.244C173.208 171.244 172.872 171.244 172.536 171.188C172.2 171.132 171.864 171.02 171.528 170.908C171.136 170.74 170.856 170.516 170.576 170.292Z" fill="#000001"/>
<path d="M170.576 166.708C170.8 166.932 170.968 167.156 171.08 167.492C171.248 167.996 171.304 168.556 171.136 169.06C171.08 169.34 170.912 169.62 170.744 169.844C170.52 169.62 170.352 169.34 170.24 169.06C170.128 168.836 170.072 168.556 170.072 168.276C170.072 167.996 170.072 167.772 170.128 167.492C170.24 167.212 170.408 166.932 170.576 166.708Z" fill="#000001"/>
<path d="M171.696 167.1C171.864 167.324 172.032 167.604 172.088 167.884C172.144 168.108 172.2 168.388 172.144 168.612C172.144 168.836 172.088 169.116 171.976 169.34C171.864 169.62 171.696 169.844 171.472 170.012C171.304 169.788 171.136 169.508 171.08 169.228C170.968 168.724 171.024 168.22 171.192 167.772C171.304 167.548 171.472 167.324 171.696 167.1Z" fill="#000001"/>
<path d="M175.112 167.492C175.224 167.772 175.28 168.052 175.28 168.388C175.28 168.948 175.112 169.452 174.832 169.956C174.664 170.236 174.44 170.46 174.16 170.572C174.048 170.292 173.992 169.956 173.992 169.676C173.992 169.396 174.048 169.116 174.104 168.892C174.16 168.612 174.328 168.388 174.44 168.164C174.608 167.884 174.832 167.66 175.112 167.492Z" fill="#000001"/>
<path d="M174.16 167.436C174.216 167.716 174.272 167.996 174.272 168.276C174.272 168.556 174.216 168.78 174.16 169.004C174.104 169.228 173.992 169.508 173.824 169.676C173.656 169.9 173.432 170.124 173.208 170.292C173.096 170.012 172.984 169.732 172.984 169.452C172.984 169.172 172.984 168.948 173.096 168.668C173.152 168.444 173.264 168.164 173.432 167.996C173.656 167.772 173.88 167.548 174.16 167.436Z" fill="#000001"/>
<path d="M173.208 167.324C173.376 167.548 173.488 167.828 173.488 168.164C173.544 168.388 173.544 168.668 173.488 168.892C173.432 169.116 173.376 169.396 173.264 169.62C173.152 169.9 172.928 170.124 172.704 170.292C172.536 170.068 172.424 169.788 172.368 169.452C172.312 168.948 172.368 168.444 172.648 167.996C172.76 167.716 172.984 167.492 173.208 167.324Z" fill="#000001"/>
<path d="M172.312 167.38C172.648 167.772 172.816 168.276 172.76 168.78C172.76 169.004 172.704 169.228 172.592 169.452C172.48 169.676 172.312 169.9 172.088 170.124C171.92 169.9 171.752 169.676 171.696 169.396C171.64 169.172 171.584 168.948 171.64 168.724C171.64 168.5 171.696 168.276 171.808 168.052C171.92 167.772 172.088 167.548 172.312 167.38Z" fill="#000001"/>
<path d="M171.584 166.932C171.808 166.764 172.032 166.652 172.312 166.596C172.76 166.484 173.208 166.54 173.656 166.764C173.88 166.876 174.104 167.044 174.272 167.268C174.048 167.436 173.824 167.548 173.544 167.604C173.096 167.716 172.648 167.66 172.2 167.436C171.976 167.324 171.752 167.156 171.584 166.932Z" fill="#000001"/>
<path d="M172.2 164.076C172.48 164.244 172.816 164.188 172.984 163.908C173.04 163.852 173.04 163.796 173.04 163.74C173.32 163.068 172.928 162.564 173.264 162.564C173.6 162.564 173.768 162.564 173.768 162.004C173.768 161.444 172.816 161.108 172.536 162.116C172.368 162.788 172.256 163.46 172.2 164.076Z" fill="#EA8383"/>
<path d="M172.928 162.004C173.04 161.948 173.152 161.836 173.264 161.724C173.32 161.668 173.264 161.612 173.264 161.612C173.208 161.612 173.152 161.668 173.152 161.724C173.152 161.836 173.264 161.892 173.432 162.06C173.544 162.172 173.544 162.396 173.488 162.564C173.432 162.676 173.264 162.732 173.096 162.732C172.984 162.732 172.872 162.62 172.816 162.508C172.816 162.34 172.872 162.172 172.928 162.004Z" fill="#000001"/>
<path d="M173.544 186.868C173.544 186.868 174.664 182.052 173.544 180.876C172.424 179.7 171.192 178.748 169.96 180.092C168.728 181.436 170.296 186.868 170.296 186.868C170.296 186.868 172.928 187.54 173.544 186.868Z" fill="#F2EBEB"/>
<path d="M174.16 187.876C174.44 185.972 174.552 184.012 174.44 182.108C174.384 181.66 174.328 181.212 174.216 180.764C174.104 180.372 173.824 180.036 173.488 179.756C172.928 179.084 172.144 178.636 171.304 178.412C170.968 178.356 170.576 178.412 170.296 178.636C170.128 178.748 169.96 178.86 169.848 179.028C169.792 179.084 169.736 179.14 169.68 179.252C169.624 179.308 169.568 179.42 169.568 179.476C169.288 180.316 169.232 181.212 169.288 182.108C169.4 184.012 169.68 185.916 170.128 187.82L169.904 187.596C170.576 187.82 171.304 187.988 172.032 188.1C172.368 188.156 172.76 188.212 173.096 188.156C173.488 188.212 173.88 188.1 174.16 187.876ZM174.16 187.876C173.88 188.156 173.544 188.324 173.152 188.38C172.76 188.436 172.424 188.492 172.032 188.492C171.304 188.492 170.52 188.38 169.792 188.268L169.624 188.212L169.568 187.988C168.952 186.084 168.504 184.18 168.336 182.164C168.28 181.66 168.28 181.156 168.336 180.652C168.336 180.092 168.448 179.588 168.616 179.028C168.672 178.86 168.728 178.748 168.84 178.636C168.896 178.524 169.008 178.356 169.12 178.244C169.344 178.02 169.512 177.852 169.792 177.684C170.296 177.348 170.968 177.236 171.584 177.348C172.144 177.46 172.648 177.684 173.096 178.02C173.488 178.356 173.88 178.692 174.216 179.028C174.44 179.196 174.608 179.42 174.776 179.644C174.888 179.756 174.944 179.924 175 180.036C175.056 180.148 175.112 180.316 175.112 180.428C175.224 180.932 175.28 181.436 175.28 181.996C175.168 184.068 174.832 186.028 174.16 187.876Z" fill="#F2EBEB"/>
<path d="M172.144 180.876C172.144 180.876 171.752 180.708 171.248 181.604C170.744 182.5 171.472 186.42 171.808 186.14C172.144 185.86 171.92 184.124 172.368 183.116C172.816 182.108 173.04 181.044 172.144 180.876Z" fill="#EA8383"/>
<path d="M172.536 180.652L172.312 180.876C172.144 180.82 171.92 180.82 171.752 180.932C171.528 181.1 171.528 181.212 171.528 181.212C171.64 181.212 171.752 181.212 171.808 181.156C171.976 181.1 172.032 181.1 172.032 181.212C172.032 181.324 171.976 181.716 172.088 181.66C172.2 181.604 172.368 181.212 172.48 181.324C172.592 181.436 172.592 182.164 172.704 182.052C172.816 181.772 172.816 181.436 172.704 181.156C172.648 181.044 172.536 180.932 172.424 180.82C172.368 180.876 172.76 180.596 172.536 180.652Z" fill="#8367C7"/>
<path d="M156.464 208.652C157.024 208.708 157.64 208.764 158.2 208.876C163.184 209.828 186.984 214.7 185.416 221.7C183.68 229.484 139.664 233.74 129.92 225.06C120.288 216.548 143.36 207.644 156.464 208.652Z" fill="#F2EBEB"/>
<path d="M175.392 208.428C175.392 208.428 137.088 189.612 136.192 189.612C135.296 189.612 128.52 203.332 135.352 214.364C142.184 225.396 170.744 223.1 175.392 208.428Z" fill="#8367C7"/>
<path d="M137.2 190.004C137.2 190.004 133.504 199.636 136.136 208.148C139.16 217.78 145.32 218.844 155.736 218.9C166.152 218.956 173.32 207.476 173.32 207.476C173.32 207.476 137.424 189.388 137.2 190.004Z" fill="#EA8383"/>
<path d="M148.904 212.74C148.904 212.74 149.184 214.42 148.568 214.364C147.952 214.308 148.512 212.74 148.904 212.74Z" fill="#000001"/>
<path d="M143.64 210.108C143.64 210.108 143.472 212.068 142.464 211.396C141.456 210.724 143.64 210.108 143.64 210.108Z" fill="#000001"/>
<path d="M141.624 204.228C141.624 204.228 141.232 205.908 140.392 205.46C139.552 205.012 141.624 204.228 141.624 204.228Z" fill="#000001"/>
<path d="M140.168 199.916C140.168 199.916 139.16 201.26 138.376 200.42C137.592 199.58 140.168 199.916 140.168 199.916Z" fill="#000001"/>
<path d="M141.288 195.38C141.288 195.38 140.28 195.324 140.168 194.652C140.056 193.98 141.008 193.812 141.288 195.38Z" fill="#000001"/>
<path d="M163.296 210.724C163.296 210.724 164.864 211.396 164.472 211.9C164.08 212.404 163.072 211.06 163.296 210.724Z" fill="#000001"/>
<path d="M159.264 213.524C159.264 213.524 160.832 214.7 159.768 215.204C158.704 215.708 159.264 213.524 159.264 213.524Z" fill="#000001"/>
<path d="M153.608 214.14C153.608 214.14 154.784 215.316 153.944 215.82C153.104 216.324 153.608 214.14 153.608 214.14Z" fill="#000001"/>
<path d="M138.208 212.74C137.592 212.684 136.976 212.516 136.416 212.236C135.856 211.956 135.296 211.62 134.848 211.228C133.84 210.444 133.168 209.324 132.888 208.092C133.392 208.484 133.84 208.876 134.288 209.268L135.576 210.388C136.416 211.116 137.312 211.844 138.208 212.74Z" fill="#8367C7"/>
<path d="M135.352 203.948C134.736 203.388 134.232 202.716 133.896 201.988C133.504 201.26 133.28 200.476 133.112 199.636C132.944 198.796 132.888 198.012 133 197.172C133.056 196.332 133.28 195.548 133.672 194.82C133.784 195.66 133.784 196.444 133.896 197.172C134.008 197.9 134.12 198.684 134.232 199.412C134.344 200.14 134.568 200.924 134.736 201.652C134.904 202.38 135.128 203.164 135.352 203.948Z" fill="#8367C7"/>
<path d="M161.28 218.172C160.608 218.844 159.824 219.404 158.928 219.852C158.088 220.3 157.192 220.636 156.296 220.916C155.4 221.196 154.448 221.364 153.496 221.42C152.544 221.476 151.592 221.42 150.696 221.14C151.648 220.916 152.544 220.748 153.44 220.524C154.336 220.3 155.232 220.076 156.072 219.796C156.912 219.516 157.808 219.292 158.704 219.012C159.6 218.732 160.384 218.452 161.28 218.172Z" fill="#8367C7"/>
<path d="M128.912 208.596C128.24 212.628 129.248 216.772 131.768 220.02C135.968 225.62 145.208 223.268 148.68 220.356C152.152 217.444 154.84 214.476 154.56 214.028C154.28 213.58 153.272 213.748 153.272 213.748C153.272 213.748 141.904 220.58 136.864 216.268C131.824 211.956 130.48 207.7 130.256 207.7C129.808 207.98 129.36 208.26 128.912 208.596Z" fill="#8367C7"/>
<path d="M129.696 209.66C129.696 212.18 130.368 214.588 131.712 216.716C131.88 216.996 132.048 217.22 132.216 217.5C132.384 217.724 132.552 217.948 132.776 218.172C132.944 218.396 133.168 218.564 133.448 218.732C133.672 218.9 133.952 219.068 134.176 219.236C135.24 219.796 136.416 220.188 137.592 220.356C140 220.748 142.464 220.58 144.816 219.908C145.376 219.74 145.936 219.516 146.496 219.236C147 218.956 147.504 218.62 148.008 218.284L151.088 216.044L151.648 216.996C149.744 217.78 147.784 218.34 145.824 218.788C143.808 219.292 141.736 219.46 139.72 219.292C139.44 219.236 139.216 219.236 138.936 219.18L138.152 219.012C137.872 218.956 137.648 218.844 137.424 218.732C137.2 218.62 136.92 218.508 136.696 218.396C135.8 217.892 134.96 217.332 134.176 216.66C132.608 215.316 131.432 213.636 130.704 211.732C131.6 213.524 132.888 215.092 134.512 216.268C135.296 216.884 136.136 217.388 137.032 217.836C137.872 218.228 138.824 218.508 139.776 218.508C140.28 218.564 140.728 218.564 141.232 218.508C141.736 218.452 142.184 218.452 142.688 218.396C143.64 218.284 144.648 218.06 145.6 217.836C146.552 217.612 147.504 217.332 148.456 216.996C149.408 216.66 150.36 216.38 151.256 215.988C151.536 215.876 151.872 216.044 151.984 216.324C152.04 216.548 151.984 216.772 151.816 216.94L148.792 219.18C148.288 219.572 147.728 219.908 147.112 220.244C146.496 220.524 145.88 220.804 145.264 220.972C144.032 221.364 142.744 221.532 141.4 221.588C140.112 221.644 138.824 221.532 137.536 221.308C136.248 221.084 135.016 220.58 133.896 219.908C133.616 219.74 133.336 219.572 133.112 219.348C132.832 219.124 132.608 218.9 132.384 218.676C132.16 218.452 131.936 218.172 131.768 217.892C131.6 217.612 131.432 217.332 131.264 217.052C129.976 214.756 129.472 212.18 129.696 209.66Z" fill="#F2EBEB"/>
<path d="M130.256 207.7C130.256 207.7 130.088 207.42 129.976 207.252C129.864 207.084 128.968 207.532 128.912 207.98C128.856 208.204 128.856 208.428 128.912 208.652C129.528 208.708 130.088 208.316 130.256 207.7Z" fill="#000001"/>
<path d="M176.736 223.66C176.736 223.66 173.32 221.868 175.224 219.236C177.128 216.604 179.872 218.004 180.992 219.516C182.112 221.028 179.984 225.564 176.736 223.66Z" fill="#8367C7"/>
<path d="M178.136 220.524C178.136 220.524 178.416 219.74 177.912 219.964C177.408 220.188 177.52 220.468 177.52 220.468C177.52 220.468 176.904 220.244 176.904 220.692C176.904 221.14 178.248 221.364 178.584 220.972C178.92 220.58 178.136 220.524 178.136 220.524Z" fill="#000001"/>
<path d="M169.176 223.828C169.176 223.828 166.656 220.916 169.4 219.18C172.144 217.444 174.16 219.74 174.664 221.532C175.168 223.324 171.528 226.796 169.176 223.828Z" fill="#8367C7"/>
<path d="M171.64 221.42C171.64 221.42 172.2 220.804 171.64 220.804C171.08 220.804 171.08 221.084 171.08 221.084C171.08 221.084 170.576 220.692 170.408 221.084C170.24 221.476 171.416 222.204 171.864 221.924C172.312 221.644 171.64 221.42 171.64 221.42Z" fill="#000001"/>
<path d="M170.856 214.98C170.856 214.98 172.536 211.508 175.224 213.3C177.912 215.092 176.624 217.892 175.168 219.068C173.712 220.244 169.064 218.284 170.856 214.98Z" fill="#8367C7"/>
<path d="M174.104 216.212C174.104 216.212 174.888 216.436 174.664 215.988C174.44 215.54 174.16 215.596 174.16 215.596C174.16 215.596 174.328 214.98 173.88 214.98C173.432 214.98 173.264 216.324 173.656 216.66C174.048 216.996 174.104 216.212 174.104 216.212Z" fill="#000001"/>
<path d="M166.992 220.804C166.992 220.804 163.184 220.132 164.248 217.052C165.312 213.972 168.28 214.532 169.848 215.596C171.416 216.66 170.688 221.644 166.992 220.804Z" fill="#8367C7"/>
<path d="M167.384 217.332C167.384 217.332 167.384 216.492 166.992 216.884C166.6 217.276 166.768 217.444 166.768 217.444C166.768 217.444 166.152 217.444 166.264 217.892C166.376 218.34 167.72 218.116 167.944 217.668C168.168 217.22 167.384 217.332 167.384 217.332Z" fill="#000001"/>
<path d="M168.728 221.588C168.728 221.588 169.12 225.452 165.872 225.284C162.624 225.116 162.288 222.092 162.96 220.3C163.632 218.508 168.56 217.836 168.728 221.588Z" fill="#8367C7"/>
<path d="M165.312 222.204C165.312 222.204 164.528 222.428 164.976 222.708C165.424 222.988 165.592 222.764 165.592 222.764C165.592 222.764 165.76 223.38 166.152 223.156C166.544 222.932 165.984 221.7 165.48 221.588C164.976 221.476 165.312 222.204 165.312 222.204Z" fill="#000001"/>
<path d="M172.928 219.236C172.368 219.068 171.752 219.012 171.192 219.012C170.688 219.068 170.24 219.236 169.848 219.572C169.4 219.908 169.064 220.3 168.784 220.748C168.504 221.252 168.336 221.812 168.336 222.372C167.888 221.812 167.72 221.084 167.944 220.412C168.168 219.74 168.56 219.124 169.12 218.676C170.24 217.78 171.92 217.948 172.816 219.068C172.872 219.124 172.872 219.18 172.928 219.236Z" fill="#000001"/>
<path d="M164.024 219.292C164.304 218.9 164.696 218.62 165.144 218.452C165.592 218.284 166.096 218.228 166.544 218.284C167.048 218.34 167.496 218.564 167.832 218.9C168.168 219.236 168.392 219.684 168.504 220.132C168.056 219.964 167.72 219.74 167.384 219.628C167.048 219.516 166.712 219.404 166.376 219.348C165.648 219.292 164.864 219.292 164.024 219.292Z" fill="#000001"/>
<path d="M52.976 96.428C52.976 96.428 50.064 104.716 53.984 107.18C57.904 109.644 71.848 107.46 74.144 108.076C76.44 108.692 77.952 111.604 79.072 110.316C80.192 109.028 81.704 100.46 76.72 95.588C71.736 90.716 56.28 90.94 52.976 96.428Z" fill="#F2EBEB"/>
<path d="M58.128 102.252C58.8 100.964 59.696 99.788 60.76 98.78C61.04 98.5 61.376 98.276 61.656 98.108C62.048 97.884 62.44 97.772 62.888 97.772C63.112 97.772 63.336 97.884 63.56 97.996C63.728 98.108 63.952 98.276 64.064 98.444C64.288 98.78 64.456 99.228 64.456 99.676C64.512 100.46 64.344 101.3 64.008 101.972C63.84 102.364 63.56 102.756 63.224 103.036C63.056 103.148 62.888 103.26 62.664 103.26C62.384 103.26 62.16 103.148 61.992 102.924C61.824 102.644 61.768 102.308 61.824 102.028C61.936 101.636 62.048 101.244 62.272 100.852C62.496 100.516 62.72 100.18 62.944 99.9C63.448 99.284 64.064 98.78 64.736 98.388C65.128 98.164 65.52 98.052 65.912 97.94C66.36 97.828 66.808 97.884 67.256 98.052C67.648 98.22 68.04 98.5 68.32 98.78C68.6 99.116 68.88 99.452 68.992 99.844C69.272 100.684 69.216 101.58 68.768 102.364C68.656 102.588 68.544 102.756 68.376 102.924C68.208 103.148 67.984 103.26 67.76 103.372C67.592 103.428 67.368 103.428 67.144 103.372C66.92 103.316 66.808 103.148 66.696 102.924C66.584 102.644 66.64 102.364 66.752 102.084C67.032 101.356 67.48 100.684 68.04 100.18C68.544 99.62 69.16 99.172 69.888 98.836C70.28 98.668 70.728 98.612 71.12 98.78C71.288 98.892 71.456 99.004 71.624 99.172C71.736 99.34 71.848 99.452 71.96 99.62C72.408 100.236 72.576 100.964 72.576 101.692C72.52 100.964 72.184 100.348 71.736 99.788C71.624 99.676 71.512 99.508 71.344 99.396C71.232 99.284 71.12 99.172 70.952 99.172C70.672 99.116 70.336 99.172 70.112 99.34C69.552 99.676 68.992 100.124 68.6 100.684C68.152 101.188 67.816 101.748 67.592 102.364C67.592 102.42 67.592 102.532 67.592 102.588L67.536 102.532C67.48 102.476 67.424 102.532 67.48 102.532C67.704 102.364 67.816 102.196 67.928 101.972C68.208 101.468 68.208 100.852 68.04 100.292C67.928 100.012 67.76 99.788 67.536 99.564C67.368 99.34 67.144 99.228 66.864 99.116C66.304 98.948 65.744 99.06 65.24 99.396C64.68 99.732 64.176 100.124 63.728 100.628C63.28 101.076 63 101.636 62.776 102.252C62.72 102.364 62.776 102.476 62.776 102.364C62.776 102.252 62.664 102.252 62.552 102.252C62.44 102.252 62.44 102.308 62.496 102.252C62.72 102.084 62.888 101.86 63 101.58C63.28 101.02 63.448 100.348 63.448 99.732C63.448 99.452 63.392 99.172 63.224 98.948C63.112 98.724 62.888 98.556 62.608 98.5C62.328 98.444 62.048 98.5 61.768 98.668C61.488 98.836 61.152 99.004 60.928 99.172C60.032 100.124 58.968 101.132 58.128 102.252Z" fill="#8367C7"/>
<path d="M72.688 103.372C72.52 103.372 72.408 103.316 72.24 103.26C72.184 103.204 72.128 103.204 72.128 103.148C72.128 103.092 72.184 103.092 72.24 103.036C72.408 102.98 72.52 102.924 72.688 102.924C72.856 102.924 72.968 102.98 73.136 103.036C73.192 103.092 73.248 103.092 73.248 103.148C73.248 103.204 73.192 103.204 73.136 103.26C72.968 103.316 72.856 103.372 72.688 103.372Z" fill="#8367C7"/>
<path d="M215.768 82.54C215.768 82.54 218.568 90.828 214.816 93.292C211.064 95.756 197.792 93.516 195.608 94.188C193.424 94.86 191.968 97.716 190.96 96.428C189.952 95.14 188.44 86.572 193.2 81.7C197.96 76.828 212.576 77.052 215.768 82.54Z" fill="#F2EBEB"/>
<path d="M197.176 84.612C197.904 85.844 198.688 86.964 199.696 87.972C199.92 88.196 200.2 88.42 200.48 88.588C200.704 88.756 200.984 88.812 201.264 88.812C201.488 88.756 201.712 88.644 201.824 88.42C201.992 88.196 202.048 87.916 202.104 87.636C202.16 87.02 202.048 86.348 201.88 85.788C201.824 85.508 201.656 85.284 201.488 85.06C201.488 85.004 201.432 85.06 201.544 85.06C201.6 85.06 201.656 85.06 201.712 85.004C201.712 85.004 201.768 85.004 201.768 84.948C201.768 84.892 201.768 85.004 201.768 85.116C201.88 85.732 202.104 86.292 202.44 86.796C202.776 87.356 203.224 87.804 203.728 88.196C204.12 88.588 204.68 88.7 205.184 88.644C205.464 88.532 205.688 88.42 205.856 88.252C206.08 88.084 206.248 87.86 206.36 87.58C206.64 87.076 206.64 86.46 206.472 85.956C206.416 85.732 206.304 85.508 206.136 85.34C206.192 85.34 206.192 85.34 206.248 85.34C206.304 85.284 206.304 85.284 206.304 85.284C206.304 85.34 206.304 85.452 206.304 85.508C206.472 86.124 206.696 86.74 207.088 87.3C207.424 87.86 207.872 88.364 208.376 88.812C208.6 88.98 208.88 89.092 209.16 89.036C209.328 88.98 209.44 88.924 209.552 88.812C209.664 88.7 209.832 88.588 209.944 88.476C210.448 87.972 210.784 87.356 210.952 86.684C210.896 87.412 210.672 88.084 210.168 88.644C210.056 88.812 209.944 88.924 209.832 89.036C209.776 89.092 209.72 89.148 209.608 89.204C209.496 89.26 209.44 89.316 209.328 89.372C208.936 89.484 208.488 89.428 208.152 89.148C207.536 88.756 206.976 88.196 206.528 87.58C206.08 86.964 205.744 86.292 205.52 85.564C205.464 85.284 205.464 85.004 205.576 84.78C205.632 84.612 205.8 84.444 206.024 84.388C206.248 84.332 206.472 84.332 206.64 84.444C206.864 84.556 207.088 84.724 207.2 84.948C207.312 85.116 207.424 85.284 207.48 85.508C207.984 86.74 207.648 88.084 206.696 88.98C206.36 89.26 205.968 89.484 205.576 89.652C205.128 89.764 204.68 89.764 204.232 89.652C203.84 89.54 203.448 89.316 203.112 89.092C202.496 88.588 201.992 88.028 201.6 87.356C201.376 87.02 201.208 86.684 201.096 86.348C200.928 85.956 200.816 85.564 200.816 85.172C200.76 84.892 200.872 84.556 201.04 84.332L201.152 84.22L201.32 84.108C201.432 84.052 201.6 83.996 201.768 84.052C201.992 84.108 202.16 84.164 202.272 84.332C202.552 84.668 202.776 85.06 202.888 85.452C203.112 86.18 203.168 86.964 203.056 87.748C203 88.196 202.832 88.588 202.552 88.924C202.272 89.316 201.824 89.54 201.376 89.54C200.928 89.54 200.536 89.372 200.2 89.092C199.92 88.868 199.64 88.588 199.416 88.308C198.352 87.244 197.68 85.956 197.176 84.612Z" fill="#8367C7"/>
<path d="M211.12 85.004C211.288 85.06 211.4 85.116 211.568 85.172C211.624 85.228 211.68 85.284 211.68 85.284C211.68 85.284 211.624 85.34 211.568 85.396C211.4 85.452 211.288 85.452 211.12 85.452C210.952 85.396 210.84 85.34 210.672 85.284C210.616 85.228 210.56 85.172 210.56 85.172C210.56 85.172 210.616 85.116 210.672 85.06C210.84 85.004 210.952 85.004 211.12 85.004Z" fill="#8367C7"/>
</svg>
