<svg width="24" height="24" viewBox="0 0 24 24" fill="none" xmlns="http://www.w3.org/2000/svg">
<path d="M18.7096 4.72206L10.3519 17.2591L5.17142 12.0786L5.17151 12.0785L5.16634 12.0737C4.98626 11.9059 4.74806 11.8145 4.50195 11.8189C4.25583 11.8232 4.02101 11.9229 3.84696 12.097C3.6729 12.271 3.5732 12.5058 3.56886 12.7519C3.56451 12.9981 3.65587 13.2363 3.82368 13.4163L3.82359 13.4164L3.82858 13.4214L9.82858 19.4214L9.8286 19.4214C9.92796 19.5208 10.0481 19.5968 10.1804 19.6441C10.3127 19.6914 10.4538 19.7088 10.5936 19.695C10.7334 19.6812 10.8684 19.6365 10.9889 19.5642C11.1094 19.492 11.2123 19.3939 11.2903 19.277L11.2904 19.2769L20.2904 5.77694L20.124 5.666L20.2904 5.77693C20.4302 5.5673 20.4809 5.31075 20.4315 5.0637C20.3821 4.81666 20.2366 4.59936 20.027 4.4596C19.8175 4.31979 19.5611 4.26887 19.3141 4.31803C19.0671 4.3672 18.8497 4.51246 18.7097 4.72187L18.7096 4.72206Z" fill="white" stroke="white" stroke-width="0.4"/>
</svg>
