<svg width="24" height="24" viewBox="0 0 24 24" fill="none" xmlns="http://www.w3.org/2000/svg">
<path d="M2.88379 5.88379C2.65406 6.11353 2.525 6.42511 2.525 6.75C2.525 7.07489 2.65406 7.38647 2.88379 7.61621C3.11353 7.84594 3.42511 7.975 3.75 7.975C4.07489 7.975 4.38647 7.84594 4.61621 7.61621C4.84594 7.38647 4.975 7.07489 4.975 6.75C4.975 6.42511 4.84594 6.11353 4.61621 5.88379C4.38647 5.65406 4.07489 5.525 3.75 5.525C3.42511 5.525 3.11353 5.65406 2.88379 5.88379ZM7.64896 6.14896C7.48955 6.30837 7.4 6.52457 7.4 6.75C7.4 6.97543 7.48955 7.19163 7.64896 7.35104C7.80836 7.51045 8.02457 7.6 8.25 7.6H20.25C20.4754 7.6 20.6916 7.51045 20.851 7.35104C21.0104 7.19163 21.1 6.97543 21.1 6.75C21.1 6.52457 21.0104 6.30837 20.851 6.14896C20.6916 5.98955 20.4754 5.9 20.25 5.9H8.25C8.02457 5.9 7.80836 5.98955 7.64896 6.14896ZM2.88379 11.1338C2.65406 11.3635 2.525 11.6751 2.525 12C2.525 12.3249 2.65406 12.6365 2.88379 12.8662C3.11353 13.0959 3.42511 13.225 3.75 13.225C4.07489 13.225 4.38647 13.0959 4.61621 12.8662C4.84594 12.6365 4.975 12.3249 4.975 12C4.975 11.6751 4.84594 11.3635 4.61621 11.1338C4.38647 10.9041 4.07489 10.775 3.75 10.775C3.42511 10.775 3.11353 10.9041 2.88379 11.1338ZM7.64896 11.399C7.48955 11.5584 7.4 11.7746 7.4 12C7.4 12.2254 7.48955 12.4416 7.64896 12.601C7.80836 12.7604 8.02457 12.85 8.25 12.85H20.25C20.4754 12.85 20.6916 12.7604 20.851 12.601C21.0104 12.4416 21.1 12.2254 21.1 12C21.1 11.7746 21.0104 11.5584 20.851 11.399C20.6916 11.2396 20.4754 11.15 20.25 11.15H8.25C8.02457 11.15 7.80836 11.2396 7.64896 11.399ZM2.88379 16.3838C2.65406 16.6135 2.525 16.9251 2.525 17.25C2.525 17.5749 2.65406 17.8865 2.88379 18.1162C3.11353 18.3459 3.42511 18.475 3.75 18.475C4.07489 18.475 4.38647 18.3459 4.61621 18.1162C4.84594 17.8865 4.975 17.5749 4.975 17.25C4.975 16.9251 4.84594 16.6135 4.61621 16.3838C4.38647 16.1541 4.07489 16.025 3.75 16.025C3.42511 16.025 3.11353 16.1541 2.88379 16.3838ZM7.64896 16.649C7.48955 16.8084 7.4 17.0246 7.4 17.25C7.4 17.4754 7.48955 17.6916 7.64896 17.851C7.80837 18.0104 8.02457 18.1 8.25 18.1H20.25C20.4754 18.1 20.6916 18.0104 20.851 17.851C21.0104 17.6916 21.1 17.4754 21.1 17.25C21.1 17.0246 21.0104 16.8084 20.851 16.649C20.6916 16.4896 20.4754 16.4 20.25 16.4H8.25C8.02457 16.4 7.80837 16.4896 7.64896 16.649Z" fill="white" stroke="white" stroke-width="0.2"/>
</svg>
