<svg width="24" height="24" viewBox="0 0 24 24" fill="none" xmlns="http://www.w3.org/2000/svg">
<path d="M5.16634 20.1763L5.16643 20.1764L5.17142 20.1714L18.55 6.79284V15.75C18.55 16.002 18.6501 16.2436 18.8282 16.4218C19.0064 16.5999 19.248 16.7 19.5 16.7C19.752 16.7 19.9936 16.5999 20.1718 16.4218C20.3499 16.2436 20.45 16.002 20.45 15.75V4.5C20.45 4.24804 20.3499 4.00641 20.1718 3.82825C19.9936 3.65009 19.752 3.55 19.5 3.55H8.25C7.99804 3.55 7.75641 3.65009 7.57825 3.82825C7.40009 4.00641 7.3 4.24804 7.3 4.5C7.3 4.75196 7.40009 4.99359 7.57825 5.17175C7.75641 5.34991 7.99804 5.45 8.25 5.45H17.2072L3.82858 18.8286L3.82849 18.8285L3.82368 18.8337C3.65587 19.0137 3.56451 19.2519 3.56886 19.4981C3.5732 19.7442 3.6729 19.979 3.84696 20.153C4.02101 20.3271 4.25583 20.4268 4.50195 20.4311C4.74806 20.4355 4.98625 20.3441 5.16634 20.1763Z" fill="white" stroke="white" stroke-width="0.4"/>
</svg>
