<svg width="24" height="24" viewBox="0 0 24 24" fill="none" xmlns="http://www.w3.org/2000/svg">
<path d="M11.4347 8.43462L11.4346 8.43467C11.2848 8.58467 11.2007 8.788 11.2007 9C11.2007 9.212 11.2848 9.41533 11.4346 9.56533L11.4346 9.56536L13.0693 11.2H2.25C2.03783 11.2 1.83434 11.2843 1.68431 11.4343C1.53429 11.5843 1.45 11.7878 1.45 12C1.45 12.2122 1.53429 12.4157 1.68431 12.5657C1.83434 12.7157 2.03783 12.8 2.25 12.8H13.0693L11.4353 14.434C11.357 14.5071 11.2942 14.5953 11.2505 14.6931C11.2068 14.7912 11.1833 14.8972 11.1814 15.0046C11.1795 15.112 11.1993 15.2187 11.2395 15.3183C11.2798 15.4179 11.3396 15.5084 11.4156 15.5844C11.4916 15.6604 11.5821 15.7202 11.6817 15.7605C11.7813 15.8007 11.888 15.8205 11.9954 15.8186C12.1028 15.8167 12.2088 15.7932 12.3069 15.7495C12.4047 15.7058 12.4929 15.643 12.566 15.5647L15.5654 12.5654L15.5654 12.5653C15.7152 12.4153 15.7993 12.212 15.7993 12C15.7993 11.788 15.7152 11.5847 15.5654 11.4347L15.5654 11.4346L12.5654 8.43464L12.5653 8.43462C12.4153 8.28481 12.212 8.20066 12 8.20066C11.788 8.20066 11.5847 8.28481 11.4347 8.43462ZM16.5 3.8C16.8846 3.8 17.2534 3.95277 17.5253 4.22469C17.7972 4.49662 17.95 4.86544 17.95 5.25V18.75C17.95 19.1346 17.7972 19.5034 17.5253 19.7753C17.2534 20.0472 16.8846 20.2 16.5 20.2H10.5C10.1154 20.2 9.74662 20.0472 9.4747 19.7753C9.20277 19.5034 9.05 19.1346 9.05 18.75V15C9.05 14.7878 8.96571 14.5843 8.81569 14.4343C8.66566 14.2843 8.46217 14.2 8.25 14.2C8.03783 14.2 7.83434 14.2843 7.68431 14.4343C7.53429 14.5843 7.45 14.7878 7.45 15V18.75C7.45 19.5589 7.77134 20.3347 8.34332 20.9067C8.91531 21.4787 9.69109 21.8 10.5 21.8H16.5C17.3089 21.8 18.0847 21.4787 18.6567 20.9067C19.2287 20.3347 19.55 19.5589 19.55 18.75V5.25C19.55 4.44109 19.2287 3.66531 18.6567 3.09332C18.0847 2.52134 17.3089 2.2 16.5 2.2H10.5C9.69109 2.2 8.91531 2.52134 8.34332 3.09332C7.77134 3.66531 7.45 4.44109 7.45 5.25V9C7.45 9.21217 7.53429 9.41566 7.68431 9.56569C7.83434 9.71571 8.03783 9.8 8.25 9.8C8.46217 9.8 8.66566 9.71571 8.81569 9.56569C8.96571 9.41566 9.05 9.21217 9.05 9V5.25C9.05 4.86544 9.20277 4.49662 9.4747 4.22469C9.74662 3.95277 10.1154 3.8 10.5 3.8H16.5Z" fill="white" stroke="white" stroke-width="0.1"/>
</svg>
